<svg width="21" height="14" viewBox="0 0 21 14" fill="none" xmlns="http://www.w3.org/2000/svg">
<path fill-rule="evenodd" clip-rule="evenodd" d="M0.000366207 2.74517H21V2.23129C20.9986 1.63998 20.7707 1.07331 20.3662 0.655192C19.9617 0.237069 19.4136 0.00150438 18.8416 0H2.15892C1.58692 0.00150438 1.03876 0.237069 0.634288 0.655192C0.229818 1.07331 0.00194463 1.63998 0.000489371 2.23129V2.74517H0.000366207Z" fill="white"/>
<path d="M13.5986 7.38264H14.5769V8.75331H12.2076C12.2255 8.38416 12.3798 8.0362 12.6386 7.78118C12.8974 7.52616 13.241 7.3835 13.5986 7.38264ZM14.5769 9.43178V10.0783H12.2059V9.43178H14.5769ZM14.5769 10.7568V12.1071H13.5986C13.2444 12.1062 12.9039 11.9663 12.6458 11.7156C12.3877 11.4648 12.2314 11.1221 12.2086 10.7568H14.5769ZM15.2332 7.38264H16.1405V12.1071H15.2332V7.38264ZM16.7969 7.38264H17.7751C18.1326 7.3835 18.4762 7.52616 18.735 7.78118C18.9938 8.0362 19.1481 8.38416 19.1661 8.75331H16.7967V7.38264H16.7969ZM19.1678 9.43178V10.0783H16.7969V9.43178H19.1678ZM19.1651 10.7568C19.1422 11.1221 18.986 11.4648 18.7279 11.7156C18.4698 11.9663 18.1292 12.1062 17.7751 12.1071H16.7969V10.7568H19.1651Z" fill="white"/>
<path fill-rule="evenodd" clip-rule="evenodd" d="M12.3248 7.50552C12.4919 7.33223 12.6904 7.19473 12.909 7.10089C13.1275 7.00706 13.3619 6.95874 13.5986 6.95869H17.7752C18.2381 6.95957 18.683 7.14415 19.0181 7.47434C19.3532 7.80454 19.5529 8.25512 19.5759 8.73309C19.6062 9.38803 19.6133 10.1351 19.5746 10.7829C19.5452 11.2559 19.343 11.6997 19.0089 12.0244C18.6747 12.349 18.2337 12.5301 17.7752 12.5309H13.5986C13.14 12.53 12.699 12.3489 12.3649 12.0243C12.0308 11.6997 11.8286 11.2559 11.7993 10.7829C11.7605 10.1351 11.7677 9.38803 11.7979 8.73309C11.8195 8.27035 12.0074 7.83259 12.3248 7.50552ZM20.9996 6.00713H0V11.7685C0.00145526 12.3598 0.229328 12.9265 0.633798 13.3446C1.03827 13.7627 1.58643 13.9983 2.15843 13.9998H18.8411C19.4131 13.9983 19.9612 13.7627 20.3657 13.3446C20.7702 12.9265 20.9981 12.3598 20.9995 11.7685V6.00713H20.9996ZM2.53606 8.5278H9.71357C9.75667 8.5278 9.79934 8.53657 9.83915 8.55362C9.87897 8.57066 9.91514 8.59565 9.94562 8.62715C9.97609 8.65866 10.0003 8.69605 10.0168 8.73721C10.0332 8.77837 10.0417 8.82248 10.0417 8.86703V10.987C10.0417 11.0316 10.0332 11.0757 10.0168 11.1168C10.0003 11.158 9.97609 11.1954 9.94562 11.2269C9.91514 11.2584 9.87897 11.2834 9.83915 11.3004C9.79934 11.3175 9.75667 11.3263 9.71357 11.3263H2.53606C2.49296 11.3263 2.45029 11.3175 2.41047 11.3004C2.37066 11.2834 2.33448 11.2584 2.30401 11.2269C2.27354 11.1954 2.24937 11.158 2.23287 11.1168C2.21638 11.0757 2.2079 11.0316 2.2079 10.987V8.86703C2.2079 8.82248 2.21638 8.77837 2.23287 8.73721C2.24937 8.69605 2.27354 8.65866 2.30401 8.62715C2.33448 8.59565 2.37066 8.57066 2.41047 8.55362C2.45029 8.53657 2.49296 8.5278 2.53606 8.5278Z" fill="white"/>
<path fill-rule="evenodd" clip-rule="evenodd" d="M0.000122069 5.32879H20.9996V3.42364H0.000122069V5.32879Z" fill="white"/>
</svg>
