<svg width="33" height="21" viewBox="0 0 33 21" fill="none" xmlns="http://www.w3.org/2000/svg">
<path d="M27.0196 14.9412C23.9563 16.9376 20.7225 18.7944 17.3181 20.5118L16.3629 21C16.2633 20.9715 16.2052 20.9618 16.1886 20.9708C16.1677 20.9837 16.143 20.9895 16.1185 20.9872C16.0939 20.9849 16.0708 20.9747 16.0526 20.9581C16.0344 20.9416 16.0221 20.9196 16.0177 20.8954C16.0132 20.8713 16.0168 20.8464 16.0279 20.8245C18.1405 16.7433 20.2222 12.6899 22.273 8.66414C22.4676 8.28166 22.823 7.7957 22.9226 7.28273C22.9392 7.19874 22.9052 7.15674 22.8207 7.15674L0.156183 7.11175C0.0565884 7.11175 0.00679026 7.06225 0.00679026 6.96326L0 0.231733C0 0.170274 0.0243213 0.111331 0.0676194 0.0678727C0.110917 0.0244142 0.169643 0 0.230876 0L32.4316 0.011249C32.6368 0.011249 32.7425 0.112492 32.7485 0.314977C32.7825 1.52539 32.9771 3.34776 32.4429 4.39619C30.6744 7.86694 28.8666 11.3819 27.0196 14.9412Z" fill="white"/>
</svg>
