<svg width="32" height="32" viewBox="0 0 32 32" fill="none" xmlns="http://www.w3.org/2000/svg">
<path d="M30.2 2.34326H1.80332C0.996987 2.34326 0.343323 2.99693 0.343323 3.80326V21.2166C0.343323 22.0229 0.996987 22.6766 1.80332 22.6766H30.2C31.0063 22.6766 31.66 22.0229 31.66 21.2166V3.80326C31.66 2.99693 31.0063 2.34326 30.2 2.34326Z" fill="#A5D7EC"/>
<path d="M29.6567 20.1166V4.90326C29.6567 4.59398 29.406 4.34326 29.0967 4.34326H2.90001C2.59073 4.34326 2.34001 4.59398 2.34001 4.90326V20.1166C2.34001 20.4259 2.59073 20.6766 2.90001 20.6766H29.0967C29.406 20.6766 29.6567 20.4259 29.6567 20.1166Z" fill="#C3F0F6"/>
<path d="M9.25665 22.6765H22.7467V27.8265H9.25665V22.6765Z" fill="#4B519D"/>
<path d="M11.0333 23.7765H20.9667C21.1435 23.7765 21.3131 23.8467 21.4381 23.9718C21.5631 24.0968 21.6333 24.2664 21.6333 24.4432V27.8265H10.3533V24.4565C10.3515 24.3667 10.3679 24.2775 10.4014 24.1941C10.4349 24.1108 10.485 24.0351 10.5485 23.9716C10.612 23.9081 10.6877 23.8581 10.771 23.8246C10.8543 23.791 10.9435 23.7747 11.0333 23.7765Z" fill="#5A6AB1"/>
<path d="M25.62 27.8267H6.3833C5.96909 27.8267 5.6333 28.1624 5.6333 28.5767V28.9067C5.6333 29.3209 5.96909 29.6567 6.3833 29.6567H25.62C26.0342 29.6567 26.37 29.3209 26.37 28.9067V28.5767C26.37 28.1624 26.0342 27.8267 25.62 27.8267Z" fill="#737EC5"/>
<path d="M18.6967 27.8267H13.3033C12.8891 27.8267 12.5533 28.1624 12.5533 28.5767V28.9067C12.5533 29.3209 12.8891 29.6567 13.3033 29.6567H18.6967C19.1109 29.6567 19.4467 29.3209 19.4467 28.9067V28.5767C19.4467 28.1624 19.1109 27.8267 18.6967 27.8267Z" fill="#8CA1DE"/>
<path d="M27.6766 18.0999H22.47C22.2509 18.0999 22.0733 18.2774 22.0733 18.4965V19.7099C22.0733 19.9289 22.2509 20.1065 22.47 20.1065H27.6766C27.8957 20.1065 28.0733 19.9289 28.0733 19.7099V18.4965C28.0733 18.2774 27.8957 18.0999 27.6766 18.0999Z" fill="#52B69A"/>
<path d="M6.50997 16.3732C6.42156 16.3732 6.33678 16.3381 6.27427 16.2756C6.21175 16.2131 6.17664 16.1283 6.17664 16.0399V12.8866C6.17664 12.7982 6.21175 12.7134 6.27427 12.6509C6.33678 12.5883 6.42156 12.5532 6.50997 12.5532C6.59837 12.5532 6.68316 12.5883 6.74567 12.6509C6.80818 12.7134 6.8433 12.7982 6.8433 12.8866V16.0399C6.8433 16.1283 6.80818 16.2131 6.74567 16.2756C6.68316 16.3381 6.59837 16.3732 6.50997 16.3732Z" fill="#465091"/>
<path d="M6.50997 7.37989C6.42156 7.37989 6.33678 7.34477 6.27427 7.28226C6.21175 7.21975 6.17664 7.13496 6.17664 7.04656V5.97323C6.17664 5.88482 6.21175 5.80004 6.27427 5.73752C6.33678 5.67501 6.42156 5.63989 6.50997 5.63989C6.59837 5.63989 6.68316 5.67501 6.74567 5.73752C6.80818 5.80004 6.8433 5.88482 6.8433 5.97323V7.04656C6.8433 7.13496 6.80818 7.21975 6.74567 7.28226C6.68316 7.34477 6.59837 7.37989 6.50997 7.37989Z" fill="#465091"/>
<path d="M13.3966 18.1299C13.3082 18.1299 13.2234 18.0947 13.1609 18.0322C13.0984 17.9697 13.0633 17.8849 13.0633 17.7965V15.1932C13.0633 15.1048 13.0984 15.02 13.1609 14.9575C13.2234 14.895 13.3082 14.8599 13.3966 14.8599C13.485 14.8599 13.5698 14.895 13.6323 14.9575C13.6948 15.02 13.73 15.1048 13.73 15.1932V17.7965C13.73 17.8849 13.6948 17.9697 13.6323 18.0322C13.5698 18.0947 13.485 18.1299 13.3966 18.1299Z" fill="#465091"/>
<path d="M13.3966 9.68665C13.3082 9.68665 13.2234 9.65154 13.1609 9.58902C13.0984 9.52651 13.0633 9.44173 13.0633 9.35332V8.23665C13.0633 8.14825 13.0984 8.06346 13.1609 8.00095C13.2234 7.93844 13.3082 7.90332 13.3966 7.90332C13.485 7.90332 13.5698 7.93844 13.6323 8.00095C13.6948 8.06346 13.73 8.14825 13.73 8.23665V9.35332C13.73 9.44173 13.6948 9.52651 13.6323 9.58902C13.5698 9.65154 13.485 9.68665 13.3966 9.68665Z" fill="#465091"/>
<path d="M19.4466 13.9032C19.3582 13.9032 19.2734 13.8681 19.2109 13.8056C19.1484 13.7431 19.1133 13.6583 19.1133 13.5699V11.1566C19.1133 11.0682 19.1484 10.9834 19.2109 10.9209C19.2734 10.8584 19.3582 10.8232 19.4466 10.8232C19.535 10.8232 19.6198 10.8584 19.6823 10.9209C19.7448 10.9834 19.7799 11.0682 19.7799 11.1566V13.5699C19.7799 13.6583 19.7448 13.7431 19.6823 13.8056C19.6198 13.8681 19.535 13.9032 19.4466 13.9032Z" fill="#465091"/>
<path d="M19.4466 5.66657C19.3582 5.66657 19.2734 5.63145 19.2109 5.56894C19.1484 5.50642 19.1133 5.42164 19.1133 5.33323V4.14657C19.1133 4.05816 19.1484 3.97338 19.2109 3.91086C19.2734 3.84835 19.3582 3.81323 19.4466 3.81323C19.535 3.81323 19.6198 3.84835 19.6823 3.91086C19.7448 3.97338 19.7799 4.05816 19.7799 4.14657V5.33323C19.7799 5.42164 19.7448 5.50642 19.6823 5.56894C19.6198 5.63145 19.535 5.66657 19.4466 5.66657Z" fill="#465091"/>
<path d="M25.76 16.0166C25.6716 16.0166 25.5868 15.9815 25.5243 15.919C25.4618 15.8565 25.4266 15.7717 25.4266 15.6833V12.7633C25.4266 12.6749 25.4618 12.5901 25.5243 12.5276C25.5868 12.4651 25.6716 12.4299 25.76 12.4299C25.8484 12.4299 25.9332 12.4651 25.9957 12.5276C26.0582 12.5901 26.0933 12.6749 26.0933 12.7633V15.6833C26.0933 15.7717 26.0582 15.8565 25.9957 15.919C25.9332 15.9815 25.8484 16.0166 25.76 16.0166Z" fill="#465091"/>
<path d="M25.76 7.25654C25.6716 7.25654 25.5868 7.22142 25.5243 7.15891C25.4618 7.09639 25.4266 7.01161 25.4266 6.9232V5.61654C25.4266 5.52813 25.4618 5.44335 25.5243 5.38083C25.5868 5.31832 25.6716 5.2832 25.76 5.2832C25.8484 5.2832 25.9332 5.31832 25.9957 5.38083C26.0582 5.44335 26.0933 5.52813 26.0933 5.61654V6.9232C26.0933 7.01161 26.0582 7.09639 25.9957 7.15891C25.9332 7.22142 25.8484 7.25654 25.76 7.25654Z" fill="#465091"/>
<path d="M3.28997 18.8399C3.21425 18.8388 3.14117 18.8119 3.08274 18.7638C3.02431 18.7156 2.98402 18.649 2.9685 18.5749C2.95298 18.5008 2.96316 18.4236 2.99735 18.356C3.03154 18.2885 3.08772 18.2346 3.15663 18.2032L10.07 15.2032C10.112 15.1848 10.1574 15.1754 10.2033 15.1754C10.2492 15.1754 10.2946 15.1848 10.3366 15.2032L15.3366 17.4165L22.58 13.2799C22.6232 13.2554 22.6714 13.2408 22.721 13.2374C22.7706 13.2339 22.8204 13.2416 22.8666 13.2599L28 15.2832C28.041 15.299 28.0785 15.3228 28.1103 15.3532C28.1421 15.3836 28.1675 15.42 28.1852 15.4603C28.2028 15.5006 28.2124 15.544 28.2132 15.5879C28.214 15.6319 28.2061 15.6756 28.19 15.7165C28.1738 15.7573 28.1498 15.7944 28.1192 15.8258C28.0887 15.8573 28.0523 15.8824 28.012 15.8997C27.9718 15.9171 27.9285 15.9263 27.8847 15.9269C27.8408 15.9275 27.7973 15.9194 27.7566 15.9032L22.77 13.9399L15.52 18.0865C15.4734 18.11 15.4221 18.1222 15.37 18.1222C15.3179 18.1222 15.2665 18.11 15.22 18.0865L10.2 15.8765C2.91997 19.0332 3.38997 18.8399 3.28997 18.8399Z" fill="#465091"/>
<path d="M6.51 19.4866C6.43294 19.4873 6.35804 19.4612 6.29804 19.4128C6.23805 19.3644 6.19668 19.2967 6.18096 19.2213C6.16524 19.1458 6.17615 19.0673 6.21183 18.999C6.24752 18.9307 6.30577 18.8768 6.37667 18.8466L9.95334 17.2966C9.99539 17.2783 10.0408 17.2688 10.0867 17.2688C10.1326 17.2688 10.1779 17.2783 10.22 17.2966L11.41 17.8233C11.4538 17.8383 11.494 17.8622 11.528 17.8936C11.562 17.9249 11.5891 17.963 11.6076 18.0055C11.6261 18.0479 11.6355 18.0937 11.6354 18.1399C11.6352 18.1862 11.6254 18.2319 11.6066 18.2742C11.5878 18.3165 11.5603 18.3544 11.5261 18.3855C11.4918 18.4166 11.4515 18.4402 11.4076 18.4548C11.3637 18.4695 11.3172 18.4748 11.2712 18.4706C11.2251 18.4663 11.1804 18.4525 11.14 18.43L10.0833 17.9633C6.33334 19.5966 6.60667 19.4866 6.51 19.4866Z" fill="white"/>
<path d="M26.9033 16.3798C26.8281 16.3794 26.7551 16.3535 26.6965 16.3063C26.6378 16.2591 26.5968 16.1935 26.5802 16.1201C26.5636 16.0466 26.5723 15.9697 26.6049 15.9019C26.6376 15.8341 26.6923 15.7793 26.76 15.7465L27.4267 15.4365L27.1167 14.7698C27.0928 14.7299 27.0776 14.6854 27.072 14.6393C27.0664 14.5931 27.0705 14.5463 27.084 14.5018C27.0976 14.4573 27.1203 14.4162 27.1507 14.381C27.1811 14.3458 27.2185 14.3174 27.2606 14.2975C27.3026 14.2777 27.3483 14.2668 27.3948 14.2657C27.4413 14.2646 27.4875 14.2732 27.5305 14.291C27.5734 14.3088 27.6122 14.3354 27.6442 14.369C27.6763 14.4027 27.701 14.4427 27.7167 14.4865C28.2033 15.5098 28.2467 15.5265 28.1867 15.6998C28.1267 15.8731 28.0833 15.8531 27.0567 16.3431C27.0088 16.3662 26.9565 16.3787 26.9033 16.3798Z" fill="#465091"/>
<path d="M28.0733 10.3H26.84C26.7516 10.3 26.6668 10.2648 26.6043 10.2023C26.5418 10.1398 26.5067 10.055 26.5067 9.96663C26.5067 9.87823 26.5418 9.79344 26.6043 9.73093C26.6668 9.66842 26.7516 9.6333 26.84 9.6333H28.0733C28.1617 9.6333 28.2465 9.66842 28.309 9.73093C28.3715 9.79344 28.4067 9.87823 28.4067 9.96663C28.4067 10.055 28.3715 10.1398 28.309 10.2023C28.2465 10.2648 28.1617 10.3 28.0733 10.3Z" fill="#465091"/>
<path d="M23.3733 10.3H21.5C21.4116 10.3 21.3268 10.2648 21.2643 10.2023C21.2017 10.1398 21.1666 10.055 21.1666 9.96663C21.1666 9.87823 21.2017 9.79344 21.2643 9.73093C21.3268 9.66842 21.4116 9.6333 21.5 9.6333H23.3733C23.4617 9.6333 23.5465 9.66842 23.609 9.73093C23.6715 9.79344 23.7066 9.87823 23.7066 9.96663C23.7066 10.055 23.6715 10.1398 23.609 10.2023C23.5465 10.2648 23.4617 10.3 23.3733 10.3Z" fill="#465091"/>
<path d="M17.2767 10.3H15.5767C15.4883 10.3 15.4035 10.2648 15.341 10.2023C15.2785 10.1398 15.2433 10.055 15.2433 9.96663C15.2433 9.87823 15.2785 9.79344 15.341 9.73093C15.4035 9.66842 15.4883 9.6333 15.5767 9.6333H17.2767C17.3651 9.6333 17.4499 9.66842 17.5124 9.73093C17.5749 9.79344 17.61 9.87823 17.61 9.96663C17.61 10.055 17.5749 10.1398 17.5124 10.2023C17.4499 10.2648 17.3651 10.3 17.2767 10.3Z" fill="#465091"/>
<path d="M11.0266 10.3H8.63997C8.55157 10.3 8.46678 10.2648 8.40427 10.2023C8.34176 10.1398 8.30664 10.055 8.30664 9.96663C8.30664 9.87823 8.34176 9.79344 8.40427 9.73093C8.46678 9.66842 8.55157 9.6333 8.63997 9.6333H11.0266C11.115 9.6333 11.1998 9.66842 11.2623 9.73093C11.3249 9.79344 11.36 9.87823 11.36 9.96663C11.36 10.055 11.3249 10.1398 11.2623 10.2023C11.1998 10.2648 11.115 10.3 11.0266 10.3Z" fill="#465091"/>
<path d="M4.39 10.3H3.29C3.20159 10.3 3.11681 10.2648 3.0543 10.2023C2.99178 10.1398 2.95667 10.055 2.95667 9.96663C2.95667 9.87823 2.99178 9.79344 3.0543 9.73093C3.11681 9.66842 3.20159 9.6333 3.29 9.6333H4.39C4.4784 9.6333 4.56319 9.66842 4.6257 9.73093C4.68821 9.79344 4.72333 9.87823 4.72333 9.96663C4.72333 10.055 4.68821 10.1398 4.6257 10.2023C4.56319 10.2648 4.4784 10.3 4.39 10.3Z" fill="#465091"/>
<path d="M7.27333 7.04663H5.74333C5.57028 7.04663 5.42999 7.18692 5.42999 7.35996V12.5733C5.42999 12.7463 5.57028 12.8866 5.74333 12.8866H7.27333C7.44637 12.8866 7.58666 12.7463 7.58666 12.5733V7.35996C7.58666 7.18692 7.44637 7.04663 7.27333 7.04663Z" fill="#52B69A"/>
<path d="M14.1633 9.35327H12.6333C12.4603 9.35327 12.32 9.49356 12.32 9.6666V14.8799C12.32 15.053 12.4603 15.1933 12.6333 15.1933H14.1633C14.3364 15.1933 14.4767 15.053 14.4767 14.8799V9.6666C14.4767 9.49356 14.3364 9.35327 14.1633 9.35327Z" fill="#FFD850"/>
<path d="M20.21 5.31665H18.68C18.5069 5.31665 18.3666 5.45693 18.3666 5.62998V10.8433C18.3666 11.0164 18.5069 11.1567 18.68 11.1567H20.21C20.383 11.1567 20.5233 11.0164 20.5233 10.8433V5.62998C20.5233 5.45693 20.383 5.31665 20.21 5.31665Z" fill="#F85E70"/>
<path d="M26.5267 6.92334H24.9967C24.8236 6.92334 24.6833 7.06362 24.6833 7.23667V12.45C24.6833 12.6231 24.8236 12.7633 24.9967 12.7633H26.5267C26.6997 12.7633 26.84 12.6231 26.84 12.45V7.23667C26.84 7.06362 26.6997 6.92334 26.5267 6.92334Z" fill="#9FC3F6"/>
<path d="M18.17 25.03H13.8267C13.6223 25.03 13.4567 25.1957 13.4567 25.4V25.8367C13.4567 26.041 13.6223 26.2067 13.8267 26.2067H18.17C18.3743 26.2067 18.54 26.041 18.54 25.8367V25.4C18.54 25.1957 18.3743 25.03 18.17 25.03Z" fill="#6E88CA"/>
</svg>
