<svg width="34" height="34" viewBox="0 0 34 34" fill="none" xmlns="http://www.w3.org/2000/svg">
<g clip-path="url(#clip0_222_54057)">
<path d="M26.842 14.2252C26.9306 13.4494 26.8553 12.6635 26.621 11.9186C26.3868 11.1736 25.9988 10.4861 25.4821 9.90055C24.507 8.81734 23.1522 8.15115 21.699 8.04021C20.2458 7.92927 18.8056 8.38211 17.6774 9.30475L16.0713 10.5833C15.7378 10.8487 15.5235 11.2357 15.4754 11.6591C15.4274 12.0825 15.5494 12.5077 15.8148 12.8411C16.0802 13.1745 16.4672 13.3888 16.8906 13.4369C17.314 13.485 17.7392 13.3629 18.0726 13.0975L19.7143 11.7907C20.1841 11.4035 20.7814 11.2054 21.3896 11.2351C21.9977 11.2649 22.5728 11.5204 23.0026 11.9516C23.2616 12.2235 23.4529 12.5526 23.5612 12.9121C23.6695 13.2717 23.6916 13.6517 23.6258 14.0214C23.5076 14.6178 23.1753 15.1504 22.6916 15.5189L21.0441 16.8304C20.7107 17.0958 20.4964 17.4827 20.4483 17.9061C20.4002 18.3296 20.5223 18.7547 20.7877 19.0881C21.0531 19.4216 21.44 19.6359 21.8635 19.684C22.2869 19.732 22.7121 19.61 23.0455 19.3446L24.761 17.9789C25.3385 17.5216 25.8197 16.9544 26.1768 16.3101C26.534 15.6659 26.7601 14.9573 26.842 14.2252ZM22.4568 18.6051C22.3195 18.7144 22.1445 18.7646 21.9701 18.7448C21.7958 18.725 21.6364 18.6368 21.5271 18.4995C21.4179 18.3622 21.3676 18.1871 21.3874 18.0128C21.4072 17.8384 21.4954 17.6791 21.6327 17.5698L23.2803 16.2583C23.9447 15.7457 24.3988 15.0078 24.5571 14.1837C24.6409 13.7174 24.6244 13.2385 24.5086 12.7791C24.3929 12.3196 24.1805 11.8901 23.8858 11.5192C23.8289 11.4389 23.7676 11.3619 23.7021 11.2885C23.1088 10.693 22.316 10.3383 21.4767 10.2927C20.6373 10.247 19.8108 10.5137 19.1563 11.0413L17.5147 12.3481C17.3774 12.4573 17.2024 12.5076 17.028 12.4878C16.8537 12.468 16.6943 12.3798 16.585 12.2425C16.4758 12.1052 16.4255 11.9301 16.4453 11.7558C16.4651 11.5814 16.5533 11.4221 16.6906 11.3128L18.2731 10.0531C19.2091 9.28124 20.4064 8.89959 21.6164 8.98741C22.8265 9.07523 23.9561 9.62577 24.7709 10.5247C25.1886 10.9975 25.5056 11.5504 25.7025 12.1498C25.8993 12.7492 25.972 13.3824 25.916 14.0108C25.86 14.6392 25.6765 15.2496 25.3767 15.8047C25.0769 16.3598 24.6672 16.848 24.1724 17.2394L22.4568 18.6051Z" fill="#156FB5"/>
<path d="M18.3562 21.0232C18.0902 20.6907 17.7033 20.477 17.2802 20.4289C16.8571 20.3809 16.4322 20.5024 16.0984 20.7668L14.2379 22.2478C13.9721 22.4591 13.6646 22.6116 13.3355 22.6953C13.0065 22.779 12.6634 22.7919 12.329 22.7332C11.9933 22.6742 11.6744 22.5432 11.3941 22.3493C11.1138 22.1554 10.8787 21.9031 10.7051 21.6098C10.4117 21.0959 10.3149 20.4928 10.4328 19.9129C10.5506 19.3329 10.875 18.8154 11.3457 18.4567L13.1204 17.0439C13.4538 16.7786 13.6681 16.3916 13.7162 15.9682C13.7643 15.5447 13.6422 15.1196 13.3768 14.7862C13.1114 14.4528 12.7245 14.2384 12.301 14.1903C11.8776 14.1423 11.4524 14.2643 11.119 14.5297L9.37389 15.9189C8.22465 16.8102 7.46176 18.1089 7.24289 19.5467C7.02402 20.9845 7.3659 22.4514 8.19788 23.6443L8.37683 23.8691C9.30304 25.0294 10.6519 25.7747 12.1272 25.9412C13.6025 26.1078 15.0836 25.682 16.2452 24.7573L18.0998 23.281C18.4332 23.0156 18.6475 22.6286 18.6956 22.2052C18.7437 21.7818 18.6216 21.3566 18.3562 21.0232ZM15.6506 24.0225C15.1568 24.4153 14.5884 24.7036 13.9798 24.87C13.3713 25.0365 12.7352 25.0775 12.1103 24.9907C11.4854 24.9039 10.8846 24.691 10.3444 24.365C9.80428 24.0389 9.33598 23.6066 8.96796 23.0941C8.27571 22.0985 7.99265 20.8749 8.17733 19.6765C8.36202 18.478 9.00031 17.3964 9.96017 16.6554L11.7053 15.2663C11.8426 15.157 12.0177 15.1067 12.192 15.1265C12.3664 15.1463 12.5257 15.2346 12.635 15.3718C12.7443 15.5091 12.7946 15.6842 12.7748 15.8585C12.755 16.0329 12.6667 16.1922 12.5294 16.3015L10.7547 17.7143C10.2329 18.1022 9.83608 18.6345 9.61317 19.2453C9.39026 19.8561 9.35102 20.5188 9.50028 21.1517C9.64954 21.7845 9.98077 22.3599 10.4531 22.8067C10.9255 23.2536 11.5183 23.5524 12.1585 23.6663C12.6248 23.7501 13.1036 23.7336 13.5631 23.6178C14.0225 23.5021 14.452 23.2897 14.823 22.995L16.6894 21.5092C16.8267 21.3999 17.0018 21.3497 17.1761 21.3695C17.3505 21.3893 17.5098 21.4775 17.6191 21.6148C17.7284 21.7521 17.7786 21.9272 17.7588 22.1015C17.739 22.2759 17.6508 22.4352 17.5135 22.5445L15.6506 24.0225Z" fill="#156FB5"/>
<path d="M15.4241 20.3092L20.5768 16.2075C20.9102 15.9422 21.1245 15.5552 21.1726 15.1318C21.2207 14.7083 21.0986 14.2832 20.8332 13.9498C20.5678 13.6164 20.1808 13.402 19.7574 13.3539C19.334 13.3059 18.9088 13.4279 18.5754 13.6933L13.4228 17.795C13.0894 18.0604 12.875 18.4474 12.8269 18.8708C12.7789 19.2942 12.9009 19.7194 13.1663 20.0528C13.4317 20.3862 13.8187 20.6005 14.2421 20.6486C14.6656 20.6967 15.0907 20.5746 15.4241 20.3092ZM14.0114 18.5345L19.164 14.4328C19.3013 14.3235 19.4764 14.2733 19.6508 14.2931C19.8251 14.3129 19.9844 14.4011 20.0937 14.5384C20.203 14.6757 20.2533 14.8508 20.2335 15.0251C20.2137 15.1995 20.1254 15.3588 19.9881 15.4681L14.8355 19.5697C14.6982 19.679 14.5231 19.7293 14.3488 19.7095C14.1744 19.6897 14.0151 19.6014 13.9058 19.4641C13.7965 19.3269 13.7463 19.1518 13.7661 18.9774C13.7859 18.8031 13.8741 18.6437 14.0114 18.5345Z" fill="#156FB5"/>
</g>
<defs>
<clipPath id="clip0_222_54057">
<rect width="24" height="24" fill="white" transform="translate(18.9304) scale(1.00817) rotate(51.4793)"/>
</clipPath>
</defs>
</svg>
