<svg width="22" height="22" viewBox="0 0 22 22" fill="none" xmlns="http://www.w3.org/2000/svg">
<path d="M8.25 2.0625H4.125C3.57799 2.0625 3.05339 2.2798 2.66659 2.66659C2.2798 3.05339 2.0625 3.57799 2.0625 4.125V8.25C2.0625 8.43234 2.13493 8.6072 2.26386 8.73614C2.3928 8.86507 2.56766 8.9375 2.75 8.9375C2.93234 8.9375 3.1072 8.86507 3.23614 8.73614C3.36507 8.6072 3.4375 8.43234 3.4375 8.25V4.125C3.4375 3.94266 3.50993 3.7678 3.63886 3.63886C3.7678 3.50993 3.94266 3.4375 4.125 3.4375H8.25C8.43234 3.4375 8.6072 3.36507 8.73614 3.23614C8.86507 3.1072 8.9375 2.93234 8.9375 2.75C8.9375 2.56766 8.86507 2.3928 8.73614 2.26386C8.6072 2.13493 8.43234 2.0625 8.25 2.0625ZM17.875 2.0625H13.75C13.5677 2.0625 13.3928 2.13493 13.2639 2.26386C13.1349 2.3928 13.0625 2.56766 13.0625 2.75C13.0625 2.93234 13.1349 3.1072 13.2639 3.23614C13.3928 3.36507 13.5677 3.4375 13.75 3.4375H17.875C18.0573 3.4375 18.2322 3.50993 18.3611 3.63886C18.4901 3.7678 18.5625 3.94266 18.5625 4.125V8.25C18.5625 8.43234 18.6349 8.6072 18.7639 8.73614C18.8928 8.86507 19.0677 8.9375 19.25 8.9375C19.4323 8.9375 19.6072 8.86507 19.7361 8.73614C19.8651 8.6072 19.9375 8.43234 19.9375 8.25V4.125C19.9375 3.57799 19.7202 3.05339 19.3334 2.66659C18.9466 2.2798 18.422 2.0625 17.875 2.0625ZM19.25 13.0625C19.0677 13.0625 18.8928 13.1349 18.7639 13.2639C18.6349 13.3928 18.5625 13.5677 18.5625 13.75V17.875C18.5625 18.0573 18.4901 18.2322 18.3611 18.3611C18.2322 18.4901 18.0573 18.5625 17.875 18.5625H13.75C13.5677 18.5625 13.3928 18.6349 13.2639 18.7639C13.1349 18.8928 13.0625 19.0677 13.0625 19.25C13.0625 19.4323 13.1349 19.6072 13.2639 19.7361C13.3928 19.8651 13.5677 19.9375 13.75 19.9375H17.875C18.422 19.9375 18.9466 19.7202 19.3334 19.3334C19.7202 18.9466 19.9375 18.422 19.9375 17.875V13.75C19.9375 13.5677 19.8651 13.3928 19.7361 13.2639C19.6072 13.1349 19.4323 13.0625 19.25 13.0625ZM8.25 18.5625H4.125C3.94266 18.5625 3.7678 18.4901 3.63886 18.3611C3.50993 18.2322 3.4375 18.0573 3.4375 17.875V13.75C3.4375 13.5677 3.36507 13.3928 3.23614 13.2639C3.1072 13.1349 2.93234 13.0625 2.75 13.0625C2.56766 13.0625 2.3928 13.1349 2.26386 13.2639C2.13493 13.3928 2.0625 13.5677 2.0625 13.75V17.875C2.0625 18.422 2.2798 18.9466 2.66659 19.3334C3.05339 19.7202 3.57799 19.9375 4.125 19.9375H8.25C8.43234 19.9375 8.6072 19.8651 8.73614 19.7361C8.86507 19.6072 8.9375 19.4323 8.9375 19.25C8.9375 19.0677 8.86507 18.8928 8.73614 18.7639C8.6072 18.6349 8.43234 18.5625 8.25 18.5625Z" fill="#156FB5"/>
</svg>
