<svg width="4" height="6" viewBox="0 0 4 6" fill="none" xmlns="http://www.w3.org/2000/svg">
<path d="M2.37372 0.760542C2.36352 2.12614 2.36182 3.49258 2.36862 4.85987C2.36862 5.11085 2.52676 5.47591 2.34822 5.72942C2.30225 5.79401 2.23678 5.84237 2.16131 5.86752C2.08583 5.89266 2.00427 5.89328 1.92842 5.86927C1.85257 5.84527 1.78638 5.7979 1.73942 5.73402C1.69246 5.67013 1.66717 5.59305 1.66722 5.51393V0.823921C1.66722 0.697164 1.60346 0.633785 1.47593 0.633785H0.205758C0.170635 0.633711 0.136726 0.621428 0.110089 0.599133C0.083453 0.576838 0.0658338 0.545982 0.0603831 0.512096L0.00427075 0.185068C-0.0161336 0.0616912 0.0365764 0 0.162403 0H3.82754C3.95337 0 4.01033 0.0616912 3.99843 0.185068L3.97547 0.469003C3.96526 0.578859 3.9049 0.633785 3.79438 0.633785H2.50125C2.41623 0.633785 2.37372 0.676038 2.37372 0.760542Z" fill="white"/>
</svg>
