<svg width="11" height="10" viewBox="0 0 11 10" fill="none" xmlns="http://www.w3.org/2000/svg">
<path d="M8 1.5C8 1.20333 8.08797 0.913319 8.2528 0.666645C8.41762 0.419972 8.65189 0.227713 8.92597 0.114181C9.20006 0.000649929 9.50166 -0.0290551 9.79264 0.0288228C10.0836 0.0867006 10.3509 0.229562 10.5607 0.439341C10.7704 0.649119 10.9133 0.916394 10.9712 1.20737C11.0291 1.49834 10.9994 1.79994 10.8858 2.07403C10.7723 2.34811 10.58 2.58238 10.3334 2.74721C10.0867 2.91203 9.79667 3 9.5 3C9.10218 3 8.72064 2.84197 8.43934 2.56066C8.15804 2.27936 8 1.89783 8 1.5ZM0.5 2H6.5C6.63261 2 6.75979 1.94732 6.85355 1.85355C6.94732 1.75979 7 1.63261 7 1.5C7 1.36739 6.94732 1.24022 6.85355 1.14645C6.75979 1.05268 6.63261 1 6.5 1H0.5C0.367392 1 0.240215 1.05268 0.146447 1.14645C0.0526784 1.24022 0 1.36739 0 1.5C0 1.63261 0.0526784 1.75979 0.146447 1.85355C0.240215 1.94732 0.367392 2 0.5 2ZM3.5 3.5C3.19053 3.50087 2.8889 3.59744 2.63647 3.77647C2.38404 3.9555 2.19316 4.20823 2.09 4.5H0.5C0.367392 4.5 0.240215 4.55268 0.146447 4.64645C0.0526784 4.74022 0 4.86739 0 5C0 5.13261 0.0526784 5.25979 0.146447 5.35355C0.240215 5.44732 0.367392 5.5 0.5 5.5H2.09C2.18173 5.75944 2.34305 5.98865 2.55632 6.16254C2.76959 6.33643 3.02659 6.4483 3.29918 6.48592C3.57177 6.52353 3.84946 6.48543 4.10185 6.37579C4.35425 6.26616 4.57162 6.0892 4.73017 5.8643C4.88873 5.63939 4.98237 5.37521 5.00083 5.10065C5.0193 4.82609 4.96188 4.55175 4.83487 4.30764C4.70785 4.06353 4.51614 3.85906 4.2807 3.71661C4.04526 3.57417 3.77518 3.49923 3.5 3.5ZM10.5 4.5H6.5C6.36739 4.5 6.24021 4.55268 6.14645 4.64645C6.05268 4.74022 6 4.86739 6 5C6 5.13261 6.05268 5.25979 6.14645 5.35355C6.24021 5.44732 6.36739 5.5 6.5 5.5H10.5C10.6326 5.5 10.7598 5.44732 10.8536 5.35355C10.9473 5.25979 11 5.13261 11 5C11 4.86739 10.9473 4.74022 10.8536 4.64645C10.7598 4.55268 10.6326 4.5 10.5 4.5ZM4.5 8H0.5C0.367392 8 0.240215 8.05268 0.146447 8.14645C0.0526784 8.24022 0 8.36739 0 8.5C0 8.63261 0.0526784 8.75979 0.146447 8.85355C0.240215 8.94732 0.367392 9 0.5 9H4.5C4.63261 9 4.75979 8.94732 4.85355 8.85355C4.94732 8.75979 5 8.63261 5 8.5C5 8.36739 4.94732 8.24022 4.85355 8.14645C4.75979 8.05268 4.63261 8 4.5 8ZM10.5 8H8.91C8.79205 7.66639 8.55997 7.38522 8.25476 7.20618C7.94955 7.02715 7.59088 6.96177 7.24213 7.0216C6.89339 7.08144 6.57702 7.26264 6.34895 7.53317C6.12088 7.8037 5.99579 8.14616 5.99579 8.5C5.99579 8.85384 6.12088 9.1963 6.34895 9.46683C6.57702 9.73737 6.89339 9.91856 7.24213 9.9784C7.59088 10.0382 7.94955 9.97286 8.25476 9.79382C8.55997 9.61478 8.79205 9.33361 8.91 9H10.5C10.6326 9 10.7598 8.94732 10.8536 8.85355C10.9473 8.75979 11 8.63261 11 8.5C11 8.36739 10.9473 8.24022 10.8536 8.14645C10.7598 8.05268 10.6326 8 10.5 8Z" fill="#747474"/>
</svg>
