<svg width="6" height="6" viewBox="0 0 6 6" fill="none" xmlns="http://www.w3.org/2000/svg">
<path d="M5.05292 3.57787C5.05685 3.5603 5.05676 3.54207 5.05266 3.52453C5.04855 3.507 5.04052 3.4906 5.02917 3.47657C5.01783 3.46253 5.00345 3.45121 4.98711 3.44345C4.97076 3.43569 4.95287 3.43168 4.93476 3.43172H2.89979C2.85174 3.43172 2.80566 3.41275 2.77168 3.37897C2.7377 3.3452 2.71861 3.29939 2.71861 3.25163V2.9254C2.71861 2.82796 2.76762 2.77924 2.86565 2.77924H5.72774C5.76018 2.77907 5.79229 2.78569 5.82198 2.79868C5.85168 2.81166 5.87829 2.83071 5.90009 2.85459C5.92188 2.87847 5.93837 2.90664 5.94849 2.93728C5.95861 2.96791 5.96212 3.00033 5.9588 3.0324C5.79251 4.62096 5.0783 5.57445 3.81618 5.89286C1.0565 6.5897 -1.0126 3.75012 0.52347 1.35684C1.76283 -0.574489 4.40435 -0.386574 5.64634 1.5552C5.65923 1.57585 5.66703 1.59926 5.66907 1.62345C5.67111 1.64765 5.66733 1.67191 5.65805 1.69419C5.64878 1.71646 5.63428 1.73609 5.61579 1.75142C5.5973 1.76675 5.57535 1.77733 5.55181 1.78226C4.74045 1.95973 4.75883 1.50561 4.30457 1.14283C1.84423 -0.804155 -0.608232 3.30905 1.72345 4.91675C3.07572 5.84588 4.68793 5.20384 5.05292 3.57787Z" fill="white"/>
</svg>
