<svg width="46" height="34" viewBox="0 0 46 34" fill="none" xmlns="http://www.w3.org/2000/svg">
<path d="M0 33.8418L3.26321 27.6375C9.44623 24.5016 15.4023 21.1238 21.1314 17.5041C23.3039 16.1305 37.1295 7.2348 34.6636 4.07589C32.948 1.8809 24.4596 3.41695 21.8951 3.87331C21.7921 3.83175 21.6779 3.8362 21.5525 3.88666C21.0747 4.07811 20.5916 4.07589 20.1034 3.87999C24.7903 2.55765 29.5302 1.48761 34.3232 0.66987C37.1922 0.182342 41.3289 -0.371971 43.9068 0.338172C52.207 2.63111 33.2571 15.1287 31.5728 16.2418C21.6129 22.8157 10.7438 28.7239 0 33.8418Z" fill="white"/>
</svg>
