<svg width="20" height="20" viewBox="0 0 20 20" fill="none" xmlns="http://www.w3.org/2000/svg">
<path d="M8.125 5C8.125 3.96625 8.96625 3.125 10 3.125C11.0338 3.125 11.875 3.96625 11.875 5C11.875 6.03375 11.0338 6.875 10 6.875C8.96625 6.875 8.125 6.03375 8.125 5ZM10 8.125C8.96625 8.125 8.125 8.96625 8.125 10C8.125 11.0338 8.96625 11.875 10 11.875C11.0338 11.875 11.875 11.0338 11.875 10C11.875 8.96625 11.0338 8.125 10 8.125ZM10 13.125C8.96625 13.125 8.125 13.9663 8.125 15C8.125 16.0337 8.96625 16.875 10 16.875C11.0338 16.875 11.875 16.0337 11.875 15C11.875 13.9663 11.0338 13.125 10 13.125Z" fill="#9FA2B4"/>
</svg>
