<svg width="29" height="82" viewBox="0 0 29 82" fill="none" xmlns="http://www.w3.org/2000/svg">
<mask id="path-1-inside-1_202_30320" fill="white">
<path fill-rule="evenodd" clip-rule="evenodd" d="M29 0H0V72H8.7265L14.5 82L20.2735 72H29V0Z"/>
</mask>
<path fill-rule="evenodd" clip-rule="evenodd" d="M29 0H0V72H8.7265L14.5 82L20.2735 72H29V0Z" fill="white"/>
<path d="M0 0V-1H-1V0H0ZM29 0H30V-1H29V0ZM0 72H-1V73H0V72ZM8.7265 72L9.59252 71.5L9.30385 71H8.7265V72ZM14.5 82L13.634 82.5L14.5 84L15.366 82.5L14.5 82ZM20.2735 72V71H19.6962L19.4075 71.5L20.2735 72ZM29 72V73H30V72H29ZM0 1H29V-1H0V1ZM1 72V0H-1V72H1ZM8.7265 71H0V73H8.7265V71ZM15.366 81.5L9.59252 71.5L7.86047 72.5L13.634 82.5L15.366 81.5ZM19.4075 71.5L13.634 81.5L15.366 82.5L21.1395 72.5L19.4075 71.5ZM29 71H20.2735V73H29V71ZM28 0V72H30V0H28Z" fill="#156FB5" mask="url(#path-1-inside-1_202_30320)"/>
</svg>
