<svg width="15" height="15" viewBox="0 0 15 15" fill="none" xmlns="http://www.w3.org/2000/svg">
<path d="M15 7.4547C15 9.4318 14.2098 11.3279 12.8033 12.726C11.3968 14.124 9.48912 14.9094 7.49999 14.9094C5.51087 14.9094 3.60322 14.124 2.1967 12.726C0.790174 11.3279 0 9.4318 0 7.4547C0 5.47759 0.790174 3.58146 2.1967 2.18343C3.60322 0.785408 5.51087 0 7.49999 0C9.48912 0 11.3968 0.785408 12.8033 2.18343C14.2098 3.58146 15 5.47759 15 7.4547ZM11.8699 6.70267C11.8699 5.64701 11.448 4.63459 10.697 3.88813C9.94598 3.14166 8.92741 2.7223 7.86533 2.7223H7.12052C6.05845 2.7223 5.03987 3.14166 4.28887 3.88813C3.53787 4.63459 3.11596 5.64701 3.11596 6.70267V8.23015C3.11596 9.28581 3.53787 10.2982 4.28887 11.0447C5.03987 11.7912 6.05845 12.2105 7.12052 12.2105H7.86533C8.92741 12.2105 9.94598 11.7912 10.697 11.0447C11.448 10.2982 11.8699 9.28581 11.8699 8.23015V6.70267Z" fill="white"/>
</svg>
