<svg width="4" height="6" viewBox="0 0 4 6" fill="none" xmlns="http://www.w3.org/2000/svg">
<path d="M2.37816 0.771745V5.63733C2.37816 5.73614 2.32931 5.79066 2.23161 5.80088L1.79454 5.84432C1.77064 5.84646 1.74655 5.84369 1.72382 5.83617C1.70108 5.82866 1.68021 5.81658 1.66254 5.8007C1.64487 5.78482 1.63079 5.76549 1.6212 5.74396C1.61161 5.72242 1.60673 5.69916 1.60686 5.67566V0.766637C1.60686 0.681455 1.56401 0.638865 1.47831 0.638865H0.161973C0.0539918 0.638865 0 0.586053 0 0.480428V0.160997C0 0.0536677 0.0539918 1.96864e-06 0.161973 1.96864e-06H3.78705C3.82412 -0.000173386 3.86029 0.0113701 3.89033 0.0329589C3.92036 0.0545478 3.94272 0.0850648 3.95417 0.120108C4.0193 0.307508 4.01501 0.448056 3.94131 0.541756C3.88818 0.608198 3.78106 0.640568 3.61994 0.638865C3.24801 0.63205 2.87607 0.633751 2.50414 0.643973C2.42015 0.645676 2.37816 0.688267 2.37816 0.771745Z" fill="white"/>
</svg>
