<svg width="6" height="6" viewBox="0 0 6 6" fill="none" xmlns="http://www.w3.org/2000/svg">
<path d="M5.99998 2.98187C5.99998 3.77271 5.68392 4.53116 5.12131 5.09037C4.5587 5.64958 3.79564 5.96375 2.99999 5.96375C2.20434 5.96375 1.44128 5.64958 0.878673 5.09037C0.316065 4.53116 0 3.77271 0 2.98187C0 2.59028 0.0775916 2.20253 0.228355 1.84076C0.379119 1.47898 0.600098 1.15026 0.878673 0.873366C1.15725 0.596473 1.48797 0.376837 1.85194 0.226984C2.21592 0.0771309 2.60603 0 2.99999 0C3.39396 0 3.78406 0.0771309 4.14804 0.226984C4.51201 0.376837 4.84273 0.596473 5.12131 0.873366C5.39988 1.15026 5.62086 1.47898 5.77163 1.84076C5.92239 2.20253 5.99998 2.59028 5.99998 2.98187ZM2.91492 5.3213C3.49624 5.34148 4.06244 5.11353 4.48896 4.68762C4.91548 4.2617 5.16738 3.6727 5.18925 3.05018C5.20008 2.74193 5.15412 2.43474 5.05397 2.14614C4.95382 1.85754 4.80146 1.59317 4.60558 1.36814C4.4097 1.14312 4.17415 0.961842 3.91236 0.834653C3.65057 0.707464 3.36767 0.636856 3.07983 0.626867C2.49851 0.606691 1.93232 0.834634 1.5058 1.26055C1.07928 1.68647 0.827376 2.27548 0.805503 2.898C0.794672 3.20624 0.840645 3.51343 0.940792 3.80204C1.04094 4.09064 1.1933 4.355 1.38918 4.58002C1.58505 4.80505 1.82061 4.98633 2.0824 5.11352C2.34419 5.24071 2.62708 5.31131 2.91492 5.3213Z" fill="white"/>
</svg>
