<svg width="3" height="6" viewBox="0 0 3 6" fill="none" xmlns="http://www.w3.org/2000/svg">
<path d="M0.914443 5.38789H2.78826C2.80468 5.38787 2.82094 5.39117 2.83604 5.39757C2.85115 5.40396 2.86479 5.41334 2.87615 5.42512C2.88751 5.4369 2.89636 5.45085 2.90215 5.46613C2.90794 5.4814 2.91056 5.49768 2.90984 5.51399L2.89927 5.85023C2.89858 5.88182 2.88546 5.91189 2.86274 5.93399C2.84001 5.95608 2.80949 5.96845 2.7777 5.96844L0.124217 5.99996C0.108031 6.00031 0.0919368 5.99745 0.0768804 5.99153C0.061824 5.98561 0.0481073 5.97677 0.0365368 5.96552C0.0249662 5.95426 0.0157754 5.94082 0.00950117 5.92598C0.00322692 5.91115 -3.82271e-06 5.89522 3.39441e-09 5.87913V0.120874C-3.82271e-06 0.104781 0.00322692 0.0888503 0.00950117 0.0740155C0.0157754 0.0591807 0.0249662 0.0457407 0.0365368 0.0344847C0.0481073 0.0232287 0.061824 0.0143781 0.0768804 0.00846222C0.0919368 0.0025463 0.108031 -0.000321278 0.124217 2.85557e-05L0.673938 0.00790906C0.705721 0.00859599 0.735975 0.0216294 0.758206 0.0442171C0.780437 0.0668049 0.792879 0.0971556 0.792872 0.128754V5.26705C0.792872 5.2991 0.805682 5.32983 0.828481 5.3525C0.851281 5.37516 0.8822 5.38789 0.914443 5.38789Z" fill="white"/>
</svg>
