<svg width="35" height="10" viewBox="0 0 35 10" fill="none" xmlns="http://www.w3.org/2000/svg">
<path d="M35 0.189486L34.914 0.299741C34.8068 0.27574 34.7269 0.279491 34.674 0.310992C34.6423 0.330493 34.6235 0.340993 34.6174 0.342494C29.2614 2.43657 23.8668 4.35965 18.4338 6.11172L10.3975 8.2943C7.57455 8.83207 4.77201 9.22809 1.89703 9.28209C1.18168 9.29559 0.549339 9.10658 0 8.71507C0.971154 8.75332 2.14605 9.07508 3.06287 8.83657C4.12005 8.56431 5.36059 8.52606 6.25477 8.3573C11.1852 7.43477 16.4289 6.07721 21.9857 4.28464C26.5509 2.81009 30.2838 1.49979 33.1845 0.353741C33.8002 0.109232 34.3352 -0.00852103 34.7895 0.000479315C34.8619 0.00197937 34.9155 0.034229 34.9502 0.0972314L35 0.189486Z" fill="white"/>
</svg>
