<svg width="3" height="6" viewBox="0 0 3 6" fill="none" xmlns="http://www.w3.org/2000/svg">
<path d="M0.926611 5.40791H2.79836C2.81516 5.4079 2.83179 5.41127 2.84724 5.41781C2.86269 5.42435 2.87665 5.43393 2.88828 5.44598C2.8999 5.45803 2.90895 5.47229 2.91489 5.48791C2.92082 5.50353 2.92351 5.52017 2.92279 5.53685L2.9122 5.88157C2.91084 5.91346 2.89713 5.94358 2.87394 5.96565C2.85075 5.98772 2.81988 6.00002 2.78777 5.99999H0.137669C0.121329 5.99999 0.105146 5.9968 0.0900492 5.99058C0.0749526 5.98437 0.0612349 5.97525 0.0496805 5.96377C0.0381261 5.95228 0.0289606 5.93865 0.0227074 5.92365C0.0164542 5.90864 0.0132384 5.89256 0.0132384 5.87632L2.58976e-07 0.158134C-6.43183e-05 0.126656 0.0119504 0.0963433 0.0335944 0.0733632C0.0552385 0.050383 0.0848836 0.0364641 0.116489 0.0344549L0.669807 0.00025258C0.686803 -0.000827965 0.703841 0.00156561 0.719867 0.00729542C0.735892 0.0130252 0.750565 0.0219694 0.762975 0.0335635C0.775384 0.0451577 0.785264 0.05916 0.792008 0.0747043C0.798752 0.0902485 0.802215 0.107004 0.80218 0.123932V5.28424C0.80218 5.31704 0.815291 5.34849 0.838626 5.37169C0.861961 5.39488 0.89361 5.40791 0.926611 5.40791Z" fill="white"/>
</svg>
