<svg width="33" height="26" viewBox="0 0 33 26" fill="none" xmlns="http://www.w3.org/2000/svg">
<path d="M32.675 0.264202L32.6819 4.48892V8.96229C32.6834 10.5566 32.6644 11.5723 32.625 12.0093C31.9427 19.471 25.9799 25.5989 18.5048 25.9471C17.0243 26.0171 14.6706 26.0533 13.0741 25.8205C9.01247 25.2252 5.66643 23.2783 3.036 19.9796C2.06266 18.6474 1.30688 17.2121 0.768665 15.6735C0.303222 14.272 0.0469992 12.8306 0 11.3493L8.07324 9.15668C7.89738 10.644 8.02018 12.0764 8.44165 13.4537C9.13451 15.131 10.2087 16.3855 11.6641 17.2173C13.5608 18.3475 16.3762 18.5758 18.4775 18.169C21.5961 17.5632 23.6072 15.6418 24.5108 12.4049C24.6655 10.8964 24.7026 9.33751 24.6223 7.7281L24.6291 3.31803L24.7155 3.20727L32.4567 0.0132959C32.528 -0.016843 32.5772 0.00425742 32.6045 0.0765907L32.675 0.264202Z" fill="white"/>
</svg>
