<svg width="4" height="6" viewBox="0 0 4 6" fill="none" xmlns="http://www.w3.org/2000/svg">
<path d="M2.42895 3.47192C1.604 3.21843 0.336646 2.93908 0.144071 2.02082C-0.431052 -0.733963 3.79519 -0.32786 3.83943 1.19568C3.84153 1.28094 3.81473 1.36442 3.76334 1.43272C3.71194 1.50102 3.63894 1.55016 3.55606 1.57224C3.47319 1.59433 3.38524 1.58808 3.30637 1.5545C3.22749 1.52092 3.16227 1.46195 3.12117 1.38709C2.55906 0.339493 0.690562 0.417092 0.812873 1.64575C0.948196 3.02702 4.43797 2.32346 3.95393 4.58678C3.54796 6.49313 0.399103 6.41295 0.00614559 4.53763C-0.0181432 4.42209 0.0295637 4.36345 0.149273 4.36173L0.677553 4.35397C0.793792 4.35225 0.859721 4.40915 0.875335 4.52469C0.992442 5.41967 2.28842 5.48434 2.81409 5.07565C3.53495 4.51176 3.2565 3.72283 2.42895 3.47192Z" fill="white"/>
</svg>
