<svg width="32" height="32" viewBox="0 0 32 32" fill="none" xmlns="http://www.w3.org/2000/svg">
<path d="M30.1999 2.34375H1.80326C0.996926 2.34375 0.343262 2.99741 0.343262 3.80375V21.2171C0.343262 22.0234 0.996926 22.6771 1.80326 22.6771H30.1999C31.0063 22.6771 31.6599 22.0234 31.6599 21.2171V3.80375C31.6599 2.99741 31.0063 2.34375 30.1999 2.34375Z" fill="#A5D7EC"/>
<path d="M29.6565 20.1171V4.90375C29.6565 4.59447 29.4058 4.34375 29.0965 4.34375H2.89983C2.59055 4.34375 2.33982 4.59447 2.33982 4.90375V20.1171C2.33982 20.4264 2.59055 20.6771 2.89983 20.6771H29.0965C29.4058 20.6771 29.6565 20.4264 29.6565 20.1171Z" fill="#C3F0F6"/>
<path d="M9.25659 22.6768H22.7466V27.8268H9.25659V22.6768Z" fill="#4B519D"/>
<path d="M11.0332 23.7775H20.9665C21.1433 23.7775 21.3129 23.8477 21.4379 23.9727C21.5629 24.0978 21.6332 24.2673 21.6332 24.4441V27.8275H10.3532V24.4575C10.3513 24.3677 10.3677 24.2784 10.4012 24.1951C10.4348 24.1118 10.4848 24.0361 10.5483 23.9726C10.6118 23.9091 10.6875 23.8591 10.7708 23.8255C10.8541 23.792 10.9434 23.7757 11.0332 23.7775Z" fill="#5A6AB1"/>
<path d="M25.62 27.8271H6.3833C5.96909 27.8271 5.6333 28.1629 5.6333 28.5771V28.9071C5.6333 29.3214 5.96909 29.6571 6.3833 29.6571H25.62C26.0342 29.6571 26.37 29.3214 26.37 28.9071V28.5771C26.37 28.1629 26.0342 27.8271 25.62 27.8271Z" fill="#737EC5"/>
<path d="M18.6966 27.8271H13.3032C12.889 27.8271 12.5532 28.1629 12.5532 28.5771V28.9071C12.5532 29.3214 12.889 29.6571 13.3032 29.6571H18.6966C19.1108 29.6571 19.4466 29.3214 19.4466 28.9071V28.5771C19.4466 28.1629 19.1108 27.8271 18.6966 27.8271Z" fill="#8CA1DE"/>
<path d="M27.6766 18.1006H22.4699C22.2508 18.1006 22.0732 18.2782 22.0732 18.4973V19.7106C22.0732 19.9297 22.2508 20.1073 22.4699 20.1073H27.6766C27.8956 20.1073 28.0732 19.9297 28.0732 19.7106V18.4973C28.0732 18.2782 27.8956 18.1006 27.6766 18.1006Z" fill="#52B69A"/>
<path d="M6.50985 16.3737C6.42144 16.3737 6.33666 16.3386 6.27414 16.2761C6.21163 16.2136 6.17651 16.1288 6.17651 16.0404V12.887C6.17651 12.7986 6.21163 12.7139 6.27414 12.6513C6.33666 12.5888 6.42144 12.5537 6.50985 12.5537C6.59825 12.5537 6.68304 12.5888 6.74555 12.6513C6.80806 12.7139 6.84318 12.7986 6.84318 12.887V16.0404C6.84318 16.1288 6.80806 16.2136 6.74555 16.2761C6.68304 16.3386 6.59825 16.3737 6.50985 16.3737Z" fill="#465091"/>
<path d="M6.50985 7.38062C6.42144 7.38062 6.33666 7.34551 6.27414 7.28299C6.21163 7.22048 6.17651 7.1357 6.17651 7.04729V5.97396C6.17651 5.88555 6.21163 5.80077 6.27414 5.73826C6.33666 5.67574 6.42144 5.64062 6.50985 5.64062C6.59825 5.64062 6.68304 5.67574 6.74555 5.73826C6.80806 5.80077 6.84318 5.88555 6.84318 5.97396V7.04729C6.84318 7.1357 6.80806 7.22048 6.74555 7.28299C6.68304 7.34551 6.59825 7.38062 6.50985 7.38062Z" fill="#465091"/>
<path d="M13.3966 18.1304C13.3082 18.1304 13.2234 18.0952 13.1609 18.0327C13.0984 17.9702 13.0632 17.8854 13.0632 17.797V15.1937C13.0632 15.1053 13.0984 15.0205 13.1609 14.958C13.2234 14.8955 13.3082 14.8604 13.3966 14.8604C13.485 14.8604 13.5698 14.8955 13.6323 14.958C13.6948 15.0205 13.7299 15.1053 13.7299 15.1937V17.797C13.7299 17.8854 13.6948 17.9702 13.6323 18.0327C13.5698 18.0952 13.485 18.1304 13.3966 18.1304Z" fill="#465091"/>
<path d="M13.3966 9.68665C13.3082 9.68665 13.2234 9.65154 13.1609 9.58902C13.0984 9.52651 13.0632 9.44173 13.0632 9.35332V8.23665C13.0632 8.14825 13.0984 8.06346 13.1609 8.00095C13.2234 7.93844 13.3082 7.90332 13.3966 7.90332C13.485 7.90332 13.5698 7.93844 13.6323 8.00095C13.6948 8.06346 13.7299 8.14825 13.7299 8.23665V9.35332C13.7299 9.44173 13.6948 9.52651 13.6323 9.58902C13.5698 9.65154 13.485 9.68665 13.3966 9.68665Z" fill="#465091"/>
<path d="M19.4466 13.9032C19.3582 13.9032 19.2734 13.8681 19.2109 13.8056C19.1484 13.7431 19.1133 13.6583 19.1133 13.5699V11.1566C19.1133 11.0682 19.1484 10.9834 19.2109 10.9209C19.2734 10.8584 19.3582 10.8232 19.4466 10.8232C19.535 10.8232 19.6198 10.8584 19.6823 10.9209C19.7448 10.9834 19.7799 11.0682 19.7799 11.1566V13.5699C19.7799 13.6583 19.7448 13.7431 19.6823 13.8056C19.6198 13.8681 19.535 13.9032 19.4466 13.9032Z" fill="#465091"/>
<path d="M19.4466 5.66681C19.3582 5.66681 19.2734 5.63169 19.2109 5.56918C19.1484 5.50667 19.1133 5.42188 19.1133 5.33348V4.14681C19.1133 4.0584 19.1484 3.97362 19.2109 3.91111C19.2734 3.8486 19.3582 3.81348 19.4466 3.81348C19.535 3.81348 19.6198 3.8486 19.6823 3.91111C19.7448 3.97362 19.7799 4.0584 19.7799 4.14681V5.33348C19.7799 5.42188 19.7448 5.50667 19.6823 5.56918C19.6198 5.63169 19.535 5.66681 19.4466 5.66681Z" fill="#465091"/>
<path d="M25.7598 16.0164C25.6714 16.0164 25.5867 15.9812 25.5241 15.9187C25.4616 15.8562 25.4265 15.7714 25.4265 15.683V12.763C25.4265 12.6746 25.4616 12.5898 25.5241 12.5273C25.5867 12.4648 25.6714 12.4297 25.7598 12.4297C25.8483 12.4297 25.933 12.4648 25.9955 12.5273C26.0581 12.5898 26.0932 12.6746 26.0932 12.763V15.683C26.0932 15.7714 26.0581 15.8562 25.9955 15.9187C25.933 15.9812 25.8483 16.0164 25.7598 16.0164Z" fill="#465091"/>
<path d="M25.7598 7.25654C25.6714 7.25654 25.5867 7.22142 25.5241 7.15891C25.4616 7.09639 25.4265 7.01161 25.4265 6.9232V5.61654C25.4265 5.52813 25.4616 5.44335 25.5241 5.38083C25.5867 5.31832 25.6714 5.2832 25.7598 5.2832C25.8483 5.2832 25.933 5.31832 25.9955 5.38083C26.0581 5.44335 26.0932 5.52813 26.0932 5.61654V6.9232C26.0932 7.01161 26.0581 7.09639 25.9955 7.15891C25.933 7.22142 25.8483 7.25654 25.7598 7.25654Z" fill="#465091"/>
<path d="M3.28997 18.8406C3.21425 18.8395 3.14117 18.8127 3.08274 18.7645C3.02431 18.7163 2.98402 18.6497 2.9685 18.5756C2.95298 18.5015 2.96316 18.4243 2.99735 18.3568C3.03154 18.2892 3.08772 18.2353 3.15663 18.2039L10.07 15.2039C10.112 15.1856 10.1574 15.1761 10.2033 15.1761C10.2492 15.1761 10.2946 15.1856 10.3366 15.2039L15.3366 17.4173L22.58 13.2806C22.6232 13.2561 22.6714 13.2416 22.721 13.2381C22.7706 13.2347 22.8204 13.2423 22.8666 13.2606L28 15.2839C28.041 15.2998 28.0785 15.3236 28.1103 15.354C28.1421 15.3844 28.1675 15.4208 28.1852 15.461C28.2028 15.5013 28.2124 15.5447 28.2132 15.5887C28.214 15.6326 28.2061 15.6763 28.19 15.7173C28.1738 15.758 28.1498 15.7951 28.1192 15.8266C28.0887 15.858 28.0523 15.8831 28.012 15.9005C27.9718 15.9178 27.9285 15.927 27.8847 15.9276C27.8408 15.9282 27.7973 15.9202 27.7566 15.9039L22.77 13.9406L15.52 18.0873C15.4734 18.1107 15.4221 18.1229 15.37 18.1229C15.3179 18.1229 15.2665 18.1107 15.22 18.0873L10.2 15.8773C2.91997 19.0339 3.38997 18.8406 3.28997 18.8406Z" fill="#465091"/>
<path d="M6.50988 19.4874C6.43282 19.488 6.35791 19.4619 6.29792 19.4135C6.23793 19.3651 6.19655 19.2975 6.18084 19.222C6.16512 19.1466 6.17603 19.068 6.21171 18.9997C6.24739 18.9314 6.30564 18.8776 6.37655 18.8474L9.95322 17.2974C9.99527 17.279 10.0407 17.2695 10.0865 17.2695C10.1324 17.2695 10.1778 17.279 10.2199 17.2974L11.4099 17.824C11.4537 17.839 11.4938 17.8629 11.5278 17.8943C11.5619 17.9257 11.589 17.9638 11.6075 18.0062C11.626 18.0486 11.6354 18.0944 11.6352 18.1407C11.6351 18.1869 11.6253 18.2327 11.6064 18.2749C11.5876 18.3172 11.5602 18.3551 11.526 18.3862C11.4917 18.4173 11.4514 18.4409 11.4075 18.4556C11.3636 18.4702 11.3171 18.4756 11.2711 18.4713C11.225 18.467 11.1803 18.4532 11.1399 18.4307L10.0832 17.964C6.33322 19.5974 6.60655 19.4874 6.50988 19.4874Z" fill="white"/>
<path d="M26.9032 16.3808C26.8279 16.3803 26.755 16.3544 26.6963 16.3073C26.6376 16.2601 26.5966 16.1945 26.58 16.121C26.5634 16.0476 26.5721 15.9707 26.6048 15.9029C26.6374 15.835 26.6921 15.7803 26.7598 15.7475L27.4265 15.4375L27.1165 14.7708C27.0927 14.7309 27.0774 14.6864 27.0718 14.6402C27.0662 14.5941 27.0703 14.5473 27.0838 14.5028C27.0974 14.4583 27.1201 14.4172 27.1505 14.382C27.1809 14.3468 27.2183 14.3184 27.2604 14.2985C27.3024 14.2787 27.3482 14.2678 27.3946 14.2667C27.4411 14.2656 27.4873 14.2742 27.5303 14.292C27.5732 14.3098 27.612 14.3364 27.6441 14.37C27.6761 14.4037 27.7008 14.4437 27.7165 14.4875C28.2032 15.5108 28.2465 15.5275 28.1865 15.7008C28.1265 15.8741 28.0832 15.8541 27.0565 16.3441C27.0086 16.3672 26.9563 16.3797 26.9032 16.3808Z" fill="#465091"/>
<path d="M28.0733 10.3005H26.8399C26.7515 10.3005 26.6667 10.2653 26.6042 10.2028C26.5417 10.1403 26.5066 10.0555 26.5066 9.96712C26.5066 9.87872 26.5417 9.79393 26.6042 9.73142C26.6667 9.66891 26.7515 9.63379 26.8399 9.63379H28.0733C28.1617 9.63379 28.2465 9.66891 28.309 9.73142C28.3715 9.79393 28.4066 9.87872 28.4066 9.96712C28.4066 10.0555 28.3715 10.1403 28.309 10.2028C28.2465 10.2653 28.1617 10.3005 28.0733 10.3005Z" fill="#465091"/>
<path d="M23.3732 10.3005H21.4998C21.4114 10.3005 21.3266 10.2653 21.2641 10.2028C21.2016 10.1403 21.1665 10.0555 21.1665 9.96712C21.1665 9.87872 21.2016 9.79393 21.2641 9.73142C21.3266 9.66891 21.4114 9.63379 21.4998 9.63379H23.3732C23.4616 9.63379 23.5464 9.66891 23.6089 9.73142C23.6714 9.79393 23.7065 9.87872 23.7065 9.96712C23.7065 10.0555 23.6714 10.1403 23.6089 10.2028C23.5464 10.2653 23.4616 10.3005 23.3732 10.3005Z" fill="#465091"/>
<path d="M17.2765 10.3005H15.5765C15.4881 10.3005 15.4033 10.2653 15.3408 10.2028C15.2783 10.1403 15.2432 10.0555 15.2432 9.96712C15.2432 9.87872 15.2783 9.79393 15.3408 9.73142C15.4033 9.66891 15.4881 9.63379 15.5765 9.63379H17.2765C17.3649 9.63379 17.4497 9.66891 17.5122 9.73142C17.5747 9.79393 17.6098 9.87872 17.6098 9.96712C17.6098 10.0555 17.5747 10.1403 17.5122 10.2028C17.4497 10.2653 17.3649 10.3005 17.2765 10.3005Z" fill="#465091"/>
<path d="M11.0266 10.3005H8.63997C8.55157 10.3005 8.46678 10.2653 8.40427 10.2028C8.34176 10.1403 8.30664 10.0555 8.30664 9.96712C8.30664 9.87872 8.34176 9.79393 8.40427 9.73142C8.46678 9.66891 8.55157 9.63379 8.63997 9.63379H11.0266C11.115 9.63379 11.1998 9.66891 11.2623 9.73142C11.3249 9.79393 11.36 9.87872 11.36 9.96712C11.36 10.0555 11.3249 10.1403 11.2623 10.2028C11.1998 10.2653 11.115 10.3005 11.0266 10.3005Z" fill="#465091"/>
<path d="M4.38988 10.3005H3.28988C3.20147 10.3005 3.11669 10.2653 3.05417 10.2028C2.99166 10.1403 2.95654 10.0555 2.95654 9.96712C2.95654 9.87872 2.99166 9.79393 3.05417 9.73142C3.11669 9.66891 3.20147 9.63379 3.28988 9.63379H4.38988C4.47828 9.63379 4.56307 9.66891 4.62558 9.73142C4.68809 9.79393 4.72321 9.87872 4.72321 9.96712C4.72321 10.0555 4.68809 10.1403 4.62558 10.2028C4.56307 10.2653 4.47828 10.3005 4.38988 10.3005Z" fill="#465091"/>
<path d="M7.27326 7.04688H5.74326C5.57022 7.04688 5.42993 7.18716 5.42993 7.36021V12.5735C5.42993 12.7466 5.57022 12.8869 5.74326 12.8869H7.27326C7.44631 12.8869 7.5866 12.7466 7.5866 12.5735V7.36021C7.5866 7.18716 7.44631 7.04688 7.27326 7.04688Z" fill="#52B69A"/>
<path d="M14.1632 9.35352H12.6332C12.4601 9.35352 12.3198 9.4938 12.3198 9.66685V14.8802C12.3198 15.0532 12.4601 15.1935 12.6332 15.1935H14.1632C14.3362 15.1935 14.4765 15.0532 14.4765 14.8802V9.66685C14.4765 9.4938 14.3362 9.35352 14.1632 9.35352Z" fill="#FFD850"/>
<path d="M20.21 5.31738H18.68C18.507 5.31738 18.3667 5.45767 18.3667 5.63072V10.844C18.3667 11.0171 18.507 11.1574 18.68 11.1574H20.21C20.3831 11.1574 20.5234 11.0171 20.5234 10.844V5.63072C20.5234 5.45767 20.3831 5.31738 20.21 5.31738Z" fill="#F85E70"/>
<path d="M26.5267 6.92383H24.9967C24.8236 6.92383 24.6833 7.06411 24.6833 7.23716V12.4505C24.6833 12.6235 24.8236 12.7638 24.9967 12.7638H26.5267C26.6997 12.7638 26.84 12.6235 26.84 12.4505V7.23716C26.84 7.06411 26.6997 6.92383 26.5267 6.92383Z" fill="#9FC3F6"/>
<path d="M18.1699 25.0303H13.8265C13.6222 25.0303 13.4565 25.1959 13.4565 25.4003V25.8369C13.4565 26.0413 13.6222 26.2069 13.8265 26.2069H18.1699C18.3742 26.2069 18.5399 26.0413 18.5399 25.8369V25.4003C18.5399 25.1959 18.3742 25.0303 18.1699 25.0303Z" fill="#6E88CA"/>
</svg>
