<svg width="28" height="28" viewBox="0 0 28 28" fill="none" xmlns="http://www.w3.org/2000/svg">
<path d="M11.6272 11.2248L0 14.8284V24.2352C0 24.4804 0.18375 24.684 0.426944 24.7153C1.91461 24.9068 3.09317 26.0854 3.28463 27.573C3.31591 27.8162 3.51963 28 3.76473 28H24.2353C24.4804 28 24.6841 27.8162 24.7154 27.573C24.9068 26.0854 26.0854 24.9068 27.573 24.7153C27.8162 24.684 28 24.4803 28 24.2352V14.8282L15.7369 11.2248C14.4162 11.7444 12.9478 11.7444 11.6272 11.2248Z" fill="#FF551A"/>
<path d="M26.5865 15.3842V24.2352C26.5865 24.4804 26.4027 24.684 26.1595 24.7153C24.6719 24.9068 23.4933 26.0853 23.3018 27.573C23.2705 27.8161 23.0668 27.9999 22.8217 27.9999H24.2352C24.4803 27.9999 24.684 27.8162 24.7153 27.573C24.9068 26.0853 26.0854 24.9068 27.573 24.7153C27.8162 24.684 27.9999 24.4803 27.9999 24.2352V14.8281L26.5865 15.3842Z" fill="#FF551A"/>
<path d="M27.9999 14.8282V3.76473C27.9999 3.51957 27.8162 3.31591 27.573 3.28463C26.0853 3.09312 24.9068 1.91461 24.7154 0.426944C24.6841 0.18375 24.4804 0 24.2352 0H3.76473C3.51957 0 3.31591 0.18375 3.28463 0.426944C3.09312 1.91461 1.91461 3.09312 0.426944 3.28458C0.18375 3.31591 0 3.51957 0 3.76473V14.8284L11.9449 19.5278C13.2655 20.0474 14.7339 20.0474 16.0545 19.5278L27.9999 14.8282Z" fill="#F9F7F8"/>
<path d="M27.5731 3.28458C26.0854 3.09312 24.9068 1.91461 24.7154 0.426944C24.6841 0.18375 24.4804 0 24.2352 0H22.8217C23.0669 0 23.2705 0.18375 23.3019 0.426944C23.4933 1.91461 24.6719 3.09317 26.1596 3.28463C26.4027 3.31591 26.5865 3.51963 26.5865 3.76473V15.3843L28 14.8282V3.76473C28 3.51957 27.8162 3.31591 27.5731 3.28458Z" fill="#DEDBEE"/>
<path d="M15.766 24.771V23.2077C15.766 23.0604 15.6874 22.9244 15.5599 22.8507L14.2061 22.0691C14.0785 21.9955 13.9214 21.9955 13.7939 22.0691L12.44 22.8507C12.3125 22.9243 12.2339 23.0604 12.2339 23.2077V24.771C12.2339 24.9183 12.3125 25.0543 12.44 25.128L13.7939 25.9097C13.9214 25.9833 14.0785 25.9833 14.2061 25.9097L15.5599 25.128C15.6874 25.0544 15.766 24.9183 15.766 24.771Z" fill="#FF551A"/>
<path d="M12.7554 14.0666C12.7008 14.0666 12.6454 14.0559 12.592 14.0335C12.3768 13.9432 12.2756 13.6956 12.3659 13.4804L14.9379 7.3516C15.0283 7.1364 15.2759 7.03534 15.4911 7.12547C15.7063 7.21581 15.8075 7.46343 15.7172 7.67863L13.1452 13.8074C13.0773 13.9692 12.9204 14.0666 12.7554 14.0666Z" fill="#FF551A"/>
<path d="M12.2631 10.2932C11.4035 10.2932 10.7041 9.51127 10.7041 8.55008C10.7041 7.5889 11.4035 6.80687 12.2631 6.80687C13.1227 6.80687 13.8221 7.5889 13.8221 8.55008C13.8221 9.51127 13.1227 10.2932 12.2631 10.2932ZM12.2631 7.6519C11.8694 7.6519 11.5492 8.05478 11.5492 8.55008C11.5492 9.04528 11.8694 9.44822 12.2631 9.44822C12.6568 9.44822 12.977 9.04533 12.977 8.55008C12.977 8.05478 12.6568 7.6519 12.2631 7.6519Z" fill="#FF551A"/>
<path d="M15.7369 14.4837C14.8772 14.4837 14.1778 13.7017 14.1778 12.7405C14.1778 11.7793 14.8772 10.9973 15.7369 10.9973C16.5965 10.9973 17.2959 11.7793 17.2959 12.7405C17.2959 13.7017 16.5965 14.4837 15.7369 14.4837ZM15.7369 11.8423C15.3432 11.8423 15.0229 12.2452 15.0229 12.7405C15.0229 13.2357 15.3432 13.6386 15.7369 13.6386C16.1305 13.6386 16.4508 13.2358 16.4508 12.7405C16.4509 12.2452 16.1305 11.8423 15.7369 11.8423Z" fill="#FF551A"/>
<path d="M8.04737 6.75048H2.49922C2.2423 6.75048 2.03405 6.54223 2.03405 6.28531V4.94563C2.03405 4.68871 2.2423 4.48046 2.49922 4.48046H8.04737C8.30429 4.48046 8.51254 4.68871 8.51254 4.94563V6.28536C8.51254 6.54223 8.30423 6.75048 8.04737 6.75048Z" fill="#FF551A"/>
<path d="M8.04734 4.48046H6.80687C7.06379 4.48046 7.27204 4.68871 7.27204 4.94563V6.28531C7.27204 6.54223 7.06379 6.75048 6.80687 6.75048H8.04734C8.30426 6.75048 8.51251 6.54223 8.51251 6.28531V4.94563C8.51251 4.68871 8.30421 4.48046 8.04734 4.48046Z" fill="#FF551A"/>
<path d="M7.65971 8.97245H2.88686C2.65346 8.97245 2.46435 8.78329 2.46435 8.54994C2.46435 8.31653 2.65351 8.12742 2.88686 8.12742H7.65971C7.89311 8.12742 8.08222 8.31659 8.08222 8.54994C8.08222 8.78329 7.89311 8.97245 7.65971 8.97245Z" fill="#FF551A"/>
<path d="M7.65971 10.6214H2.88686C2.65346 10.6214 2.46435 10.4322 2.46435 10.1989C2.46435 9.96551 2.65351 9.77635 2.88686 9.77635H7.65971C7.89311 9.77635 8.08222 9.96551 8.08222 10.1989C8.08222 10.4322 7.89311 10.6214 7.65971 10.6214Z" fill="#FF551A"/>
<path d="M7.65971 12.2705H2.88686C2.65346 12.2705 2.46435 12.0814 2.46435 11.848C2.46435 11.6146 2.65351 11.4255 2.88686 11.4255H7.65971C7.89311 11.4255 8.08222 11.6147 8.08222 11.848C8.08222 12.0814 7.89311 12.2705 7.65971 12.2705Z" fill="#FF551A"/>
<path d="M7.65971 13.9195H2.88686C2.65346 13.9195 2.46435 13.7303 2.46435 13.4969C2.46435 13.2636 2.65351 13.0744 2.88686 13.0744H7.65971C7.89311 13.0744 8.08222 13.2636 8.08222 13.4969C8.08222 13.7303 7.89311 13.9195 7.65971 13.9195Z" fill="#FF551A"/>
<path d="M25.5007 6.75048H19.9526C19.6956 6.75048 19.4874 6.54223 19.4874 6.28531V4.94563C19.4874 4.68871 19.6956 4.48046 19.9526 4.48046H25.5007C25.7576 4.48046 25.9659 4.68871 25.9659 4.94563V6.28536C25.9659 6.54223 25.7576 6.75048 25.5007 6.75048Z" fill="#FF551A"/>
<path d="M25.5007 4.48046H24.2603C24.5172 4.48046 24.7254 4.68871 24.7254 4.94563V6.28531C24.7254 6.54223 24.5172 6.75048 24.2603 6.75048H25.5007C25.7577 6.75048 25.9659 6.54223 25.9659 6.28531V4.94563C25.9659 4.68871 25.7577 4.48046 25.5007 4.48046Z" fill="#FF551A"/>
<path d="M25.1131 8.97245H20.3402C20.1068 8.97245 19.9177 8.78329 19.9177 8.54994C19.9177 8.31653 20.1068 8.12742 20.3402 8.12742H25.1131C25.3465 8.12742 25.5356 8.31659 25.5356 8.54994C25.5356 8.78329 25.3464 8.97245 25.1131 8.97245Z" fill="#FF551A"/>
<path d="M25.1131 10.6214H20.3402C20.1068 10.6214 19.9177 10.4322 19.9177 10.1989C19.9177 9.96551 20.1068 9.77635 20.3402 9.77635H25.1131C25.3465 9.77635 25.5356 9.96551 25.5356 10.1989C25.5356 10.4322 25.3464 10.6214 25.1131 10.6214Z" fill="#FF551A"/>
<path d="M25.1131 12.2705H20.3402C20.1068 12.2705 19.9177 12.0814 19.9177 11.848C19.9177 11.6146 20.1068 11.4255 20.3402 11.4255H25.1131C25.3465 11.4255 25.5356 11.6147 25.5356 11.848C25.5356 12.0814 25.3464 12.2705 25.1131 12.2705Z" fill="#FF551A"/>
<path d="M25.1131 13.9195H20.3402C20.1068 13.9195 19.9177 13.7303 19.9177 13.4969C19.9177 13.2636 20.1068 13.0744 20.3402 13.0744H25.1131C25.3465 13.0744 25.5356 13.2636 25.5356 13.4969C25.5356 13.7303 25.3464 13.9195 25.1131 13.9195Z" fill="#FF551A"/>
<path d="M18.8936 2.48394H9.10633C8.87293 2.48394 8.68382 2.29478 8.68382 2.06143C8.68382 1.82808 8.87298 1.63891 9.10633 1.63891H18.8936C19.127 1.63891 19.3161 1.82808 19.3161 2.06143C19.3161 2.29478 19.127 2.48394 18.8936 2.48394Z" fill="#FF551A"/>
<path d="M8.71158 26.4512H5.27333C5.03993 26.4512 4.85082 26.262 4.85082 26.0287C4.85082 25.7953 5.03998 25.6061 5.27333 25.6061H8.71158C8.94499 25.6061 9.1341 25.7953 9.1341 26.0287C9.1341 26.262 8.94499 26.4512 8.71158 26.4512Z" fill="#F9F7F8"/>
<path d="M8.71156 24.8682H4.70992C4.47651 24.8682 4.28741 24.679 4.28741 24.4457C4.28741 24.2123 4.47657 24.0231 4.70992 24.0231H8.71156C8.94496 24.0231 9.13407 24.2123 9.13407 24.4457C9.13407 24.679 8.94496 24.8682 8.71156 24.8682Z" fill="#F9F7F8"/>
<path d="M8.71158 23.2854H3.58321C3.34981 23.2854 3.1607 23.0962 3.1607 22.8629C3.1607 22.6295 3.34986 22.4404 3.58321 22.4404H8.71163C8.94504 22.4404 9.13415 22.6295 9.13415 22.8629C9.13415 23.0962 8.94498 23.2854 8.71158 23.2854Z" fill="#F9F7F8"/>
<path d="M8.71156 21.7024H1.89303C1.65963 21.7024 1.47052 21.5132 1.47052 21.2799C1.47052 21.0465 1.65968 20.8574 1.89303 20.8574H8.71156C8.94497 20.8574 9.13408 21.0465 9.13408 21.2799C9.13408 21.5132 8.94497 21.7024 8.71156 21.7024Z" fill="#F9F7F8"/>
<path d="M5.45537 20.1853H1.89303C1.65963 20.1853 1.47052 19.9962 1.47052 19.7628C1.47052 19.5295 1.65968 19.3403 1.89303 19.3403H5.45537C5.68877 19.3403 5.87788 19.5295 5.87788 19.7628C5.87788 19.9962 5.68877 20.1853 5.45537 20.1853Z" fill="#F9F7F8"/>
<path d="M22.7267 26.4512H19.2884C19.055 26.4512 18.8659 26.262 18.8659 26.0287C18.8659 25.7953 19.0551 25.6061 19.2884 25.6061H22.7267C22.9601 25.6061 23.1492 25.7953 23.1492 26.0287C23.1492 26.262 22.9601 26.4512 22.7267 26.4512Z" fill="#F9F7F8"/>
<path d="M23.2901 24.8682H19.2884C19.055 24.8682 18.8659 24.679 18.8659 24.4457C18.8659 24.2123 19.0551 24.0231 19.2884 24.0231H23.2901C23.5235 24.0231 23.7126 24.2123 23.7126 24.4457C23.7126 24.679 23.5234 24.8682 23.2901 24.8682Z" fill="#F9F7F8"/>
<path d="M24.4168 23.2854H19.2884C19.055 23.2854 18.8659 23.0962 18.8659 22.8629C18.8659 22.6295 19.055 22.4404 19.2884 22.4404H24.4168C24.6502 22.4404 24.8393 22.6295 24.8393 22.8629C24.8393 23.0962 24.6502 23.2854 24.4168 23.2854Z" fill="#F9F7F8"/>
<path d="M26.107 21.7024H19.2884C19.055 21.7024 18.8659 21.5132 18.8659 21.2799C18.8659 21.0465 19.0551 20.8574 19.2884 20.8574H26.107C26.3404 20.8574 26.5295 21.0465 26.5295 21.2799C26.5295 21.5132 26.3404 21.7024 26.107 21.7024Z" fill="#F9F7F8"/>
<path d="M26.107 20.1853H22.5447C22.3113 20.1853 22.1221 19.9962 22.1221 19.7628C22.1221 19.5295 22.3113 19.3403 22.5447 19.3403H26.107C26.3404 19.3403 26.5295 19.5295 26.5295 19.7628C26.5295 19.9962 26.3404 20.1853 26.107 20.1853Z" fill="#F9F7F8"/>
</svg>
