<svg width="20" height="20" viewBox="0 0 20 20" fill="none" xmlns="http://www.w3.org/2000/svg">
<path d="M5.2 1.20001C2.996 1.20001 1.2 2.99601 1.2 5.20001V14.8C1.2 17.004 2.996 18.8 5.2 18.8H14.8C17.004 18.8 18.8 17.004 18.8 14.8V5.20001C18.8 2.99601 17.004 1.20001 14.8 1.20001H5.2ZM10.0008 3.99923C10.4424 3.99923 10.884 4.14139 11.2508 4.42579L14.8906 7.24532C15.0166 7.34292 15.0996 7.46908 15.1484 7.60548C15.2548 7.90428 15.1824 8.25372 14.9172 8.47892L14.5047 8.82736L13.8203 9.4047L11.7398 7.7922C11.2438 7.4122 10.628 7.20001 10 7.20001C9.372 7.20001 8.75215 7.4122 8.26015 7.7922L7.68828 8.23595L7.53984 8.35079C7.33704 8.50719 7.33247 8.81143 7.53047 8.97423C7.67407 9.09263 7.88014 9.09486 8.02734 8.98126L8.74765 8.42423C8.97565 8.24823 9.23581 8.12417 9.50781 8.06017C9.83181 7.98017 10.1682 7.98017 10.4922 8.06017C10.7602 8.12417 11.0197 8.24823 11.2477 8.42423L12.9758 9.76017L13.1961 9.93204L11.3172 11.5203C10.9384 11.8403 10.4692 12 10 12C9.5308 12 9.06161 11.8403 8.68281 11.5203L6.8039 9.93204L6.04687 9.29298L5.08281 8.47814C5.03441 8.43734 4.99303 8.39254 4.95703 8.34454C4.82223 8.16334 4.77798 7.93896 4.81718 7.72736C4.85118 7.54456 4.94695 7.37133 5.11015 7.24532L8.75078 4.42579C9.11758 4.14139 9.55918 3.99923 10.0008 3.99923ZM6.15703 10.4328L8.16718 12.1313C8.67798 12.5625 9.3288 12.8 10 12.8C10.6712 12.8 11.322 12.5625 11.8328 12.1313L13.8437 10.4328L14.8922 11.2438C15.2922 11.5558 15.3036 12.1517 14.9156 12.4797L11.3156 15.5203C10.5596 16.1603 9.44037 16.1603 8.68437 15.5203L5.08437 12.4797C4.69637 12.1517 4.70781 11.5558 5.10781 11.2438L6.15703 10.4328Z" fill="#1674B7"/>
</svg>
