<svg width="4" height="6" viewBox="0 0 4 6" fill="none" xmlns="http://www.w3.org/2000/svg">
<path d="M0.775587 4.85562C-0.26238 4.3113 0.0331971 1.69903 0.0561103 0.152627C0.0576378 0.0493814 0.110339 -0.00148531 0.214212 3.3005e-05L0.57395 0.00686516C0.680878 0.0099018 0.734345 0.0645615 0.734345 0.170844C0.728235 1.32628 0.731285 2.47869 0.743506 3.62806C0.754962 4.64837 2.33597 4.93077 2.95005 4.25209C3.54121 3.60073 3.32353 1.02718 3.29833 0.138963C3.29772 0.121236 3.3007 0.103565 3.3071 0.0870092C3.3135 0.0704534 3.32319 0.0553493 3.33559 0.0425967C3.348 0.0298441 3.36285 0.0197082 3.37928 0.0127868C3.39571 0.00586548 3.41338 0.00230216 3.43122 0.00231271H3.81846C3.83841 0.00230332 3.85816 0.00628041 3.87653 0.0140031C3.89491 0.0217258 3.91153 0.0330348 3.92542 0.0472673C3.93931 0.0614998 3.95019 0.0783612 3.9574 0.0968508C3.96461 0.11534 3.96801 0.135086 3.96739 0.154907C3.9399 1.17066 4.16903 3.54834 3.70389 4.29308C3.04552 5.34983 2.06942 5.53734 0.775587 4.85562Z" fill="white"/>
</svg>
