<svg width="24" height="24" viewBox="0 0 24 24" fill="none" xmlns="http://www.w3.org/2000/svg">
<g clip-path="url(#clip0_83_1762)">
<path d="M8.5007 23.7417C10.1072 23.7417 11.4096 22.4394 11.4096 20.8328C11.4096 19.2263 10.1072 17.924 8.5007 17.924C6.89418 17.924 5.59183 19.2263 5.59183 20.8328C5.59183 22.4394 6.89418 23.7417 8.5007 23.7417Z" fill="#F15D25"/>
<path d="M17.8204 17.8957C16.2061 17.7368 14.7686 18.9167 14.6097 20.531C14.4509 22.1453 15.6307 23.5828 17.2451 23.7417C17.4364 23.7605 17.6291 23.7605 17.8204 23.7417C19.4347 23.5828 20.6146 22.1453 20.4557 20.531C20.3185 19.1363 19.215 18.0329 17.8204 17.8957ZM23.8076 6.82498C23.7365 6.7185 23.6397 6.63164 23.5262 6.57241C23.4127 6.51319 23.2861 6.48349 23.158 6.48608H19.9385V6.4296C19.9387 3.01375 17.1699 0.244483 13.754 0.244263C10.3382 0.244042 7.56895 3.01293 7.56873 6.42877V6.48608H5.1682L4.34919 2.7582C4.305 2.57393 4.2003 2.40979 4.05183 2.29204C3.90335 2.17428 3.71969 2.10971 3.53019 2.10864H0V3.80314H2.85239L5.47886 15.8623C5.51243 16.0542 5.61333 16.2279 5.76344 16.3521C5.91355 16.4763 6.10303 16.543 6.29786 16.5401H21.0682C21.2577 16.539 21.4413 16.4744 21.5898 16.3566C21.7383 16.2389 21.843 16.0748 21.8872 15.8905L23.9771 7.53102C24.0073 7.40835 24.0076 7.28024 23.9782 7.1574C23.9487 7.03456 23.8902 6.92057 23.8076 6.82498ZM13.7536 10.92C11.2737 10.92 9.26322 8.90956 9.26322 6.4296C9.26322 3.94964 11.2737 1.9392 13.7536 1.9392C16.2336 1.9392 18.244 3.94964 18.244 6.4296C18.2286 8.90316 16.2272 10.9046 13.7536 10.92Z" fill="#F15D25"/>
<path d="M13.0758 6.51429L11.5226 4.93277L10.3082 6.11891L12.4545 8.29351C12.6109 8.45314 12.8241 8.5445 13.0476 8.54768C13.1567 8.55303 13.2657 8.53572 13.3678 8.49684C13.4699 8.45795 13.5628 8.39834 13.6407 8.32175L17.1991 4.96101L16.0412 3.71838L13.0758 6.51429Z" fill="#F15D25"/>
</g>
<defs>
<clipPath id="clip0_83_1762">
<rect width="24" height="24" fill="white"/>
</clipPath>
</defs>
</svg>
