<svg width="14" height="14" viewBox="0 0 14 14" fill="none" xmlns="http://www.w3.org/2000/svg">
<path d="M7.00006 11.0831C6.88419 11.0838 6.77075 11.0499 6.6742 10.9859C6.57765 10.9218 6.50235 10.8305 6.45792 10.7235C6.41349 10.6165 6.40194 10.4986 6.42473 10.385C6.44752 10.2714 6.50362 10.1672 6.58589 10.0856L9.67756 6.99977L6.58589 3.91394C6.49032 3.80235 6.44039 3.6588 6.44606 3.51199C6.45173 3.36518 6.51259 3.22591 6.61648 3.12203C6.72037 3.01814 6.85963 2.95728 7.00644 2.95161C7.15325 2.94594 7.2968 2.99587 7.40839 3.09144L10.9084 6.59144C11.017 6.70073 11.078 6.84858 11.078 7.00269C11.078 7.1568 11.017 7.30464 10.9084 7.41394L7.40839 10.9139C7.29974 11.0217 7.15309 11.0825 7.00006 11.0831Z" fill="#979797"/>
<path d="M3.50006 11.0831C3.38419 11.0838 3.27075 11.0499 3.1742 10.9859C3.07765 10.9218 3.00235 10.8305 2.95792 10.7235C2.91349 10.6165 2.90194 10.4987 2.92473 10.3851C2.94752 10.2715 3.00362 10.1672 3.08589 10.0856L6.17756 6.99978L3.08589 3.91395C2.97605 3.80411 2.91434 3.65513 2.91434 3.49978C2.91434 3.34444 2.97605 3.19546 3.08589 3.08562C3.19573 2.97577 3.34471 2.91406 3.50006 2.91406C3.6554 2.91406 3.80438 2.97577 3.91422 3.08562L7.41422 6.58562C7.52287 6.69491 7.58385 6.84276 7.58385 6.99687C7.58385 7.15097 7.52287 7.29882 7.41422 7.40812L3.91422 10.9081C3.8602 10.9632 3.79577 11.0071 3.72468 11.0371C3.65358 11.0672 3.57724 11.0828 3.50006 11.0831Z" fill="#979797"/>
</svg>
