<svg width="64" height="24" viewBox="0 0 64 24" fill="none" xmlns="http://www.w3.org/2000/svg">
<path d="M62.3009 0C62.2427 0.256629 62.0822 0.476915 61.8196 0.660857C61.7629 0.699426 61.7614 0.74022 61.8151 0.783239L63.165 1.88912C63.2247 1.93807 63.2545 2.00111 63.2545 2.07825V2.21176C63.2547 2.25345 63.2672 2.29417 63.2906 2.32879C63.314 2.36341 63.3472 2.39038 63.3859 2.40632C63.4247 2.42225 63.4673 2.42644 63.5085 2.41834C63.5496 2.41025 63.5874 2.39025 63.6172 2.36084L63.7202 2.25848C63.7814 2.19915 63.8381 2.20212 63.8903 2.26738L64 2.40534L57.9624 5.49379L43.718 11.8353C43.6494 11.8665 43.6143 11.9192 43.6128 11.9933L43.6083 12.2158L43.5389 12.0312C43.5121 11.96 43.4635 11.9392 43.3934 11.9689L35.7731 15.1129L35.7239 15.0217C35.6895 14.9594 35.6366 14.9275 35.5649 14.926C35.1157 14.9171 34.5866 15.0336 33.9777 15.2754C31.1093 16.4087 27.4178 17.7044 22.9032 19.1626C17.4081 20.9353 12.2227 22.2778 7.347 23.1901C6.46274 23.357 5.23597 23.3948 4.19053 23.664C3.28388 23.8999 2.12203 23.5817 1.16166 23.5439C0.483356 22.9075 -0.443436 22.7361 0.239346 21.5168C0.887056 20.3568 1.77131 19.2828 2.89212 18.2948L4.23978 16.9353L11.4258 12.0067C11.4795 12.2663 11.4743 12.5147 11.4101 12.7521C11.3012 12.6987 11.1459 12.7625 10.9445 12.9434C10.0154 13.7801 6.16052 17.9433 8.8827 18.6286C9.55279 18.7977 10.3669 18.8637 11.325 18.8266C13.8636 18.6204 16.3754 18.2229 18.8603 17.634C18.8767 17.6295 18.9618 17.6191 19.1155 17.6028C19.2408 17.591 19.3132 17.5353 19.3326 17.4359C19.346 17.4567 19.3587 17.4745 19.3707 17.4893C19.4035 17.5309 19.4453 17.5442 19.496 17.5294C24.9926 16.0223 30.3825 14.1895 35.6657 12.0312C38.3043 11.0595 40.907 9.99222 43.474 8.82923C43.5218 8.80698 43.5613 8.74616 43.5926 8.64677C43.618 8.72539 43.68 8.74393 43.7785 8.7024C48.8706 6.53514 54.3828 3.96662 60.3152 0.996847L61.3562 0.482848L62.3009 0Z" fill="white"/>
</svg>
