<svg width="5" height="6" viewBox="0 0 5 6" fill="none" xmlns="http://www.w3.org/2000/svg">
<path d="M0 0.135877C0 0.118034 0.00353545 0.100364 0.0104052 0.0838788C0.0172749 0.067394 0.0273426 0.0524153 0.0400362 0.0397984C0.0527298 0.0271815 0.0677996 0.0171705 0.0843846 0.0103423C0.10097 0.00351409 0.118748 0 0.136699 0H2.07676C2.46064 0 2.84077 0.0715746 3.19543 0.210634C3.5501 0.349694 3.87235 0.553516 4.1438 0.810465C4.41525 1.06741 4.63057 1.37245 4.77748 1.70817C4.92438 2.04389 5 2.40372 5 2.7671V3.15904C5 3.89292 4.69201 4.59674 4.1438 5.11567C3.59559 5.6346 2.85205 5.92613 2.07676 5.92613H0.136699C0.100445 5.92613 0.0656721 5.91182 0.0400362 5.88633C0.0144004 5.86085 0 5.82629 0 5.79025V0.135877ZM0.796529 0.773433L0.780757 5.13702C0.780757 5.17791 0.797097 5.21712 0.826184 5.24604C0.855271 5.27495 0.894721 5.29118 0.935856 5.29118L2.00315 5.2938C2.29212 5.29486 2.57847 5.2413 2.84584 5.13617C3.11321 5.03104 3.35636 4.87639 3.56142 4.68107C3.76647 4.48574 3.92941 4.25357 4.04092 3.9978C4.15244 3.74203 4.21035 3.46767 4.21135 3.19039V2.74097C4.21338 2.18107 3.98354 1.64328 3.57239 1.24588C3.16123 0.848479 2.60244 0.62402 2.01892 0.621879L0.951628 0.619271C0.93126 0.619271 0.911091 0.623254 0.892273 0.631001C0.873456 0.638748 0.856359 0.650105 0.841956 0.66442C0.827554 0.678736 0.816129 0.695729 0.808334 0.714433C0.80054 0.733137 0.796529 0.753188 0.796529 0.773433Z" fill="white"/>
</svg>
