<svg width="422" height="56" viewBox="0 0 422 56" fill="none" xmlns="http://www.w3.org/2000/svg">
<rect width="422" height="56" rx="8" fill="white"/>
<rect x="0.5" y="0.5" width="421" height="55" rx="7.5" stroke="#156FB5" stroke-opacity="0.2"/>
<circle cx="20" cy="28" r="4" fill="#919191"/>
<circle cx="32" cy="28" r="4" fill="#919191"/>
<circle cx="44" cy="28" r="4" fill="#919191"/>
<circle cx="56" cy="28" r="4" fill="#919191"/>
<circle cx="68" cy="28" r="4" fill="#919191"/>
<circle cx="80" cy="28" r="4" fill="#919191"/>
<circle cx="92" cy="28" r="4" fill="#919191"/>
<circle cx="104" cy="28" r="4" fill="#919191"/>
<path d="M393.845 25.3684L396.727 28.1958V28.0526C396.727 27.3407 396.44 26.658 395.928 26.1546C395.417 25.6512 394.723 25.3684 394 25.3684H393.845ZM389.936 26.0842L391.345 27.4711C391.3 27.6589 391.273 27.8468 391.273 28.0526C391.273 28.7645 391.56 29.4473 392.072 29.9507C392.583 30.454 393.277 30.7368 394 30.7368C394.2 30.7368 394.4 30.71 394.591 30.6653L396 32.0521C395.391 32.3474 394.718 32.5263 394 32.5263C392.794 32.5263 391.638 32.055 390.786 31.216C389.933 30.377 389.455 29.2391 389.455 28.0526C389.455 27.3458 389.636 26.6837 389.936 26.0842ZM384.909 21.1363L386.982 23.1763L387.391 23.5789C385.891 24.7421 384.709 26.2632 384 28.0526C385.573 31.9805 389.455 34.7632 394 34.7632C395.409 34.7632 396.755 34.4947 397.982 34.0116L398.373 34.3874L401.027 37L402.182 35.8637L386.064 20M394 23.5789C395.206 23.5789 396.362 24.0503 397.214 24.8893C398.067 25.7282 398.545 26.8661 398.545 28.0526C398.545 28.6253 398.427 29.18 398.218 29.6811L400.882 32.3026C402.245 31.1842 403.336 29.7168 404 28.0526C402.427 24.1247 398.545 21.3421 394 21.3421C392.727 21.3421 391.509 21.5658 390.364 21.9684L392.336 23.8921C392.855 23.6953 393.409 23.5789 394 23.5789Z" fill="#95B29B"/>
</svg>
