<svg width="18" height="18" viewBox="0 0 18 18" fill="none" xmlns="http://www.w3.org/2000/svg">
<g clip-path="url(#clip0_202_29902)">
<path d="M9 9.5625C8.33249 9.5625 7.67997 9.36456 7.12495 8.99371C6.56994 8.62286 6.13735 8.09576 5.88191 7.47906C5.62646 6.86236 5.55963 6.18376 5.68985 5.52907C5.82008 4.87439 6.14151 4.27302 6.61352 3.80102C7.08552 3.32901 7.68689 3.00758 8.34157 2.87735C8.99626 2.74713 9.67486 2.81396 10.2916 3.06941C10.9083 3.32485 11.4354 3.75744 11.8062 4.31245C12.1771 4.86747 12.375 5.51999 12.375 6.1875C12.375 7.08261 12.0194 7.94105 11.3865 8.57399C10.7536 9.20692 9.89511 9.5625 9 9.5625ZM9 3.9375C8.55499 3.9375 8.11998 4.06946 7.74997 4.31669C7.37996 4.56393 7.09157 4.91533 6.92127 5.32646C6.75098 5.7376 6.70642 6.19 6.79323 6.62645C6.88005 7.06291 7.09434 7.46382 7.40901 7.77849C7.72368 8.09316 8.12459 8.30745 8.56105 8.39427C8.99751 8.48109 9.4499 8.43653 9.86104 8.26623C10.2722 8.09593 10.6236 7.80755 10.8708 7.43753C11.118 7.06752 11.25 6.63251 11.25 6.1875C11.25 5.59076 11.0129 5.01847 10.591 4.59651C10.169 4.17455 9.59674 3.9375 9 3.9375Z" fill="#8C8C8C"/>
<path d="M8.99999 17.4375C7.75261 17.4367 6.52093 17.1593 5.39363 16.6253C4.26633 16.0913 3.27145 15.314 2.48061 14.3494L2.18811 13.9894L2.48061 13.635C3.27211 12.6716 4.26729 11.8956 5.39456 11.3628C6.52182 10.83 7.75315 10.5537 8.99999 10.5537C10.2468 10.5537 11.4781 10.83 12.6054 11.3628C13.7327 11.8956 14.7279 12.6716 15.5194 13.635L15.8119 13.9894L15.5194 14.3494C14.7285 15.314 13.7336 16.0913 12.6063 16.6253C11.479 17.1593 10.2474 17.4367 8.99999 17.4375ZM3.66186 13.995C4.34599 14.7274 5.17337 15.3113 6.09263 15.7105C7.01189 16.1098 8.0034 16.3158 9.00561 16.3158C10.0078 16.3158 10.9993 16.1098 11.9186 15.7105C12.8378 15.3113 13.6652 14.7274 14.3494 13.995C13.6652 13.2626 12.8378 12.6787 11.9186 12.2794C10.9993 11.8802 10.0078 11.6742 9.00561 11.6742C8.0034 11.6742 7.01189 11.8802 6.09263 12.2794C5.17337 12.6787 4.34599 13.2626 3.66186 13.995Z" fill="#8C8C8C"/>
<path d="M9.00002 17.4375C7.08344 17.4388 5.22353 16.7875 3.7264 15.5909C2.22928 14.3943 1.18417 12.7236 0.763068 10.8538C0.34197 8.98409 0.569984 7.02668 1.40958 5.30379C2.24918 3.5809 3.65033 2.19518 5.38242 1.37472C7.1145 0.554257 9.07431 0.347938 10.9393 0.789721C12.8043 1.2315 14.4632 2.29506 15.6432 3.80534C16.8232 5.31563 17.4538 7.18264 17.4313 9.09909C17.4088 11.0155 16.7345 12.8672 15.5194 14.3494C14.7286 15.314 13.7337 16.0913 12.6064 16.6253C11.4791 17.1593 10.2474 17.4367 9.00002 17.4375ZM9.00002 1.68751C7.55374 1.68751 6.13995 2.11638 4.93741 2.91988C3.73488 3.72339 2.79761 4.86545 2.24415 6.20163C1.69068 7.53782 1.54587 9.00812 1.82803 10.4266C2.11018 11.8451 2.80663 13.1481 3.8293 14.1707C4.85197 15.1934 6.15493 15.8898 7.57342 16.172C8.99191 16.4542 10.4622 16.3093 11.7984 15.7559C13.1346 15.2024 14.2766 14.2651 15.0801 13.0626C15.8836 11.8601 16.3125 10.4463 16.3125 9.00001C16.3125 7.06061 15.5421 5.20065 14.1707 3.82929C12.7994 2.45793 10.9394 1.68751 9.00002 1.68751Z" fill="#8C8C8C"/>
<path d="M2.91382 13.9951C2.91382 13.9951 8.57819 20.3233 14.3438 14.6251L15.0863 13.9951C15.0863 13.9951 10.2713 9.00015 5.38319 11.9983L2.91382 13.9951Z" fill="#8C8C8C"/>
<path d="M9 9C10.5533 9 11.8125 7.7408 11.8125 6.1875C11.8125 4.6342 10.5533 3.375 9 3.375C7.4467 3.375 6.1875 4.6342 6.1875 6.1875C6.1875 7.7408 7.4467 9 9 9Z" fill="#8C8C8C"/>
</g>
<defs>
<clipPath id="clip0_202_29902">
<rect width="18" height="18" fill="white"/>
</clipPath>
</defs>
</svg>
