<svg width="24" height="24" viewBox="0 0 24 24" fill="none" xmlns="http://www.w3.org/2000/svg">
<path d="M17.8346 2.72085C17.8554 2.69315 17.877 2.66601 17.899 2.63924C17.9036 2.63371 17.908 2.62818 17.9126 2.6227C17.9348 2.59612 17.9575 2.56996 17.9808 2.54432C17.9851 2.53959 17.9895 2.53495 17.9938 2.53021C18.0161 2.50612 18.0387 2.4824 18.0619 2.45915C18.0647 2.45638 18.0673 2.45357 18.0701 2.4508C18.0949 2.4261 18.1204 2.40205 18.1463 2.37848C18.1519 2.37341 18.1574 2.3684 18.1629 2.36338C18.189 2.33999 18.2156 2.31702 18.2426 2.29466C18.2456 2.29218 18.2487 2.28984 18.2517 2.28735C18.2772 2.26649 18.3033 2.24624 18.3296 2.22641C18.3346 2.22262 18.3395 2.21882 18.3445 2.21512C18.3678 2.19782 18.3913 2.1809 18.4152 2.1644H2.11676V21.8361H17.3368V17.0278V4.2073C17.3368 4.16905 17.338 4.13104 17.3398 4.09316C17.3401 4.08534 17.3404 4.07755 17.3409 4.06977C17.3429 4.03307 17.3457 3.99655 17.3493 3.96032C17.3499 3.95395 17.3507 3.94762 17.3513 3.94124C17.355 3.90735 17.3593 3.87369 17.3643 3.84023C17.3651 3.8354 17.3656 3.83057 17.3663 3.82574C17.3719 3.78979 17.3785 3.75416 17.3855 3.71877C17.3871 3.71113 17.3887 3.70349 17.3903 3.6959C17.3978 3.66037 17.4059 3.62502 17.4149 3.5901C17.4158 3.58687 17.4167 3.58359 17.4176 3.58035C17.4262 3.5474 17.4356 3.51482 17.4456 3.48243C17.4477 3.47587 17.4496 3.46926 17.4516 3.46274C17.4623 3.42904 17.4737 3.39562 17.4858 3.36257C17.4881 3.35591 17.4907 3.34935 17.4932 3.34279C17.5052 3.31059 17.5178 3.27866 17.5311 3.24712C17.5321 3.24496 17.5328 3.2428 17.5339 3.24065C17.5478 3.20774 17.5627 3.17535 17.5781 3.14324C17.5813 3.1364 17.5846 3.12965 17.5879 3.12285C17.6034 3.0913 17.6194 3.06009 17.6361 3.02934C17.6386 3.02474 17.6412 3.0202 17.6437 3.0156C17.6594 2.98715 17.6757 2.95907 17.6925 2.93127C17.6954 2.92645 17.6983 2.92152 17.7013 2.91665C17.7195 2.88693 17.7384 2.85773 17.7579 2.82885C17.762 2.82266 17.7663 2.81652 17.7705 2.81038C17.7906 2.78109 17.8111 2.75212 17.8324 2.72376C17.8331 2.72277 17.8339 2.72184 17.8346 2.72085ZM14.8765 3.62052H15.7884V4.4579H14.8765V3.62052ZM12.6177 3.62052H13.5292V4.4579H12.6177V3.62052ZM10.3584 3.62052H11.2703V4.4579H10.3584V3.62052ZM8.09904 3.62052H9.01099V4.4579H8.09904V3.62052ZM5.84013 3.62052H6.75213V4.4579H5.84013V3.62052ZM3.58085 3.62052H4.49285V4.4579H3.58085V3.62052ZM3.58085 5.87934H11.5789C11.7003 5.87934 11.7986 5.97768 11.7986 6.09899C11.7986 6.2203 11.7003 6.31865 11.5789 6.31865H3.58085C3.45959 6.31865 3.3612 6.2203 3.3612 6.09899C3.3612 5.97768 3.45954 5.87934 3.58085 5.87934ZM5.4822 20.7985C5.4822 20.9198 5.38385 21.0182 5.26254 21.0182C5.14128 21.0182 5.04289 20.9198 5.04289 20.7985V19.9608C5.04289 19.8614 5.10931 19.7784 5.19982 19.7513C5.10912 19.7243 5.04256 19.6413 5.04256 19.5418V14.4863C5.04256 14.365 5.1409 14.2666 5.26217 14.2666C5.38348 14.2666 5.48182 14.365 5.48182 14.4863V19.5418C5.48182 19.6412 5.4154 19.7242 5.32489 19.7513C5.41564 19.7782 5.4822 19.8613 5.4822 19.9609V20.7985ZM7.71401 19.5418C7.71401 19.6412 7.64754 19.7242 7.55688 19.7513C7.64754 19.7784 7.71401 19.8614 7.71401 19.9609V20.7986C7.71401 20.9199 7.61567 21.0182 7.49435 21.0182C7.37309 21.0182 7.2747 20.9199 7.2747 20.7986V19.9609C7.2747 19.8614 7.34117 19.7784 7.43182 19.7513C7.34117 19.7242 7.2747 19.6412 7.2747 19.5418V16.3848C7.2747 16.2635 7.37309 16.1651 7.49435 16.1651C7.61567 16.1651 7.71401 16.2635 7.71401 16.3848V19.5418ZM9.94629 19.5418C9.94629 19.6412 9.87982 19.7242 9.78917 19.7513C9.87982 19.7784 9.94629 19.8614 9.94629 19.9609V20.7986C9.94629 20.9199 9.84799 21.0182 9.72663 21.0182C9.60537 21.0182 9.50698 20.9199 9.50698 20.7986V19.9609C9.50698 19.8614 9.57345 19.7784 9.6641 19.7513C9.57345 19.7242 9.50698 19.6412 9.50698 19.5418V10.3839C9.50698 10.2626 9.60537 10.1642 9.72663 10.1642C9.84795 10.1642 9.94629 10.2626 9.94629 10.3839V19.5418ZM12.1785 19.5418C12.1785 19.6412 12.112 19.7242 12.0214 19.7513C12.112 19.7784 12.1785 19.8614 12.1785 19.9609V20.7986C12.1785 20.9199 12.0802 21.0182 11.9589 21.0182C11.8376 21.0182 11.7392 20.9199 11.7392 20.7986V19.9609C11.7392 19.8614 11.8057 19.7784 11.8963 19.7513C11.8057 19.7242 11.7392 19.6412 11.7392 19.5418V14.4863C11.7392 14.365 11.8376 14.2666 11.9589 14.2666C12.0802 14.2666 12.1785 14.365 12.1785 14.4863V19.5418ZM14.4111 19.5418C14.4111 19.6412 14.3446 19.7242 14.254 19.7513C14.3446 19.7784 14.4111 19.8614 14.4111 19.9609V20.7986C14.4111 20.9199 14.3128 21.0182 14.1915 21.0182C14.0702 21.0182 13.9718 20.9199 13.9718 20.7986V19.9609C13.9718 19.8614 14.0383 19.7784 14.1289 19.7513C14.0383 19.7242 13.9718 19.6412 13.9718 19.5418V12.2387C13.9718 12.1174 14.0702 12.0191 14.1915 12.0191C14.3128 12.0191 14.4111 12.1174 14.4111 12.2387V19.5418ZM15.7884 9.4798H3.58085C3.45959 9.4798 3.3612 9.38146 3.3612 9.26015C3.3612 9.13884 3.45954 9.04049 3.58085 9.04049H15.7884C15.9097 9.04049 16.0081 9.13884 16.0081 9.26015C16.0081 9.38146 15.9097 9.4798 15.7884 9.4798ZM15.7884 7.89909H3.58085C3.45959 7.89909 3.3612 7.80074 3.3612 7.67943C3.3612 7.55812 3.45954 7.45977 3.58085 7.45977H15.7884C15.9097 7.45977 16.0081 7.55812 16.0081 7.67943C16.0081 7.80074 15.9097 7.89909 15.7884 7.89909Z" fill="white"/>
<path d="M19.8299 2.16417C19.7944 2.16417 19.7593 2.16511 19.7243 2.16684C18.6408 2.22164 17.7761 3.11587 17.7761 4.20712V16.8081H21.8832V4.20712C21.8832 3.08062 20.9621 2.16417 19.8299 2.16417Z" fill="white"/>
</svg>
