<svg width="28" height="28" viewBox="0 0 28 28" fill="none" xmlns="http://www.w3.org/2000/svg">
<path d="M11.6272 11.2265L0 14.8301V24.2369C0 24.4821 0.18375 24.6858 0.426944 24.717C1.91461 24.9085 3.09317 26.0871 3.28463 27.5747C3.31591 27.8179 3.51963 28.0017 3.76473 28.0017H24.2353C24.4804 28.0017 24.6841 27.8179 24.7154 27.5747C24.9068 26.0871 26.0854 24.9085 27.573 24.717C27.8162 24.6858 28 24.482 28 24.2369V14.8299L15.7369 11.2265C14.4162 11.7461 12.9478 11.7461 11.6272 11.2265Z" fill="#FF551A"/>
<path d="M26.5865 15.3842V24.2352C26.5865 24.4804 26.4027 24.684 26.1595 24.7153C24.6719 24.9068 23.4933 26.0853 23.3018 27.573C23.2705 27.8161 23.0668 27.9999 22.8217 27.9999H24.2352C24.4803 27.9999 24.684 27.8162 24.7153 27.573C24.9068 26.0853 26.0854 24.9068 27.573 24.7153C27.8162 24.684 27.9999 24.4803 27.9999 24.2352V14.8281L26.5865 15.3842Z" fill="#FF551A"/>
<path d="M27.9999 14.8282V3.76473C27.9999 3.51957 27.8162 3.31591 27.573 3.28463C26.0853 3.09312 24.9068 1.91461 24.7154 0.426944C24.6841 0.18375 24.4804 0 24.2352 0H3.76473C3.51957 0 3.31591 0.18375 3.28463 0.426944C3.09312 1.91461 1.91461 3.09312 0.426944 3.28458C0.18375 3.31591 0 3.51957 0 3.76473V14.8284L11.9449 19.5278C13.2655 20.0474 14.7339 20.0474 16.0545 19.5278L27.9999 14.8282Z" fill="#F9F7F8"/>
<path d="M27.5731 3.28458C26.0854 3.09312 24.9068 1.91461 24.7154 0.426944C24.6841 0.18375 24.4804 0 24.2352 0H22.8217C23.0669 0 23.2705 0.18375 23.3019 0.426944C23.4933 1.91461 24.6719 3.09317 26.1596 3.28463C26.4027 3.31591 26.5865 3.51963 26.5865 3.76473V15.3843L28 14.8282V3.76473C28 3.51957 27.8162 3.31591 27.5731 3.28458Z" fill="#DEDBEE"/>
<path d="M15.766 24.7727V23.2094C15.766 23.0622 15.6874 22.9261 15.5599 22.8524L14.2061 22.0708C14.0785 21.9972 13.9214 21.9972 13.7939 22.0708L12.44 22.8524C12.3125 22.926 12.2339 23.0622 12.2339 23.2094V24.7727C12.2339 24.92 12.3125 25.0561 12.44 25.1297L13.7939 25.9114C13.9214 25.985 14.0785 25.985 14.2061 25.9114L15.5599 25.1297C15.6874 25.0561 15.766 24.92 15.766 24.7727Z" fill="#FF551A"/>
<path d="M12.7554 14.0678C12.7008 14.0678 12.6454 14.0572 12.592 14.0347C12.3768 13.9444 12.2756 13.6968 12.3659 13.4816L14.9379 7.35282C15.0283 7.13762 15.2759 7.03656 15.4911 7.12669C15.7063 7.21703 15.8075 7.46465 15.7172 7.67985L13.1452 13.8086C13.0773 13.9704 12.9204 14.0678 12.7554 14.0678Z" fill="#FF551A"/>
<path d="M12.2631 10.295C11.4035 10.295 10.7041 9.51298 10.7041 8.55179C10.7041 7.59061 11.4035 6.80858 12.2631 6.80858C13.1227 6.80858 13.8221 7.59061 13.8221 8.55179C13.8221 9.51298 13.1227 10.295 12.2631 10.295ZM12.2631 7.65361C11.8694 7.65361 11.5492 8.05649 11.5492 8.55179C11.5492 9.04699 11.8694 9.44993 12.2631 9.44993C12.6568 9.44993 12.977 9.04704 12.977 8.55179C12.977 8.05649 12.6568 7.65361 12.2631 7.65361Z" fill="#FF551A"/>
<path d="M15.7369 14.4864C14.8772 14.4864 14.1778 13.7044 14.1778 12.7432C14.1778 11.782 14.8772 11 15.7369 11C16.5965 11 17.2959 11.782 17.2959 12.7432C17.2959 13.7044 16.5965 14.4864 15.7369 14.4864ZM15.7369 11.845C15.3432 11.845 15.0229 12.2479 15.0229 12.7432C15.0229 13.2384 15.3432 13.6413 15.7369 13.6413C16.1305 13.6413 16.4508 13.2384 16.4508 12.7432C16.4509 12.2479 16.1305 11.845 15.7369 11.845Z" fill="#FF551A"/>
<path d="M8.04737 6.75048H2.49922C2.2423 6.75048 2.03405 6.54223 2.03405 6.28531V4.94563C2.03405 4.68871 2.2423 4.48046 2.49922 4.48046H8.04737C8.30429 4.48046 8.51254 4.68871 8.51254 4.94563V6.28536C8.51254 6.54223 8.30423 6.75048 8.04737 6.75048Z" fill="#FF551A"/>
<path d="M8.04734 4.48046H6.80687C7.06379 4.48046 7.27204 4.68871 7.27204 4.94563V6.28531C7.27204 6.54223 7.06379 6.75048 6.80687 6.75048H8.04734C8.30426 6.75048 8.51251 6.54223 8.51251 6.28531V4.94563C8.51251 4.68871 8.30421 4.48046 8.04734 4.48046Z" fill="#FF551A"/>
<path d="M7.65971 8.97392H2.88686C2.65346 8.97392 2.46435 8.78475 2.46435 8.5514C2.46435 8.318 2.65351 8.12889 2.88686 8.12889H7.65971C7.89311 8.12889 8.08222 8.31805 8.08222 8.5514C8.08222 8.78475 7.89311 8.97392 7.65971 8.97392Z" fill="#FF551A"/>
<path d="M7.65971 10.6224H2.88686C2.65346 10.6224 2.46435 10.4332 2.46435 10.1998C2.46435 9.96649 2.65351 9.77732 2.88686 9.77732H7.65971C7.89311 9.77732 8.08222 9.96649 8.08222 10.1998C8.08222 10.4332 7.89311 10.6224 7.65971 10.6224Z" fill="#FF551A"/>
<path d="M7.65971 12.2708H2.88686C2.65346 12.2708 2.46435 12.0816 2.46435 11.8483C2.46435 11.6149 2.65351 11.4258 2.88686 11.4258H7.65971C7.89311 11.4258 8.08222 11.6149 8.08222 11.8483C8.08222 12.0816 7.89311 12.2708 7.65971 12.2708Z" fill="#FF551A"/>
<path d="M7.65971 13.9192H2.88686C2.65346 13.9192 2.46435 13.7301 2.46435 13.4967C2.46435 13.2634 2.65351 13.0742 2.88686 13.0742H7.65971C7.89311 13.0742 8.08222 13.2634 8.08222 13.4967C8.08222 13.7301 7.89311 13.9192 7.65971 13.9192Z" fill="#FF551A"/>
<path d="M25.5007 6.75048H19.9526C19.6956 6.75048 19.4874 6.54223 19.4874 6.28531V4.94563C19.4874 4.68871 19.6956 4.48046 19.9526 4.48046H25.5007C25.7576 4.48046 25.9659 4.68871 25.9659 4.94563V6.28536C25.9659 6.54223 25.7576 6.75048 25.5007 6.75048Z" fill="#FF551A"/>
<path d="M25.5007 4.48046H24.2603C24.5172 4.48046 24.7254 4.68871 24.7254 4.94563V6.28531C24.7254 6.54223 24.5172 6.75048 24.2603 6.75048H25.5007C25.7577 6.75048 25.9659 6.54223 25.9659 6.28531V4.94563C25.9659 4.68871 25.7577 4.48046 25.5007 4.48046Z" fill="#FF551A"/>
<path d="M25.1131 8.97392H20.3402C20.1068 8.97392 19.9177 8.78475 19.9177 8.5514C19.9177 8.318 20.1068 8.12889 20.3402 8.12889H25.1131C25.3465 8.12889 25.5356 8.31805 25.5356 8.5514C25.5356 8.78475 25.3464 8.97392 25.1131 8.97392Z" fill="#FF551A"/>
<path d="M25.1131 10.6224H20.3402C20.1068 10.6224 19.9177 10.4332 19.9177 10.1998C19.9177 9.96649 20.1068 9.77732 20.3402 9.77732H25.1131C25.3465 9.77732 25.5356 9.96649 25.5356 10.1998C25.5356 10.4332 25.3464 10.6224 25.1131 10.6224Z" fill="#FF551A"/>
<path d="M25.1131 12.2708H20.3402C20.1068 12.2708 19.9177 12.0816 19.9177 11.8483C19.9177 11.6149 20.1068 11.4258 20.3402 11.4258H25.1131C25.3465 11.4258 25.5356 11.6149 25.5356 11.8483C25.5356 12.0816 25.3464 12.2708 25.1131 12.2708Z" fill="#FF551A"/>
<path d="M25.1131 13.9192H20.3402C20.1068 13.9192 19.9177 13.7301 19.9177 13.4967C19.9177 13.2634 20.1068 13.0742 20.3402 13.0742H25.1131C25.3465 13.0742 25.5356 13.2634 25.5356 13.4967C25.5356 13.7301 25.3464 13.9192 25.1131 13.9192Z" fill="#FF551A"/>
<path d="M18.8936 2.48565H9.10633C8.87293 2.48565 8.68382 2.29649 8.68382 2.06314C8.68382 1.82979 8.87298 1.64062 9.10633 1.64062H18.8936C19.127 1.64062 19.3161 1.82979 19.3161 2.06314C19.3161 2.29649 19.127 2.48565 18.8936 2.48565Z" fill="#FF551A"/>
<path d="M8.71158 26.4504H5.27333C5.03993 26.4504 4.85082 26.2613 4.85082 26.0279C4.85082 25.7946 5.03998 25.6054 5.27333 25.6054H8.71158C8.94499 25.6054 9.1341 25.7946 9.1341 26.0279C9.1341 26.2613 8.94499 26.4504 8.71158 26.4504Z" fill="#F9F7F8"/>
<path d="M8.71156 24.8684H4.70992C4.47651 24.8684 4.28741 24.6793 4.28741 24.4459C4.28741 24.2125 4.47657 24.0234 4.70992 24.0234H8.71156C8.94496 24.0234 9.13407 24.2125 9.13407 24.4459C9.13407 24.6793 8.94496 24.8684 8.71156 24.8684Z" fill="#F9F7F8"/>
<path d="M8.71158 23.2864H3.58321C3.34981 23.2864 3.1607 23.0972 3.1607 22.8639C3.1607 22.6305 3.34986 22.4414 3.58321 22.4414H8.71163C8.94504 22.4414 9.13415 22.6305 9.13415 22.8639C9.13415 23.0972 8.94498 23.2864 8.71158 23.2864Z" fill="#F9F7F8"/>
<path d="M8.71156 21.7005H1.89303C1.65963 21.7005 1.47052 21.5113 1.47052 21.2779C1.47052 21.0446 1.65968 20.8554 1.89303 20.8554H8.71156C8.94497 20.8554 9.13408 21.0446 9.13408 21.2779C9.13408 21.5113 8.94497 21.7005 8.71156 21.7005Z" fill="#F9F7F8"/>
<path d="M5.45537 20.1848H1.89303C1.65963 20.1848 1.47052 19.9957 1.47052 19.7623C1.47052 19.529 1.65968 19.3398 1.89303 19.3398H5.45537C5.68877 19.3398 5.87788 19.529 5.87788 19.7623C5.87788 19.9957 5.68877 20.1848 5.45537 20.1848Z" fill="#F9F7F8"/>
<path d="M22.7267 26.4504H19.2884C19.055 26.4504 18.8659 26.2613 18.8659 26.0279C18.8659 25.7946 19.0551 25.6054 19.2884 25.6054H22.7267C22.9601 25.6054 23.1492 25.7946 23.1492 26.0279C23.1492 26.2613 22.9601 26.4504 22.7267 26.4504Z" fill="#F9F7F8"/>
<path d="M23.2901 24.8684H19.2884C19.055 24.8684 18.8659 24.6793 18.8659 24.4459C18.8659 24.2125 19.0551 24.0234 19.2884 24.0234H23.2901C23.5235 24.0234 23.7126 24.2125 23.7126 24.4459C23.7126 24.6793 23.5234 24.8684 23.2901 24.8684Z" fill="#F9F7F8"/>
<path d="M24.4168 23.2864H19.2884C19.055 23.2864 18.8659 23.0972 18.8659 22.8639C18.8659 22.6305 19.055 22.4414 19.2884 22.4414H24.4168C24.6502 22.4414 24.8393 22.6305 24.8393 22.8639C24.8393 23.0972 24.6502 23.2864 24.4168 23.2864Z" fill="#F9F7F8"/>
<path d="M26.107 21.7005H19.2884C19.055 21.7005 18.8659 21.5113 18.8659 21.2779C18.8659 21.0446 19.0551 20.8554 19.2884 20.8554H26.107C26.3404 20.8554 26.5295 21.0446 26.5295 21.2779C26.5295 21.5113 26.3404 21.7005 26.107 21.7005Z" fill="#F9F7F8"/>
<path d="M26.107 20.1848H22.5447C22.3113 20.1848 22.1221 19.9957 22.1221 19.7623C22.1221 19.529 22.3113 19.3398 22.5447 19.3398H26.107C26.3404 19.3398 26.5295 19.529 26.5295 19.7623C26.5295 19.9957 26.3404 20.1848 26.107 20.1848Z" fill="#F9F7F8"/>
</svg>
