<svg width="12" height="14" viewBox="0 0 12 14" fill="none" xmlns="http://www.w3.org/2000/svg">
<path d="M9.1766 9.37772L9.16754 0.0832664C9.16754 0.0647637 9.17494 0.0470177 9.1881 0.0339343C9.20127 0.0208509 9.21911 0.0135023 9.23773 0.0135023H11.9298C11.9484 0.0135023 11.9663 0.0208509 11.9794 0.0339343C11.9926 0.0470177 12 0.0647637 12 0.0832664V13.9102C12 13.9287 11.9926 13.9464 11.9794 13.9595C11.9663 13.9726 11.9484 13.9799 11.9298 13.9799L9.19924 13.9597C9.18757 13.9597 9.17607 13.9569 9.16579 13.9513C9.15551 13.9458 9.14677 13.9379 9.14037 13.9282L2.95245 4.62022C2.9442 4.60758 2.93204 4.59794 2.91782 4.59274C2.90359 4.58753 2.88805 4.58705 2.87352 4.59136C2.859 4.59566 2.84626 4.60453 2.83723 4.61663C2.82819 4.62873 2.82334 4.64341 2.8234 4.65848L2.83471 13.8967C2.83471 13.9152 2.82732 13.9329 2.81416 13.946C2.80099 13.9591 2.78314 13.9664 2.76453 13.9664H0.0701881C0.0515729 13.9664 0.0337191 13.9591 0.0205562 13.946C0.00739325 13.9329 0 13.9152 0 13.8967V0.0697641C0 0.0512614 0.00739325 0.0335154 0.0205562 0.020432C0.0337191 0.00734859 0.0515729 0 0.0701881 0L2.76906 0.0202534C2.78073 0.0202246 2.79223 0.0230896 2.80251 0.0285911C2.81279 0.0340925 2.82152 0.0420598 2.82792 0.0517634L9.04754 9.41598C9.0558 9.42862 9.06795 9.43826 9.08218 9.44347C9.09641 9.44867 9.11194 9.44915 9.12647 9.44485C9.141 9.44054 9.15373 9.43167 9.16277 9.41957C9.1718 9.40747 9.17666 9.39279 9.1766 9.37772Z" fill="white"/>
</svg>
