<svg width="18" height="18" viewBox="0 0 18 18" fill="none" xmlns="http://www.w3.org/2000/svg">
<path d="M9.375 8.02461L9 8.24961L8.625 8.02461L2.625 5.02461L8.625 1.64961C8.85 1.49961 9.15 1.49961 9.375 1.64961L15.375 5.02461L12.375 6.52461C12.375 6.52461 12.3 6.52461 12.3 6.44961L9.3 4.94961C8.925 4.79961 8.475 4.94961 8.325 5.32461C8.175 5.69961 8.325 6.07461 8.625 6.22461L10.725 7.27461L9.375 8.02461ZM2.25 5.69961V12.4496C2.25 12.7496 2.4 12.9746 2.625 13.1246L8.625 16.4996V8.99961L8.25 8.77461L2.25 5.69961ZM15.75 5.69961L12.75 7.19961V10.4996C12.75 10.9496 12.45 11.2496 12 11.2496C11.55 11.2496 11.25 10.9496 11.25 10.4996V7.94961L9.375 8.92461V16.4246L15.375 13.0496C15.6 12.8996 15.75 12.6746 15.75 12.4496V5.69961Z" fill="#8C8C8C"/>
</svg>
