<svg width="257" height="214" viewBox="0 0 257 214" fill="none" xmlns="http://www.w3.org/2000/svg">
<path d="M245.816 110.525C245.816 139.113 234.139 164.882 215.416 183.404C197.096 201.725 171.729 212.797 143.745 212.797C115.962 212.797 90.5955 201.523 72.0738 183.404C53.3507 164.882 41.6739 139.113 41.6739 110.525C41.6739 53.9534 87.3743 8.25298 143.745 8.25298C200.115 8.25298 245.816 54.1547 245.816 110.525Z" fill="#EAEEF9"/>
<path d="M236.957 43.4861C241.516 43.4861 245.212 39.7905 245.212 35.2318C245.212 30.6731 241.516 26.9776 236.957 26.9776C232.399 26.9776 228.703 30.6731 228.703 35.2318C228.703 39.7905 232.399 43.4861 236.957 43.4861Z" fill="#EAEEF9"/>
<path d="M249.037 11.2741C252.15 11.2741 254.674 8.75031 254.674 5.63705C254.674 2.52379 252.15 0 249.037 0C245.924 0 243.4 2.52379 243.4 5.63705C243.4 8.75031 245.924 11.2741 249.037 11.2741Z" fill="#EAEEF9"/>
<path d="M44.8951 43.2852C48.0083 43.2852 50.5321 40.7614 50.5321 37.6481C50.5321 34.5349 48.0083 32.0111 44.8951 32.0111C41.7818 32.0111 39.258 34.5349 39.258 37.6481C39.258 40.7614 41.7818 43.2852 44.8951 43.2852Z" fill="#EAEEF9"/>
<path d="M10.4688 151.998C16.2506 151.998 20.9376 147.311 20.9376 141.529C20.9376 135.748 16.2506 131.06 10.4688 131.06C4.68705 131.06 0 135.748 0 141.529C0 147.311 4.68705 151.998 10.4688 151.998Z" fill="#EAEEF9"/>
<g filter="url(#filter0_d_223_68497)">
<path d="M234.982 51.9076V163.45C234.982 168.093 231.265 171.771 226.71 171.771H58.6954C54.1399 171.771 50.3636 168.033 50.3636 163.45V51.9076C50.3636 47.3253 54.08 43.5871 58.6954 43.5871H226.71C231.265 43.5871 234.982 47.3253 234.982 51.9076Z" fill="url(#paint0_linear_223_68497)"/>
</g>
<path d="M234.982 51.9076V64.3883H50.3636V51.9076C50.3636 47.3253 54.08 43.5871 58.6954 43.5871H226.71C231.265 43.5871 234.982 47.3253 234.982 51.9076Z" fill="#D5DDEA"/>
<path d="M61.9922 57.0941C63.7136 57.0941 65.1091 55.6904 65.1091 53.9589C65.1091 52.2273 63.7136 50.8236 61.9922 50.8236C60.2708 50.8236 58.8753 52.2273 58.8753 53.9589C58.8753 55.6904 60.2708 57.0941 61.9922 57.0941Z" fill="#989FB0"/>
<path d="M72.1821 57.0941C73.9035 57.0941 75.299 55.6904 75.299 53.9589C75.299 52.2273 73.9035 50.8236 72.1821 50.8236C70.4607 50.8236 69.0652 52.2273 69.0652 53.9589C69.0652 55.6904 70.4607 57.0941 72.1821 57.0941Z" fill="#989FB0"/>
<path d="M82.3122 57.0941C84.0336 57.0941 85.4291 55.6904 85.4291 53.9589C85.4291 52.2273 84.0336 50.8236 82.3122 50.8236C80.5907 50.8236 79.1952 52.2273 79.1952 53.9589C79.1952 55.6904 80.5907 57.0941 82.3122 57.0941Z" fill="#989FB0"/>
<path d="M88.9057 140.357H196.44" stroke="#D5DDEA" stroke-width="2" stroke-miterlimit="10" stroke-linecap="round" stroke-linejoin="round"/>
<path d="M105.869 151.875H179.476" stroke="#D5DDEA" stroke-width="2" stroke-miterlimit="10" stroke-linecap="round" stroke-linejoin="round"/>
<path d="M124.69 107.923V114.133H120.914V120.102H113.841V114.133H98.2564V107.019L112.702 86.8204H120.974V107.983H124.69V107.923ZM113.841 95.0806L104.85 107.923H113.841V95.0806Z" fill="url(#paint1_linear_223_68497)"/>
<path d="M142.433 120.766C134.88 120.766 128.227 114.133 128.227 103.401C128.227 92.6689 134.82 86.0366 142.433 86.0366C150.045 86.0366 156.639 92.6689 156.639 103.401C156.639 114.133 150.045 120.766 142.433 120.766ZM142.433 114.374C145.969 114.374 149.506 110.817 149.506 103.461C149.506 96.1056 145.969 92.5483 142.433 92.5483C138.896 92.5483 135.36 96.1056 135.36 103.461C135.36 110.817 138.896 114.374 142.433 114.374Z" fill="url(#paint2_linear_223_68497)"/>
<path d="M187.149 107.923V114.133H183.373V120.102H176.3V114.133H160.715V107.019L175.161 86.8204H183.432V107.983H187.149V107.923ZM176.24 95.0806L167.248 107.923H176.24V95.0806Z" fill="url(#paint3_linear_223_68497)"/>
<path d="M226.818 196.4L186.661 156.274L195.867 147.068L235.993 187.225L226.818 196.4Z" fill="#858B9B"/>
<path d="M240.778 210.523L209.985 179.73C207.414 177.159 207.414 172.969 209.985 170.397C212.557 167.826 216.747 167.826 219.318 170.397L250.111 201.19C252.683 203.761 252.683 207.952 250.111 210.523C247.54 213.094 243.349 213.094 240.778 210.523Z" fill="#858B9B"/>
<path d="M238.588 212.489L198.97 172.871C198.049 171.95 198.049 170.458 198.97 169.506L209.096 159.379C210.017 158.459 211.509 158.459 212.461 159.379L252.079 198.997C253 199.918 253 201.41 252.079 202.362L241.953 212.489C241 213.41 239.508 213.41 238.588 212.489Z" fill="url(#paint4_linear_223_68497)"/>
<path d="M141.202 26.9795C99.1716 26.9795 65.1091 61.042 65.1091 103.072C65.1091 145.071 99.1716 179.165 141.17 179.165C183.201 179.165 217.263 145.103 217.263 103.072C217.263 61.042 183.201 26.9795 141.202 26.9795ZM141.202 165.071C107.457 165.071 80.1245 137.294 80.1245 103.041C80.1245 68.7878 107.457 41.0426 141.202 41.0426C174.947 41.0426 202.28 68.8195 202.28 103.072C202.28 137.325 174.915 165.071 141.202 165.071Z" fill="url(#paint5_linear_223_68497)"/>
<defs>
<filter id="filter0_d_223_68497" x="28.3453" y="32.578" width="228.655" height="172.22" filterUnits="userSpaceOnUse" color-interpolation-filters="sRGB">
<feFlood flood-opacity="0" result="BackgroundImageFix"/>
<feColorMatrix in="SourceAlpha" type="matrix" values="0 0 0 0 0 0 0 0 0 0 0 0 0 0 0 0 0 0 127 0" result="hardAlpha"/>
<feOffset dy="11"/>
<feGaussianBlur stdDeviation="11"/>
<feColorMatrix type="matrix" values="0 0 0 0 0.397708 0 0 0 0 0.47749 0 0 0 0 0.575 0 0 0 0.27 0"/>
<feBlend mode="normal" in2="BackgroundImageFix" result="effect1_dropShadow_223_68497"/>
<feBlend mode="normal" in="SourceGraphic" in2="effect1_dropShadow_223_68497" result="shape"/>
</filter>
<linearGradient id="paint0_linear_223_68497" x1="142.612" y1="40.6221" x2="142.612" y2="173.153" gradientUnits="userSpaceOnUse">
<stop stop-color="#FDFEFF"/>
<stop offset="0.9964" stop-color="#ECF0F5"/>
</linearGradient>
<linearGradient id="paint1_linear_223_68497" x1="156.961" y1="86.0366" x2="163.603" y2="120.766" gradientUnits="userSpaceOnUse">
<stop stop-color="#B0BACC"/>
<stop offset="1" stop-color="#969EAE"/>
</linearGradient>
<linearGradient id="paint2_linear_223_68497" x1="156.961" y1="86.0366" x2="163.603" y2="120.766" gradientUnits="userSpaceOnUse">
<stop stop-color="#B0BACC"/>
<stop offset="1" stop-color="#969EAE"/>
</linearGradient>
<linearGradient id="paint3_linear_223_68497" x1="156.961" y1="86.0366" x2="163.603" y2="120.766" gradientUnits="userSpaceOnUse">
<stop stop-color="#B0BACC"/>
<stop offset="1" stop-color="#969EAE"/>
</linearGradient>
<linearGradient id="paint4_linear_223_68497" x1="198.254" y1="185.94" x2="252.78" y2="185.94" gradientUnits="userSpaceOnUse">
<stop stop-color="#B0BACC"/>
<stop offset="1" stop-color="#969EAE"/>
</linearGradient>
<linearGradient id="paint5_linear_223_68497" x1="65.0394" y1="103.089" x2="217.291" y2="103.089" gradientUnits="userSpaceOnUse">
<stop stop-color="#B0BACC"/>
<stop offset="1" stop-color="#969EAE"/>
</linearGradient>
</defs>
</svg>
