<svg width="16" height="16" viewBox="0 0 16 16" fill="none" xmlns="http://www.w3.org/2000/svg">
<path d="M2.81481 14.6666C2.4074 14.6666 2.05851 14.5217 1.76814 14.2318C1.47827 13.9415 1.33333 13.5926 1.33333 13.1852V2.81479C1.33333 2.40739 1.47827 2.0585 1.76814 1.76813C2.05851 1.47825 2.4074 1.33331 2.81481 1.33331H13.1852C13.5926 1.33331 13.9415 1.47825 14.2318 1.76813C14.5217 2.0585 14.6667 2.40739 14.6667 2.81479V13.1852C14.6667 13.5926 14.5217 13.9415 14.2318 14.2318C13.9415 14.5217 13.5926 14.6666 13.1852 14.6666H2.81481ZM6.96296 10.7963C7.06172 10.7963 7.15432 10.781 7.24074 10.7503C7.32716 10.7192 7.4074 10.6666 7.48148 10.5926L11.6852 6.38887C11.821 6.25307 11.8889 6.0864 11.8889 5.88887C11.8889 5.69134 11.8148 5.5185 11.6667 5.37035C11.5309 5.23455 11.358 5.16665 11.1481 5.16665C10.9383 5.16665 10.7654 5.23455 10.6296 5.37035L6.96296 9.03702L5.35185 7.42591C5.21604 7.2901 5.04938 7.2222 4.85185 7.2222C4.65432 7.2222 4.48148 7.29628 4.33333 7.44442C4.19753 7.58023 4.12962 7.75307 4.12962 7.96294C4.12962 8.17282 4.19753 8.34566 4.33333 8.48146L6.44444 10.5926C6.51851 10.6666 6.59876 10.7192 6.68518 10.7503C6.7716 10.781 6.86419 10.7963 6.96296 10.7963Z" fill="#156FB5"/>
</svg>
