<svg width="12" height="12" viewBox="0 0 12 12" fill="none" xmlns="http://www.w3.org/2000/svg">
<path d="M8.5 2.5C8.5 2.20333 8.58797 1.91332 8.7528 1.66665C8.91762 1.41997 9.15189 1.22771 9.42597 1.11418C9.70006 1.00065 10.0017 0.970945 10.2926 1.02882C10.5836 1.0867 10.8509 1.22956 11.0607 1.43934C11.2704 1.64912 11.4133 1.91639 11.4712 2.20737C11.5291 2.49834 11.4994 2.79994 11.3858 3.07403C11.2723 3.34811 11.08 3.58238 10.8334 3.74721C10.5867 3.91203 10.2967 4 10 4C9.60218 4 9.22064 3.84197 8.93934 3.56066C8.65804 3.27936 8.5 2.89783 8.5 2.5ZM1 3H7C7.13261 3 7.25979 2.94732 7.35355 2.85355C7.44732 2.75979 7.5 2.63261 7.5 2.5C7.5 2.36739 7.44732 2.24022 7.35355 2.14645C7.25979 2.05268 7.13261 2 7 2H1C0.867392 2 0.740215 2.05268 0.646447 2.14645C0.552678 2.24022 0.5 2.36739 0.5 2.5C0.5 2.63261 0.552678 2.75979 0.646447 2.85355C0.740215 2.94732 0.867392 3 1 3ZM4 4.5C3.69053 4.50087 3.3889 4.59744 3.13647 4.77647C2.88404 4.9555 2.69316 5.20823 2.59 5.5H1C0.867392 5.5 0.740215 5.55268 0.646447 5.64645C0.552678 5.74022 0.5 5.86739 0.5 6C0.5 6.13261 0.552678 6.25979 0.646447 6.35355C0.740215 6.44732 0.867392 6.5 1 6.5H2.59C2.68173 6.75944 2.84305 6.98865 3.05632 7.16254C3.26959 7.33643 3.52659 7.4483 3.79918 7.48592C4.07177 7.52353 4.34946 7.48543 4.60185 7.37579C4.85425 7.26616 5.07162 7.0892 5.23017 6.8643C5.38873 6.63939 5.48237 6.37521 5.50083 6.10065C5.5193 5.82609 5.46188 5.55175 5.33487 5.30764C5.20785 5.06353 5.01614 4.85906 4.7807 4.71661C4.54526 4.57417 4.27518 4.49923 4 4.5ZM11 5.5H7C6.86739 5.5 6.74021 5.55268 6.64645 5.64645C6.55268 5.74022 6.5 5.86739 6.5 6C6.5 6.13261 6.55268 6.25979 6.64645 6.35355C6.74021 6.44732 6.86739 6.5 7 6.5H11C11.1326 6.5 11.2598 6.44732 11.3536 6.35355C11.4473 6.25979 11.5 6.13261 11.5 6C11.5 5.86739 11.4473 5.74022 11.3536 5.64645C11.2598 5.55268 11.1326 5.5 11 5.5ZM5 9H1C0.867392 9 0.740215 9.05268 0.646447 9.14645C0.552678 9.24022 0.5 9.36739 0.5 9.5C0.5 9.63261 0.552678 9.75979 0.646447 9.85355C0.740215 9.94732 0.867392 10 1 10H5C5.13261 10 5.25979 9.94732 5.35355 9.85355C5.44732 9.75979 5.5 9.63261 5.5 9.5C5.5 9.36739 5.44732 9.24022 5.35355 9.14645C5.25979 9.05268 5.13261 9 5 9ZM11 9H9.41C9.29205 8.66639 9.05997 8.38522 8.75476 8.20618C8.44955 8.02715 8.09088 7.96177 7.74213 8.0216C7.39339 8.08144 7.07702 8.26264 6.84895 8.53317C6.62088 8.8037 6.49579 9.14616 6.49579 9.5C6.49579 9.85384 6.62088 10.1963 6.84895 10.4668C7.07702 10.7374 7.39339 10.9186 7.74213 10.9784C8.09088 11.0382 8.44955 10.9729 8.75476 10.7938C9.05997 10.6148 9.29205 10.3336 9.41 10H11C11.1326 10 11.2598 9.94732 11.3536 9.85355C11.4473 9.75979 11.5 9.63261 11.5 9.5C11.5 9.36739 11.4473 9.24022 11.3536 9.14645C11.2598 9.05268 11.1326 9 11 9Z" fill="#747474"/>
</svg>
