<svg width="20" height="20" viewBox="0 0 20 20" fill="none" xmlns="http://www.w3.org/2000/svg">
<g clip-path="url(#clip0_41_241)">
<path d="M9.16666 3.33335H5.66666C4.26653 3.33335 3.56646 3.33335 3.03168 3.60583C2.56128 3.84552 2.17882 4.22797 1.93914 4.69837C1.66666 5.23315 1.66666 5.93322 1.66666 7.33335V14.3333C1.66666 15.7335 1.66666 16.4335 1.93914 16.9683C2.17882 17.4387 2.56128 17.8212 3.03168 18.0609C3.56646 18.3333 4.26653 18.3333 5.66666 18.3333H12.6667C14.0668 18.3333 14.7669 18.3333 15.3016 18.0609C15.772 17.8212 16.1545 17.4387 16.3942 16.9683C16.6667 16.4335 16.6667 15.7335 16.6667 14.3333V10.8334M6.66663 13.3334H8.06209C8.46974 13.3334 8.67356 13.3333 8.86538 13.2873C9.03544 13.2465 9.19801 13.1791 9.34713 13.0878C9.51533 12.9847 9.65945 12.8406 9.9477 12.5523L17.9167 4.58335C18.607 3.89299 18.607 2.77371 17.9167 2.08335C17.2263 1.39299 16.107 1.39299 15.4167 2.08335L7.44769 10.0523C7.15943 10.3406 7.0153 10.4847 6.91223 10.6529C6.82085 10.802 6.75351 10.9646 6.71268 11.1346C6.66663 11.3264 6.66663 11.5303 6.66663 11.9379V13.3334Z" stroke="#9A9A9A" stroke-width="1.66667" stroke-linecap="round" stroke-linejoin="round"/>
</g>
<defs>
<clipPath id="clip0_41_241">
<rect width="20" height="20" fill="white"/>
</clipPath>
</defs>
</svg>
