<svg width="33" height="22" viewBox="0 0 33 22" fill="none" xmlns="http://www.w3.org/2000/svg">
<path d="M27.6466 14.6481L27.0336 15.0927C28.859 11.5753 30.6456 8.10149 32.3934 4.67146C32.9213 3.63533 32.7289 1.83434 32.6954 0.638129C32.6894 0.438019 32.585 0.337964 32.3822 0.337964L0.559239 0.326847C0.498725 0.326847 0.440688 0.350975 0.397898 0.393923C0.355108 0.436872 0.331072 0.495123 0.331072 0.555861L0.337783 7.20841C0.337783 7.30624 0.386997 7.35516 0.485423 7.35516L22.8841 7.39963C22.9676 7.39963 23.0011 7.44113 22.9847 7.52414C22.8863 8.03108 22.5351 8.51135 22.3427 8.88934C20.316 12.8678 18.2588 16.8737 16.171 20.9071C16.16 20.9287 16.1564 20.9533 16.1608 20.9771C16.1652 21.001 16.1773 21.0227 16.1953 21.0391C16.2133 21.0555 16.2362 21.0655 16.2604 21.0678C16.2847 21.07 16.3091 21.0644 16.3298 21.0516C16.3462 21.0427 16.4036 21.0523 16.502 21.0805L15.4618 21.5941L22.5709 7.78428C22.5786 7.76972 22.5824 7.75343 22.5819 7.73699C22.5814 7.72055 22.5767 7.70452 22.5681 7.69043C22.5596 7.67635 22.5475 7.66469 22.5331 7.6566C22.5187 7.6485 22.5024 7.64423 22.4859 7.6442L0.306462 7.66866C0.225183 7.66866 0.147237 7.63657 0.0897637 7.57944C0.0322907 7.52232 0 7.44484 0 7.36405V0.222345C0 0.163375 0.0235711 0.106821 0.0655222 0.0651232C0.107473 0.0234255 0.164368 1.35669e-07 0.223696 1.35669e-07H32.8206C32.8521 -4.64739e-05 32.8825 0.0119182 32.9053 0.0334285C32.9282 0.0549388 32.942 0.0843561 32.9437 0.115619C33.0123 1.32814 33.0182 2.54955 32.9616 3.77986C32.9302 4.4758 32.8296 4.5714 32.4515 5.28291C30.826 8.3483 29.2244 11.47 27.6466 14.6481Z" fill="white"/>
</svg>
