<svg width="116" height="20" viewBox="0 0 116 20" fill="none" xmlns="http://www.w3.org/2000/svg">
<path d="M2.28162 5.35581C2.28162 5.49644 2.75271 13.5085 2.99177 17.3089C3.05857 18.3601 3.75466 18.9964 4.8199 18.9964H13.1027C14.3156 18.9964 14.9554 18.3742 15.0293 17.1683C15.2261 13.9199 15.7043 5.99917 15.7394 5.35229L2.28162 5.35581ZM11.8265 13.3539C12.2801 13.8074 12.2801 14.5421 11.8265 14.9957C11.373 15.4492 10.6383 15.4492 10.1847 14.9957L9.01052 13.8214L7.8363 14.9957C7.38279 15.4492 6.64802 15.4492 6.19451 14.9957C5.74099 14.5421 5.74099 13.8074 6.19451 13.3539L7.36873 12.1796L6.19451 11.0019C5.74099 10.5484 5.74099 9.81362 6.19451 9.36011C6.64802 8.90659 7.38279 8.90659 7.8363 9.36011L9.01052 10.5343L10.1847 9.36011C10.6383 8.90659 11.373 8.90659 11.8265 9.36011C12.2801 9.81362 12.2801 10.5484 11.8265 11.0019L10.6523 12.1796L11.8265 13.3539Z" fill="#F43F48"/>
<path d="M15.7254 2.15664C14.7727 2.14961 13.8234 2.14258 12.8742 2.16016C12.818 1.50625 12.2695 1 11.6121 1H6.38789C5.73047 1 5.18203 1.50625 5.1293 2.16016C4.15196 2.14258 3.1711 2.14961 2.19375 2.15664C1.68047 2.16367 1.30782 2.44844 1.18477 2.89844C0.970316 3.68242 1.44492 4.3293 2.25703 4.33281C4.51055 4.33984 6.76055 4.33633 9.01055 4.33633H15.7184C16.4461 4.33633 16.8645 3.92852 16.868 3.25C16.8715 2.57148 16.4496 2.16016 15.7254 2.15664Z" fill="#F43F48"/>
<g clip-path="url(#clip0_127_11316)">
<path d="M47 3.72435V11.1574L53.4331 14.87V0.0078125L47 3.72435Z" fill="#156FB5"/>
<path d="M53.4331 0.0078125V14.87L59.8662 11.1574V3.72435L53.4331 0.0078125Z" fill="#156FB5"/>
<path d="M47 3.72435L53.4331 0.0078125L59.8661 3.72435L53.4331 7.44088L47 3.72435Z" fill="#F2F2F2"/>
<path d="M56.6496 9.29917V5.58263L53.4331 3.72437V11.1574L56.6496 9.29917Z" fill="#156FB5"/>
<path d="M53.4331 11.1574V3.72437L50.2166 5.58263V9.29917L53.4331 11.1574Z" fill="#156FB5"/>
<path d="M56.6496 9.29919L53.4331 11.1575L50.2166 9.29919L53.4331 7.44092L56.6496 9.29919Z" fill="#F2F2F2"/>
<path d="M66.7285 9.17332L65.6615 8.10639C65.2954 7.74025 64.7048 7.74025 64.3426 8.10639L63.2993 9.15364L65.6851 11.5395L66.7285 10.4962C67.0907 10.13 67.0907 9.53946 66.7285 9.17332Z" fill="#156FB5"/>
<path d="M65.0511 12.1733L62.6653 9.78745L63.2991 9.14966L65.685 11.5355L65.0511 12.1733Z" fill="#F2F2F2"/>
<path d="M56.2519 19.6575L54.8582 19.9882L55.1889 18.5945L56.2519 19.6575Z" fill="#156FB5"/>
<path d="M57.9842 19.2442L55.9921 19.7206L54.8503 19.9922L55.1181 18.8505L55.5866 16.8623L55.6023 16.8466C55.807 16.8151 56.0236 16.8741 56.1771 17.0316C56.3503 17.2048 56.4055 17.445 56.3543 17.6655C56.5748 17.6143 56.8149 17.6694 56.9881 17.8426C57.1574 18.0119 57.2165 18.256 57.1653 18.4765C57.3858 18.4253 57.6259 18.4804 57.7992 18.6536C57.9645 18.8072 58.0236 19.0355 57.9842 19.2442Z" fill="#156FB5"/>
<path d="M56.1851 17.0314C56.3544 17.2007 56.4135 17.4448 56.3623 17.6614C56.5828 17.6102 56.8229 17.6653 56.9961 17.8385C57.1654 18.0078 57.2245 18.2519 57.1733 18.4685C57.3938 18.4173 57.6339 18.4724 57.8032 18.6456C57.9647 18.807 58.0276 19.0354 57.9883 19.244L65.0552 12.1732L62.6694 9.78735L55.6143 16.8425C55.815 16.8149 56.0316 16.874 56.1851 17.0314Z" fill="#156FB5"/>
<path d="M55.996 19.7204L54.8542 19.9921L55.122 18.8503L55.996 19.7204Z" fill="#156FB5"/>
</g>
<path d="M105.414 12.1201L103.07 10.9482V13.7395L105.414 14.9114V12.1201Z" fill="#FF551A"/>
<path d="M106 11.1028L108.205 10.0001L106 8.89746L103.795 10.0001L106 11.1028Z" fill="#FF551A"/>
<path d="M106 5.3125C102.02 5.3125 98.3565 8.51211 96 11.7578C98.3572 15.0045 102.02 18.2031 106 18.2031C109.98 18.2031 113.644 15.0035 116 11.7578C113.643 8.51113 109.98 5.3125 106 5.3125ZM110.102 14.4637L106 16.5145L101.898 14.4637V9.63781L106 7.58703L110.102 9.63781V14.4637Z" fill="#FF551A"/>
<path d="M106.586 12.1201V14.9114L108.93 13.7395V10.9482L106.586 12.1201Z" fill="#FF551A"/>
<path d="M105.414 1.79688H106.586V4.14062H105.414V1.79688Z" fill="#FF551A"/>
<path d="M100.512 3.42432L101.527 2.83828L102.699 4.86787L101.684 5.4539L100.512 3.42432Z" fill="#FF551A"/>
<path d="M97.0803 6.11279L97.6664 5.09778L99.6959 6.2696L99.1099 7.28461L97.0803 6.11279Z" fill="#FF551A"/>
<path d="M109.302 4.86914L110.474 2.83956L111.489 3.42559L110.317 5.45518L109.302 4.86914Z" fill="#FF551A"/>
<path d="M112.303 6.26807L114.333 5.09625L114.919 6.11126L112.889 7.28308L112.303 6.26807Z" fill="#FF551A"/>
<defs>
<clipPath id="clip0_127_11316">
<rect width="20" height="20" fill="white" transform="translate(47)"/>
</clipPath>
</defs>
</svg>
