<svg width="308" height="215" viewBox="0 0 308 215" fill="none" xmlns="http://www.w3.org/2000/svg">
<path d="M219.231 42.9636C219.231 65.5303 201.284 84.1912 178.96 85.4932C178.085 85.4932 177.209 85.4932 176.334 85.4932C168.893 85.4932 161.451 83.3233 155.323 79.8515C142.191 72.4739 133.437 58.5867 133.437 42.5296C133.437 31.6802 137.377 21.6988 144.38 14.3212C152.259 5.64168 163.64 0 176.334 0C192.967 0 207.412 9.54746 214.416 23.4347C217.48 29.5103 219.231 36.02 219.231 42.9636Z" fill="url(#paint0_linear_215_48441)"/>
<path opacity="0.1" d="M218.854 42.9636C218.854 65.5303 200.908 84.1913 178.584 85.4932C170.267 84.1913 162.388 82.0214 154.947 80.2855C141.815 72.9079 133.061 59.0207 133.061 42.9636C133.061 32.1142 137 22.1328 144.004 14.7552C158.449 14.3212 175.082 15.6231 192.153 18.661C200.032 19.9629 207.474 21.6988 214.477 23.4347C217.103 29.5104 218.854 36.02 218.854 42.9636Z" fill="black"/>
<path d="M271.192 71.6841C274.496 53.279 233.763 30.6995 180.213 21.2514C126.663 11.8033 80.5741 19.0644 77.2705 37.4695C73.9668 55.8746 114.7 78.4541 168.25 87.9022C221.8 97.3503 267.889 90.0893 271.192 71.6841Z" fill="url(#paint1_linear_215_48441)"/>
<path d="M166.562 31.7632C166.805 28.6568 161.923 25.7469 155.656 25.2638C149.39 24.7808 144.112 26.9075 143.868 30.0139C143.625 33.1204 148.507 36.0303 154.774 36.5133C161.041 36.9964 166.318 34.8697 166.562 31.7632Z" fill="white"/>
<path d="M111.485 39.7417C117.51 37.9682 121.669 34.1092 120.775 31.1223C119.88 28.1355 114.271 27.152 108.246 28.9255C102.22 30.699 98.061 34.558 98.9554 37.5448C99.8498 40.5317 105.459 41.5152 111.485 39.7417Z" fill="white"/>
<path d="M210.829 43.1807C211.38 40.1132 206.81 36.7414 200.622 35.6496C194.434 34.5578 188.971 36.1595 188.421 39.227C187.87 42.2945 192.44 45.6663 198.628 46.7581C204.816 47.8499 210.279 46.2482 210.829 43.1807Z" fill="white"/>
<path d="M244.059 65.869C245.5 63.0997 242.138 58.5395 236.552 55.6835C230.965 52.8276 225.269 52.7574 223.829 55.5267C222.389 58.296 225.75 62.8562 231.336 65.7122C236.923 68.5681 242.619 68.6384 244.059 65.869Z" fill="white"/>
<path d="M168.773 58.5062L127.627 58.0723L69.0301 167.063L233.498 184.359L215.172 73.2614L168.773 58.5062Z" fill="url(#paint2_linear_215_48441)"/>
<path opacity="0.5" d="M254.997 213.358H44.4524C50.1428 208.258 58.4596 203.158 68.0894 199.333C73.3421 197.421 79.4702 194.871 85.5983 193.596C103.983 188.496 126.307 185.309 149.944 185.309C178.395 185.309 204.659 189.771 224.794 196.783C231.798 199.333 237.926 201.883 243.178 205.07C247.993 207.62 251.933 210.17 254.997 213.358Z" fill="url(#paint3_linear_215_48441)"/>
<path opacity="0.3" d="M88.5139 196.677C88.7897 199.266 84.2776 202.365 79.0545 202.922C73.8314 203.478 69.2489 201.784 68.5379 199.241C73.6231 197.39 79.5329 195.015 85.5346 193.503C87.3676 194.181 88.376 195.382 88.5139 196.677Z" fill="url(#paint4_linear_215_48441)"/>
<path opacity="0.3" d="M125.431 194.855C132.442 194.855 138.125 193.495 138.125 191.817C138.125 190.139 132.442 188.779 125.431 188.779C118.42 188.779 112.737 190.139 112.737 191.817C112.737 193.495 118.42 194.855 125.431 194.855Z" fill="url(#paint5_linear_215_48441)"/>
<path opacity="0.3" d="M193.854 194.607C193.998 192.455 188.444 190.337 181.449 189.878C174.454 189.418 168.666 190.79 168.522 192.943C168.379 195.095 173.933 197.212 180.928 197.672C187.923 198.132 193.711 196.76 193.854 194.607Z" fill="url(#paint6_linear_215_48441)"/>
<path opacity="0.3" d="M242.047 204.385C240.307 204.185 238.219 204.252 235.659 203.52C228.751 202.286 223.347 199.479 223.596 197.323C223.645 196.892 223.645 196.892 224.13 196.511C230.889 199.038 237.032 201.482 242.047 204.385Z" fill="url(#paint7_linear_215_48441)"/>
<path d="M214.91 74.3831C216.392 66.1244 197.914 55.9572 173.638 51.6741C149.362 47.3909 128.481 50.6138 126.999 58.8725C125.516 67.1312 143.994 77.2983 168.27 81.5815C192.546 85.8646 213.428 82.6418 214.91 74.3831Z" fill="url(#paint8_linear_215_48441)"/>
<path d="M57.7245 114.377C57.7245 114.377 42.6043 118.216 47.1862 121.287C51.7681 124.205 62.6119 129.272 72.8448 125.894C83.0777 122.516 72.8448 117.755 72.9975 117.755C73.1503 117.755 57.7245 114.377 57.7245 114.377Z" fill="#CED7E2"/>
<path d="M39.2441 113.148C44.7424 114.838 61.6954 112.073 72.5392 105.01C81.0921 115.605 84.2994 118.369 87.354 118.677C82.6194 123.437 66.8882 131.115 58.0299 121.133C47.6442 127.737 39.2441 113.148 39.2441 113.148Z" fill="#E9EEF8"/>
<path d="M220.855 126.973C226.658 127.28 242.389 120.216 250.942 110.695C261.939 118.834 265.604 120.677 268.812 120.216C265.299 126.051 254.608 138.797 239.488 139.718C228.491 133.269 220.855 126.973 220.855 126.973Z" fill="#E9EEF8"/>
<path d="M170.557 127.16C169.408 121.463 158.649 107.987 147.298 102.075C152.44 89.3982 153.312 85.3893 152.067 82.3978C158.593 84.3463 173.6 91.5256 178.259 105.94C174.752 118.196 170.557 127.16 170.557 127.16Z" fill="white"/>
<path d="M307 213.355H293.709H18.1709H1" stroke="#D5DAE8" stroke-width="2" stroke-miterlimit="10" stroke-linecap="round" stroke-linejoin="round"/>
<path d="M119.741 178.486V187.166H114.488V195.412H104.42V187.166H82.5343V177.185L102.67 149.41H114.488V178.486H119.741ZM104.858 160.694L92.1642 178.486H104.858V160.694Z" fill="url(#paint9_linear_215_48441)"/>
<path d="M151.257 196.28C140.751 196.28 131.559 187.167 131.559 172.412C131.559 157.656 140.751 148.543 151.257 148.543C161.762 148.543 170.954 157.656 170.954 172.412C171.392 186.733 162.2 196.28 151.257 196.28ZM151.257 187.167C156.072 187.167 161.324 182.393 161.324 171.978C161.324 161.996 156.509 156.789 151.257 156.789C146.442 156.789 141.189 161.562 141.189 171.978C141.627 182.393 146.442 187.167 151.257 187.167Z" fill="url(#paint10_linear_215_48441)"/>
<path d="M220.854 178.486V187.166H215.602V195.412H205.534V187.166H183.648V177.185L203.783 149.41H215.164V178.486H220.854ZM205.534 160.694L192.84 178.486H205.534V160.694Z" fill="url(#paint11_linear_215_48441)"/>
<path d="M115.801 178.486V187.166H110.549V195.412H100.481V187.166H78.5948V177.185L98.73 149.41H110.111V178.486H115.801ZM100.919 160.694L88.2247 178.486H100.919V160.694Z" fill="url(#paint12_linear_215_48441)"/>
<path d="M147.317 196.28C136.812 196.28 127.62 187.167 127.62 172.412C127.62 157.656 136.812 148.543 147.317 148.543C157.823 148.543 167.015 157.656 167.015 172.412C167.452 186.733 158.26 196.28 147.317 196.28ZM147.317 187.167C152.132 187.167 157.385 182.393 157.385 171.978C157.385 161.996 152.57 156.789 147.317 156.789C142.502 156.789 137.25 161.562 137.25 171.978C137.687 182.393 142.502 187.167 147.317 187.167Z" fill="url(#paint13_linear_215_48441)"/>
<path d="M216.915 178.486V187.166H211.662V195.412H201.595V187.166H179.709V177.185L199.844 149.41H211.225V178.486H216.915ZM201.595 160.694L188.901 178.486H201.595V160.694Z" fill="url(#paint14_linear_215_48441)"/>
<defs>
<linearGradient id="paint0_linear_215_48441" x1="176.341" y1="2.96993" x2="176.341" y2="50.9564" gradientUnits="userSpaceOnUse">
<stop stop-color="#B0BACC"/>
<stop offset="1" stop-color="#969EAE"/>
</linearGradient>
<linearGradient id="paint1_linear_215_48441" x1="84.008" y1="38.6528" x2="192.796" y2="58.1798" gradientUnits="userSpaceOnUse">
<stop stop-color="#E3E7EE"/>
<stop offset="1" stop-color="#D1D6DF"/>
</linearGradient>
<linearGradient id="paint2_linear_215_48441" x1="151.275" y1="62.4593" x2="151.275" y2="133.343" gradientUnits="userSpaceOnUse">
<stop stop-color="#BDC4D1" stop-opacity="0.53"/>
<stop offset="1" stop-color="#5D7CB8" stop-opacity="0"/>
</linearGradient>
<linearGradient id="paint3_linear_215_48441" x1="149.725" y1="185.309" x2="149.725" y2="213.358" gradientUnits="userSpaceOnUse">
<stop stop-color="#B6BFD7"/>
<stop offset="1" stop-color="#838DA7" stop-opacity="0"/>
</linearGradient>
<linearGradient id="paint4_linear_215_48441" x1="78.1687" y1="194.591" x2="78.6847" y2="199.435" gradientUnits="userSpaceOnUse">
<stop stop-color="#B0BACC"/>
<stop offset="1" stop-color="#969EAE"/>
</linearGradient>
<linearGradient id="paint5_linear_215_48441" x1="125.433" y1="188.99" x2="125.433" y2="192.401" gradientUnits="userSpaceOnUse">
<stop stop-color="#B0BACC"/>
<stop offset="1" stop-color="#969EAE"/>
</linearGradient>
<linearGradient id="paint6_linear_215_48441" x1="169.402" y1="193" x2="183.62" y2="193.95" gradientUnits="userSpaceOnUse">
<stop stop-color="#B0BACC"/>
<stop offset="1" stop-color="#969EAE"/>
</linearGradient>
<linearGradient id="paint7_linear_215_48441" x1="233.24" y1="197.766" x2="232.865" y2="201.019" gradientUnits="userSpaceOnUse">
<stop stop-color="#B0BACC"/>
<stop offset="1" stop-color="#969EAE"/>
</linearGradient>
<linearGradient id="paint8_linear_215_48441" x1="170.954" y1="78.1688" x2="177.433" y2="55.8063" gradientUnits="userSpaceOnUse">
<stop stop-color="#B0BACC"/>
<stop offset="1" stop-color="#969EAE"/>
</linearGradient>
<linearGradient id="paint9_linear_215_48441" x1="101.14" y1="151.008" x2="101.14" y2="176.828" gradientUnits="userSpaceOnUse">
<stop stop-color="#D6DCE6"/>
<stop offset="1" stop-color="#C4CBDA"/>
</linearGradient>
<linearGradient id="paint10_linear_215_48441" x1="151.267" y1="150.201" x2="151.267" y2="176.996" gradientUnits="userSpaceOnUse">
<stop stop-color="#D6DCE6"/>
<stop offset="1" stop-color="#C4CBDA"/>
</linearGradient>
<linearGradient id="paint11_linear_215_48441" x1="202.254" y1="151.008" x2="202.254" y2="176.828" gradientUnits="userSpaceOnUse">
<stop stop-color="#D6DCE6"/>
<stop offset="1" stop-color="#C4CBDA"/>
</linearGradient>
<linearGradient id="paint12_linear_215_48441" x1="97.201" y1="151.008" x2="97.201" y2="176.828" gradientUnits="userSpaceOnUse">
<stop stop-color="#EAEEF5"/>
<stop offset="1" stop-color="#D4DAE4"/>
</linearGradient>
<linearGradient id="paint13_linear_215_48441" x1="147.328" y1="150.201" x2="147.328" y2="176.996" gradientUnits="userSpaceOnUse">
<stop stop-color="#EAEEF5"/>
<stop offset="1" stop-color="#D4DAE4"/>
</linearGradient>
<linearGradient id="paint14_linear_215_48441" x1="198.315" y1="151.008" x2="198.315" y2="176.828" gradientUnits="userSpaceOnUse">
<stop stop-color="#EAEEF5"/>
<stop offset="1" stop-color="#D4DAE4"/>
</linearGradient>
</defs>
</svg>
