<svg width="24" height="24" viewBox="0 0 24 24" fill="none" xmlns="http://www.w3.org/2000/svg">
<path d="M23 9.50002H10.5463L10.6397 9.87305C10.6631 9.96705 10.7133 10.0522 10.7843 10.1182C10.8553 10.1842 10.9439 10.2281 11.0393 10.2446L16.2715 11.1524C16.7654 11.2374 17.2186 11.4797 17.5636 11.8432C17.9086 12.2067 18.1269 12.672 18.1859 13.1696C18.3627 13.5245 18.4673 13.9109 18.4937 14.3065C18.5201 14.7021 18.4678 15.099 18.3397 15.4742C18.2117 15.8495 18.0105 16.1955 17.7477 16.4925C17.485 16.7894 17.1659 17.0312 16.8091 17.204C16.4522 17.3767 16.0646 17.477 15.6688 17.4989C15.2729 17.5208 14.8766 17.464 14.5029 17.3317C14.1291 17.1994 13.7853 16.9942 13.4914 16.7281C13.1975 16.462 12.9593 16.1403 12.7906 15.7815H10.0189C10.2462 15.9708 10.4163 16.2195 10.5103 16.5H11C11.0661 16.4994 11.1316 16.5118 11.1929 16.5367C11.2541 16.5615 11.3098 16.5982 11.3567 16.6447C11.4037 16.6912 11.4409 16.7465 11.4664 16.8075C11.4918 16.8685 11.5049 16.9339 11.5049 17C11.5049 17.0661 11.4918 17.1315 11.4664 17.1925C11.4409 17.2534 11.4037 17.3088 11.3567 17.3553C11.3098 17.4018 11.2541 17.4385 11.1929 17.4633C11.1316 17.4882 11.0661 17.5006 11 17.5H10.0907C9.95805 17.5 9.83088 17.4473 9.73711 17.3535C9.64334 17.2598 9.59065 17.1326 9.59064 17C9.59045 16.8434 9.52818 16.6932 9.41747 16.5825C9.30675 16.4717 9.15663 16.4093 9.00002 16.4091C8.8674 16.4091 8.74022 16.3564 8.64645 16.2626C8.55268 16.1688 8.5 16.0417 8.5 15.909V15.7724C7.99039 15.7529 7.48578 15.6643 7 15.5091V18.5C7.00027 18.7651 7.10572 19.0193 7.2932 19.2068C7.48069 19.3943 7.73489 19.4997 8.00003 19.5H23C23.2652 19.4997 23.5193 19.3943 23.7068 19.2068C23.8943 19.0193 23.9997 18.7651 24 18.5V10.5C23.9997 10.2349 23.8943 9.98069 23.7068 9.79322C23.5193 9.60575 23.2652 9.5003 23 9.50002ZM22.5 15.909C22.5 16.0417 22.4473 16.1688 22.3536 16.2626C22.2598 16.3564 22.1326 16.4091 22 16.4091C21.8434 16.4093 21.6933 16.4717 21.5825 16.5825C21.4718 16.6932 21.4096 16.8434 21.4094 17C21.4094 17.1326 21.3567 17.2598 21.2629 17.3536C21.1691 17.4474 21.042 17.5 20.9094 17.5H20C19.8682 17.4988 19.7423 17.4455 19.6496 17.3519C19.5568 17.2583 19.5048 17.1318 19.5048 17C19.5048 16.8683 19.5568 16.7418 19.6496 16.6482C19.7423 16.5546 19.8682 16.5013 20 16.5H20.4897C20.5682 16.2648 20.7003 16.051 20.8757 15.8756C21.051 15.7003 21.2647 15.5681 21.5 15.4896V13.5105C21.2647 13.432 21.051 13.2998 20.8757 13.1244C20.7003 12.949 20.5682 12.7353 20.4897 12.5H20C19.934 12.5007 19.8684 12.4882 19.8072 12.4634C19.746 12.4385 19.6903 12.4018 19.6433 12.3553C19.5964 12.3088 19.5591 12.2535 19.5337 12.1925C19.5083 12.1315 19.4952 12.0661 19.4952 12C19.4952 11.934 19.5083 11.8685 19.5337 11.8076C19.5591 11.7466 19.5964 11.6912 19.6433 11.6448C19.6903 11.5983 19.746 11.5615 19.8072 11.5367C19.8684 11.5119 19.934 11.4994 20 11.5H20.9094C21.042 11.5001 21.1691 11.5528 21.2628 11.6465C21.3565 11.7403 21.4092 11.8674 21.4092 12C21.4094 12.1566 21.4716 12.3068 21.5824 12.4175C21.6931 12.5283 21.8432 12.5907 21.9998 12.591C22.0655 12.5909 22.1305 12.6038 22.1912 12.629C22.2519 12.6541 22.307 12.6909 22.3535 12.7373C22.3999 12.7837 22.4368 12.8389 22.4619 12.8995C22.4871 12.9602 22.5 13.0252 22.5 13.0909V15.909Z" fill="white"/>
<path d="M16.1006 12.1377L10.8682 11.2298C10.5819 11.1801 10.3163 11.0484 10.1035 10.8506C9.89071 10.6528 9.73992 10.3975 9.66943 10.1156L9.42099 9.12127C9.4026 9.04755 9.40124 8.97061 9.41702 8.89629C9.43281 8.82197 9.46531 8.75222 9.51206 8.69233C9.55882 8.63245 9.6186 8.584 9.68688 8.55066C9.75515 8.51733 9.83012 8.49998 9.9061 8.49994H20.8889L20.325 7.51875C20.0717 7.07616 19.6885 6.72208 19.2273 6.50447L15.7342 4.84978C15.0507 4.52452 14.2825 4.42192 13.5376 4.55644L4.9516 6.09277C4.98362 6.25306 4.99984 6.41611 5.00002 6.57956V13.0972C4.99915 13.2371 4.98651 13.3768 4.96224 13.5146L6.7763 14.352C7.39013 14.6359 8.0585 14.7825 8.73479 14.7815H15.8728C16.2062 14.7814 16.5273 14.6563 16.7729 14.4309C17.0185 14.2055 17.1706 13.8962 17.1992 13.5641C17.2279 13.2319 17.1309 12.9012 16.9275 12.6371C16.7241 12.373 16.429 12.1948 16.1006 12.1377Z" fill="white"/>
<path d="M2.49998 5.07961H1.5C0.671573 5.07961 0 5.75119 0 6.57961V13.0972C0 13.9256 0.671573 14.5972 1.5 14.5972H2.49998C3.32841 14.5972 3.99998 13.9256 3.99998 13.0972V6.57961C3.99998 5.75119 3.32841 5.07961 2.49998 5.07961Z" fill="white"/>
</svg>
