<svg width="28" height="28" viewBox="0 0 28 28" fill="none" xmlns="http://www.w3.org/2000/svg">
<path d="M11.6273 11.2246L0 14.8282V24.235C0 24.4802 0.18375 24.6839 0.426945 24.7151C1.91461 24.9066 3.09318 26.0852 3.28464 27.5728C3.31592 27.816 3.51963 27.9998 3.76474 27.9998H24.2353C24.4805 27.9998 24.6841 27.816 24.7154 27.5728C24.9069 26.0852 26.0854 24.9066 27.5731 24.7151C27.8162 24.6839 28.0001 24.4801 28.0001 24.235V14.828L15.7369 11.2246C14.4163 11.7442 12.9479 11.7442 11.6273 11.2246Z" fill="#FF551A"/>
<path d="M26.5866 15.3842V24.2352C26.5866 24.4804 26.4028 24.6841 26.1596 24.7154C24.672 24.9068 23.4934 26.0854 23.3019 27.573C23.2707 27.8162 23.0669 28 22.8218 28H24.2353C24.4804 28 24.6841 27.8162 24.7154 27.573C24.9069 26.0854 26.0855 24.9068 27.5731 24.7154C27.8163 24.6841 28 24.4804 28 24.2352V14.8281L26.5866 15.3842Z" fill="#FF551A"/>
<path d="M28 14.8282V3.76474C28 3.51958 27.8162 3.31592 27.5731 3.28464C26.0854 3.09313 24.9069 1.91461 24.7154 0.426945C24.6841 0.18375 24.4804 0 24.2353 0H3.76474C3.51958 0 3.31592 0.18375 3.28464 0.426945C3.09313 1.91461 1.91461 3.09313 0.426945 3.28459C0.18375 3.31592 0 3.51958 0 3.76474V14.8284L11.9449 19.5278C13.2655 20.0474 14.7339 20.0474 16.0546 19.5278L28 14.8282Z" fill="#F9F7F8"/>
<path d="M27.5731 3.28459C26.0854 3.09313 24.9069 1.91461 24.7154 0.426945C24.6842 0.18375 24.4804 0 24.2353 0H22.8218C23.0669 0 23.2706 0.18375 23.3019 0.426945C23.4934 1.91461 24.672 3.09318 26.1596 3.28464C26.4028 3.31592 26.5866 3.51963 26.5866 3.76474V15.3843L28 14.8282V3.76474C28 3.51958 27.8163 3.31592 27.5731 3.28459Z" fill="#DEDBEE"/>
<path d="M15.766 24.7708V23.2075C15.766 23.0603 15.6874 22.9242 15.5599 22.8505L14.206 22.0689C14.0785 21.9953 13.9214 21.9953 13.7938 22.0689L12.44 22.8505C12.3125 22.9241 12.2339 23.0603 12.2339 23.2075V24.7708C12.2339 24.9181 12.3125 25.0542 12.44 25.1278L13.7938 25.9095C13.9214 25.9831 14.0785 25.9831 14.206 25.9095L15.5599 25.1278C15.6874 25.0542 15.766 24.9181 15.766 24.7708Z" fill="#FF551A"/>
<path d="M12.7553 14.0663C12.7007 14.0663 12.6453 14.0557 12.5919 14.0333C12.3767 13.943 12.2755 13.6953 12.3658 13.4801L14.9378 7.35137C15.0282 7.13617 15.2758 7.03511 15.491 7.12524C15.7062 7.21558 15.8074 7.46321 15.7171 7.6784L13.1451 13.8072C13.0772 13.9689 12.9203 14.0663 12.7553 14.0663Z" fill="#FF551A"/>
<path d="M12.2631 10.293C11.4035 10.293 10.7041 9.51105 10.7041 8.54986C10.7041 7.58867 11.4035 6.80664 12.2631 6.80664C13.1228 6.80664 13.8222 7.58867 13.8222 8.54986C13.8222 9.51105 13.1228 10.293 12.2631 10.293ZM12.2631 7.65167C11.8694 7.65167 11.5492 8.05455 11.5492 8.54986C11.5492 9.04505 11.8694 9.44799 12.2631 9.44799C12.6568 9.44799 12.9771 9.04511 12.9771 8.54986C12.9771 8.05455 12.6568 7.65167 12.2631 7.65167Z" fill="#FF551A"/>
<path d="M15.7368 14.4835C14.8771 14.4835 14.1777 13.7015 14.1777 12.7403C14.1777 11.7791 14.8771 10.9971 15.7368 10.9971C16.5964 10.9971 17.2958 11.7791 17.2958 12.7403C17.2958 13.7015 16.5964 14.4835 15.7368 14.4835ZM15.7368 11.8421C15.3431 11.8421 15.0228 12.245 15.0228 12.7403C15.0228 13.2355 15.3431 13.6384 15.7368 13.6384C16.1305 13.6384 16.4507 13.2355 16.4507 12.7403C16.4508 12.245 16.1305 11.8421 15.7368 11.8421Z" fill="#FF551A"/>
<path d="M8.04726 6.75049H2.49911C2.24219 6.75049 2.03394 6.54224 2.03394 6.28532V4.94564C2.03394 4.68872 2.24219 4.48047 2.49911 4.48047H8.04726C8.30418 4.48047 8.51244 4.68872 8.51244 4.94564V6.28537C8.51244 6.54224 8.30413 6.75049 8.04726 6.75049Z" fill="#FF551A"/>
<path d="M8.04736 4.48047H6.80688C7.06381 4.48047 7.27206 4.68872 7.27206 4.94564V6.28532C7.27206 6.54224 7.06381 6.75049 6.80688 6.75049H8.04736C8.30428 6.75049 8.51253 6.54224 8.51253 6.28532V4.94564C8.51253 4.68872 8.30423 4.48047 8.04736 4.48047Z" fill="#FF551A"/>
<path d="M7.65972 8.97247H2.88687C2.65346 8.97247 2.46436 8.78331 2.46436 8.54996C2.46436 8.31655 2.65352 8.12744 2.88687 8.12744H7.65972C7.89313 8.12744 8.08224 8.31661 8.08224 8.54996C8.08224 8.78331 7.89313 8.97247 7.65972 8.97247Z" fill="#FF551A"/>
<path d="M7.65972 10.6214H2.88687C2.65346 10.6214 2.46436 10.4322 2.46436 10.1989C2.46436 9.96553 2.65352 9.77637 2.88687 9.77637H7.65972C7.89313 9.77637 8.08224 9.96553 8.08224 10.1989C8.08224 10.4322 7.89313 10.6214 7.65972 10.6214Z" fill="#FF551A"/>
<path d="M7.65972 12.2703H2.88687C2.65346 12.2703 2.46436 12.0812 2.46436 11.8478C2.46436 11.6144 2.65352 11.4253 2.88687 11.4253H7.65972C7.89313 11.4253 8.08224 11.6145 8.08224 11.8478C8.08224 12.0812 7.89313 12.2703 7.65972 12.2703Z" fill="#FF551A"/>
<path d="M7.65972 13.9197H2.88687C2.65346 13.9197 2.46436 13.7306 2.46436 13.4972C2.46436 13.2639 2.65352 13.0747 2.88687 13.0747H7.65972C7.89313 13.0747 8.08224 13.2639 8.08224 13.4972C8.08224 13.7306 7.89313 13.9197 7.65972 13.9197Z" fill="#FF551A"/>
<path d="M25.5009 6.75049H19.9527C19.6958 6.75049 19.4875 6.54224 19.4875 6.28532V4.94564C19.4875 4.68872 19.6958 4.48047 19.9527 4.48047H25.5009C25.7578 4.48047 25.966 4.68872 25.966 4.94564V6.28537C25.966 6.54224 25.7578 6.75049 25.5009 6.75049Z" fill="#FF551A"/>
<path d="M25.5007 4.48047H24.2603C24.5172 4.48047 24.7254 4.68872 24.7254 4.94564V6.28532C24.7254 6.54224 24.5172 6.75049 24.2603 6.75049H25.5007C25.7577 6.75049 25.9659 6.54224 25.9659 6.28532V4.94564C25.9659 4.68872 25.7577 4.48047 25.5007 4.48047Z" fill="#FF551A"/>
<path d="M25.1131 8.97247H20.3402C20.1068 8.97247 19.9177 8.78331 19.9177 8.54996C19.9177 8.31655 20.1069 8.12744 20.3402 8.12744H25.1131C25.3466 8.12744 25.5357 8.31661 25.5357 8.54996C25.5357 8.78331 25.3465 8.97247 25.1131 8.97247Z" fill="#FF551A"/>
<path d="M25.1131 10.6214H20.3402C20.1068 10.6214 19.9177 10.4322 19.9177 10.1989C19.9177 9.96553 20.1069 9.77637 20.3402 9.77637H25.1131C25.3466 9.77637 25.5357 9.96553 25.5357 10.1989C25.5357 10.4322 25.3465 10.6214 25.1131 10.6214Z" fill="#FF551A"/>
<path d="M25.1131 12.2703H20.3402C20.1068 12.2703 19.9177 12.0812 19.9177 11.8478C19.9177 11.6144 20.1069 11.4253 20.3402 11.4253H25.1131C25.3466 11.4253 25.5357 11.6145 25.5357 11.8478C25.5357 12.0812 25.3465 12.2703 25.1131 12.2703Z" fill="#FF551A"/>
<path d="M25.1131 13.9197H20.3402C20.1068 13.9197 19.9177 13.7306 19.9177 13.4972C19.9177 13.2639 20.1069 13.0747 20.3402 13.0747H25.1131C25.3466 13.0747 25.5357 13.2639 25.5357 13.4972C25.5357 13.7306 25.3465 13.9197 25.1131 13.9197Z" fill="#FF551A"/>
<path d="M18.8937 2.48419H9.10635C8.87295 2.48419 8.68384 2.29503 8.68384 2.06168C8.68384 1.82832 8.873 1.63916 9.10635 1.63916H18.8937C19.1271 1.63916 19.3162 1.82832 19.3162 2.06168C19.3162 2.29503 19.127 2.48419 18.8937 2.48419Z" fill="#FF551A"/>
<path d="M8.7116 26.4515H5.27335C5.03994 26.4515 4.85083 26.2623 4.85083 26.029C4.85083 25.7956 5.03999 25.6064 5.27335 25.6064H8.7116C8.94501 25.6064 9.13412 25.7956 9.13412 26.029C9.13412 26.2623 8.94501 26.4515 8.7116 26.4515Z" fill="#F9F7F8"/>
<path d="M8.71152 24.8685H4.70987C4.47646 24.8685 4.28735 24.6793 4.28735 24.446C4.28735 24.2126 4.47652 24.0234 4.70987 24.0234H8.71152C8.94492 24.0234 9.13403 24.2126 9.13403 24.446C9.13403 24.6793 8.94492 24.8685 8.71152 24.8685Z" fill="#F9F7F8"/>
<path d="M8.71153 23.2855H3.58316C3.34975 23.2855 3.16064 23.0963 3.16064 22.8629C3.16064 22.6296 3.34981 22.4404 3.58316 22.4404H8.71159C8.945 22.4404 9.13411 22.6296 9.13411 22.8629C9.13411 23.0963 8.94494 23.2855 8.71153 23.2855Z" fill="#F9F7F8"/>
<path d="M8.71152 21.7025H1.89297C1.65957 21.7025 1.47046 21.5133 1.47046 21.2799C1.47046 21.0466 1.65962 20.8574 1.89297 20.8574H8.71152C8.94493 20.8574 9.13404 21.0466 9.13404 21.2799C9.13404 21.5133 8.94493 21.7025 8.71152 21.7025Z" fill="#F9F7F8"/>
<path d="M5.45532 20.1854H1.89297C1.65957 20.1854 1.47046 19.9962 1.47046 19.7628C1.47046 19.5295 1.65962 19.3403 1.89297 19.3403H5.45532C5.68872 19.3403 5.87783 19.5295 5.87783 19.7628C5.87783 19.9962 5.68872 20.1854 5.45532 20.1854Z" fill="#F9F7F8"/>
<path d="M22.7267 26.4515H19.2885C19.0551 26.4515 18.866 26.2623 18.866 26.029C18.866 25.7956 19.0551 25.6064 19.2885 25.6064H22.7267C22.9601 25.6064 23.1493 25.7956 23.1493 26.029C23.1493 26.2623 22.9601 26.4515 22.7267 26.4515Z" fill="#F9F7F8"/>
<path d="M23.2901 24.8685H19.2885C19.0551 24.8685 18.866 24.6793 18.866 24.446C18.866 24.2126 19.0551 24.0234 19.2885 24.0234H23.2901C23.5235 24.0234 23.7126 24.2126 23.7126 24.446C23.7126 24.6793 23.5235 24.8685 23.2901 24.8685Z" fill="#F9F7F8"/>
<path d="M24.4169 23.2855H19.2885C19.0551 23.2855 18.866 23.0963 18.866 22.8629C18.866 22.6296 19.0551 22.4404 19.2885 22.4404H24.4169C24.6503 22.4404 24.8394 22.6296 24.8394 22.8629C24.8394 23.0963 24.6503 23.2855 24.4169 23.2855Z" fill="#F9F7F8"/>
<path d="M26.107 21.7025H19.2885C19.0551 21.7025 18.866 21.5133 18.866 21.2799C18.866 21.0466 19.0551 20.8574 19.2885 20.8574H26.107C26.3404 20.8574 26.5295 21.0466 26.5295 21.2799C26.5295 21.5133 26.3404 21.7025 26.107 21.7025Z" fill="#F9F7F8"/>
<path d="M26.1072 20.1854H22.5448C22.3114 20.1854 22.1223 19.9962 22.1223 19.7628C22.1223 19.5295 22.3115 19.3403 22.5448 19.3403H26.1072C26.3406 19.3403 26.5297 19.5295 26.5297 19.7628C26.5297 19.9962 26.3406 20.1854 26.1072 20.1854Z" fill="#F9F7F8"/>
</svg>
