<svg width="6" height="6" viewBox="0 0 6 6" fill="none" xmlns="http://www.w3.org/2000/svg">
<path d="M5.99998 2.98188C5.99998 3.77272 5.68392 4.53116 5.12131 5.09037C4.5587 5.64958 3.79564 5.96375 2.99999 5.96375C2.20434 5.96375 1.44128 5.64958 0.878673 5.09037C0.316065 4.53116 0 3.77272 0 2.98188C0 2.19104 0.316065 1.43258 0.878673 0.873373C1.44128 0.314164 2.20434 0 2.99999 0C3.79564 0 4.5587 0.314164 5.12131 0.873373C5.68392 1.43258 5.99998 2.19104 5.99998 2.98188ZM2.92308 5.32156C3.21061 5.33055 3.49725 5.27865 3.76663 5.16885C4.03601 5.05905 4.28284 4.89349 4.49306 4.68161C4.70328 4.46974 4.87275 4.2157 4.9918 3.93401C5.11085 3.65232 5.17714 3.34849 5.1869 3.03987C5.2066 2.4166 4.99482 1.81164 4.59814 1.35809C4.20146 0.904546 3.65238 0.639555 3.07169 0.621418C2.78415 0.612434 2.49752 0.664325 2.22814 0.774129C1.95876 0.883933 1.71191 1.0495 1.50169 1.26138C1.29148 1.47325 1.12201 1.72729 1.00296 2.00897C0.883909 2.29066 0.817611 2.59449 0.807853 2.90311C0.788151 3.52638 0.999938 4.13135 1.39662 4.58489C1.7933 5.03844 2.34238 5.30343 2.92308 5.32156Z" fill="white"/>
</svg>
