<svg width="24" height="24" viewBox="0 0 24 24" fill="none" xmlns="http://www.w3.org/2000/svg">
<path d="M10.776 13.0105L10.7865 13.008V13.0105H20.7295V13.0075L20.7405 13.0105L22.8855 5.008H8.63202L10.776 13.0105Z" fill="white"/>
<path d="M9.323 15L5.605 1.3535H0V3.375H4.083L7.795 17L7.807 16.9965V17H24V15H9.323Z" fill="white"/>
<path d="M20.8855 22C21.9901 22 22.8855 21.1046 22.8855 20C22.8855 18.8954 21.9901 18 20.8855 18C19.7809 18 18.8855 18.8954 18.8855 20C18.8855 21.1046 19.7809 22 20.8855 22Z" fill="white"/>
<path d="M9.80701 22C10.9116 22 11.807 21.1046 11.807 20C11.807 18.8954 10.9116 18 9.80701 18C8.70244 18 7.80701 18.8954 7.80701 20C7.80701 21.1046 8.70244 22 9.80701 22Z" fill="white"/>
</svg>
