<svg width="24" height="24" viewBox="0 0 24 24" fill="none" xmlns="http://www.w3.org/2000/svg">
<path d="M8.415 15.57C7.81829 16.0366 7.33572 16.633 7.00391 17.314C6.6721 17.9949 6.49977 18.7425 6.5 19.5V21H3.5C2.67 21 2 20.33 2 19.5V18.5C2 16.565 3.565 15 5.5 15H6.5C7.21 15 7.865 15.21 8.415 15.57Z" fill="#F15D25"/>
<path d="M18 15C19.2426 15 20.25 13.9926 20.25 12.75C20.25 11.5074 19.2426 10.5 18 10.5C16.7574 10.5 15.75 11.5074 15.75 12.75C15.75 13.9926 16.7574 15 18 15Z" fill="#F15D25"/>
<path d="M6 15C7.24264 15 8.25 13.9926 8.25 12.75C8.25 11.5074 7.24264 10.5 6 10.5C4.75736 10.5 3.75 11.5074 3.75 12.75C3.75 13.9926 4.75736 15 6 15Z" fill="#F15D25"/>
<path d="M22 18.5V19.5C22 20.33 21.33 21 20.5 21H17.5V19.5C17.5 17.905 16.75 16.485 15.585 15.57C16.135 15.21 16.79 15 17.5 15H18.5C20.435 15 22 16.565 22 18.5Z" fill="#F15D25"/>
<path d="M12 15.5C13.5188 15.5 14.75 14.2688 14.75 12.75C14.75 11.2312 13.5188 10 12 10C10.4812 10 9.25 11.2312 9.25 12.75C9.25 14.2688 10.4812 15.5 12 15.5Z" fill="#F15D25"/>
<path d="M12.5 15.4999H11.5C9.29449 15.4999 7.49999 17.2944 7.49999 19.4999V20.9999C7.49999 21.8269 8.17299 22.4999 8.99999 22.4999H15C15.827 22.4999 16.5 21.8269 16.5 20.9999V19.4999C16.5 17.2944 14.7055 15.4999 12.5 15.4999ZM19.25 8.34188L18.0435 8.77088C17.9643 8.79902 17.8795 8.80745 17.7964 8.79544C17.7133 8.78344 17.6343 8.75135 17.5663 8.70196C17.4984 8.65257 17.4435 8.58737 17.4064 8.512C17.3693 8.43662 17.3512 8.35335 17.3535 8.26938L17.3885 6.98938L16.6075 5.97438C16.5563 5.90777 16.5221 5.82971 16.5079 5.74694C16.4936 5.66416 16.4997 5.57916 16.5257 5.49928C16.5516 5.41939 16.5966 5.34702 16.6568 5.28841C16.7169 5.2298 16.7905 5.18672 16.871 5.16288L18.0995 4.80088L18.8235 3.74438C18.871 3.67508 18.9346 3.61839 19.0089 3.57922C19.0833 3.54006 19.166 3.51959 19.25 3.51959C19.334 3.51959 19.4167 3.54006 19.4911 3.57922C19.5654 3.61839 19.629 3.67508 19.6765 3.74438L20.4005 4.80088L21.629 5.16288C21.9775 5.26538 22.114 5.68638 21.8925 5.97438L21.1115 6.98938L21.1465 8.26938C21.1487 8.35331 21.1305 8.43652 21.0934 8.51183C21.0562 8.58714 21.0013 8.65229 20.9334 8.70165C20.8655 8.75101 20.7866 8.78311 20.7035 8.79517C20.6204 8.80723 20.5356 8.79889 20.4565 8.77088L19.25 8.34188ZM4.74999 8.34188L3.54349 8.77088C3.46435 8.79902 3.37953 8.80745 3.29639 8.79544C3.21325 8.78344 3.13429 8.75135 3.06634 8.70196C2.99838 8.65257 2.94349 8.58737 2.9064 8.512C2.86932 8.43662 2.85116 8.35335 2.85349 8.26938L2.88849 6.98938L2.10749 5.97438C2.05632 5.90777 2.02213 5.82971 2.00788 5.74694C1.99362 5.66416 1.99972 5.57916 2.02566 5.49928C2.0516 5.41939 2.0966 5.34702 2.15676 5.28841C2.21693 5.2298 2.29046 5.18672 2.37099 5.16288L3.59949 4.80088L4.32349 3.74438C4.37097 3.67508 4.43462 3.61839 4.50894 3.57922C4.58325 3.54006 4.66599 3.51959 4.74999 3.51959C4.834 3.51959 4.91674 3.54006 4.99105 3.57922C5.06536 3.61839 5.12901 3.67508 5.17649 3.74438L5.90049 4.80088L7.12899 5.16288C7.47749 5.26538 7.61399 5.68638 7.39249 5.97438L6.61149 6.98938L6.64649 8.26938C6.64871 8.35331 6.63047 8.43652 6.59335 8.51183C6.55623 8.58714 6.50134 8.65229 6.43343 8.70165C6.36551 8.75101 6.2866 8.78311 6.20351 8.79517C6.12042 8.80723 6.03564 8.79889 5.95649 8.77088L4.74999 8.34188ZM12 7.21688L10.5695 7.72538C10.4757 7.75872 10.3751 7.76869 10.2766 7.75445C10.178 7.74021 10.0844 7.70217 10.0039 7.64363C9.92333 7.58509 9.85825 7.5078 9.81427 7.41846C9.7703 7.32912 9.74875 7.23042 9.75149 7.13088L9.79299 5.61338L8.86699 4.40988C8.80634 4.33091 8.76582 4.23836 8.74893 4.14023C8.73204 4.0421 8.73929 3.94133 8.77005 3.84663C8.80082 3.75193 8.85417 3.66614 8.9255 3.59666C8.99684 3.52719 9.08401 3.47613 9.17949 3.44788L10.636 3.01838L11.4945 1.76588C11.5508 1.68369 11.6263 1.61646 11.7144 1.57C11.8025 1.52355 11.9006 1.49927 12.0002 1.49927C12.0999 1.49927 12.198 1.52355 12.2861 1.57C12.3742 1.61646 12.4497 1.68369 12.506 1.76588L13.3645 3.01838L14.821 3.44788C14.9165 3.47613 15.0036 3.52719 15.075 3.59666C15.1463 3.66614 15.1997 3.75193 15.2304 3.84663C15.2612 3.94133 15.2684 4.0421 15.2516 4.14023C15.2347 4.23836 15.1941 4.33091 15.1335 4.40988L14.2075 5.61338L14.249 7.13088C14.2517 7.23042 14.2302 7.32912 14.1862 7.41846C14.1422 7.5078 14.0772 7.58509 13.9966 7.64363C13.9161 7.70217 13.8225 7.74021 13.7239 7.75445C13.6254 7.76869 13.5248 7.75872 13.431 7.72538L12 7.21688Z" fill="#F15D25"/>
</svg>
