<svg width="38" height="38" viewBox="0 0 38 38" fill="none" xmlns="http://www.w3.org/2000/svg">
<g clip-path="url(#clip0_0_39)">
<path d="M33.1879 31.8955C33.6252 32.1361 34.1299 32.2724 34.6673 32.2724C36.3412 32.2724 37.6978 30.9457 37.6978 29.3094C37.6978 27.6738 36.3412 26.347 34.6673 26.347C34.1313 26.347 33.6273 26.4833 33.1908 26.7226C33.3611 26.69 33.3597 31.9296 33.1879 31.8955Z" fill="#9BBFD9"/>
<path d="M31.6369 29.3093C31.6369 30.4203 32.2623 31.3886 33.1879 31.8955C33.3597 31.9296 33.5372 31.9473 33.7196 31.9473C35.2096 31.9473 36.4179 30.7668 36.4179 29.3093C36.4179 27.8526 35.2097 26.6721 33.7196 26.6721C33.5386 26.6721 33.3612 26.6899 33.1908 26.7225H33.1894C32.263 27.2295 31.6369 28.1984 31.6369 29.3093Z" fill="#9BBFD9"/>
<path d="M8.07068 9.95336C7.37495 8.32078 6.67108 6.55129 5.30821 5.10583L3.04803 6.04252C4.68167 7.59004 6.13864 9.09097 6.71052 10.3582L8.07068 9.95336Z" fill="#9BBFD9"/>
<path d="M18.1821 5.76406C18.1705 4.24374 17.8774 2.80716 17.3768 1.43237L15.162 1.94041C15.9652 3.39137 16.5784 4.78456 16.9361 6.10009L17.8633 6.91383L18.1821 5.76406Z" fill="#9BBFD9"/>
<path d="M21.5209 25.0935L14.6209 28.4088L13.839 29.0294L12.6898 27.8566L19.0525 24.841C20.0286 23.9219 20.8155 24.2411 21.5209 25.0935Z" fill="#8888E8"/>
<path d="M28.9612 24.6063L33.7392 26.1825C34.2911 26.3646 34.4932 26.8471 34.0942 27.7016C33.9496 28.0112 33.8396 28.3085 33.4475 28.5381L26.4068 32.6613C25.7044 33.0726 24.8645 33.1794 24.0815 32.9569L10.7337 29.0295C9.10615 26.6578 8.46712 25.4249 9.45418 23.1546C10.2872 22.9226 10.5777 23.5003 10.8857 24.0519C10.5445 25.4267 11.0933 26.7514 11.9734 27.7302L23.7803 31.1058C24.5715 31.332 25.421 31.2216 26.1282 30.8008L31.961 27.3299C32.1925 27.1921 32.1487 26.8446 31.8902 26.7687L27.3775 25.4438L27.2083 23.901L28.9612 24.6063Z" fill="#A4A4F7"/>
<path d="M6.41025 9.79162C6.40959 13.6767 25.2517 18.0472 27.236 16.0936C31.2954 19.1057 34.2965 13.7934 36.3388 12.9269C36.4469 12.8811 36.532 12.5893 36.547 12.4916C36.5582 12.3203 36.5015 12.1966 36.3419 12.1407L19.0117 6.05565C18.4739 5.86639 17.8888 5.86089 17.347 6.0407L6.53869 9.61666C6.45438 9.64493 6.41181 9.71749 6.41025 9.79162Z" fill="#9BBFD9"/>
<path d="M33.0676 6.55776C26.9995 2.91326 24.8166 3.52558 22.7042 3.33057C22.8717 3.34602 29.6523 18.3765 29.381 18.3515C31.4196 18.5396 31.2675 18.5306 31.3892 18.5231C31.6742 18.5051 31.8523 18.365 31.987 18.1144C32.5336 17.0979 32.439 13.9755 33.4515 10.6957C34.1273 8.48512 35.2929 7.89416 33.0676 6.55776Z" fill="#F0E3E7"/>
<path d="M29.9569 6.1451C33.3294 7.98272 32.1277 8.22392 31.3089 11.701C31.165 12.3126 31.045 12.9283 30.9431 13.5382C27.4849 15.9135 22.9753 14.425 19.8918 12.139C20.138 10.4731 20.4359 8.72817 20.8053 7.1006C21.7798 2.80688 21.947 3.04701 24.0157 3.66928C26.1497 4.3111 28.1203 5.14489 29.9569 6.1451Z" fill="#FCF4F6"/>
<path d="M28.9688 10.5708C30.3309 10.8729 30.8814 13.2496 30.9431 13.5382C30.8368 14.175 30.75 14.8063 30.6759 15.4198C30.239 19.0361 30.0543 18.6672 27.2869 17.6987C25.4774 17.0656 23.6188 16.3107 21.9229 15.4023C19.7721 14.25 19.6178 13.9927 19.8919 12.1391C20.3234 11.4962 21.7171 8.53827 22.9696 10.2638C23.8094 11.4203 24.3157 13.0433 24.5338 13.7093C25.6471 12.8295 26.6936 11.1716 28.1186 10.6458C28.4319 10.5304 28.7144 10.5144 28.9688 10.5708Z" fill="#00D2A9"/>
<path d="M23.992 7.209C24.6488 7.14819 25.1426 6.50259 25.0951 5.76798C25.0554 5.16026 24.6576 4.68132 24.1495 4.56874C23.3764 4.39747 22.6577 5.1034 22.7156 5.98995C22.7627 6.7188 23.3294 7.27072 23.992 7.209Z" fill="#F6C719"/>
<path d="M25.9333 8.96095C25.9586 8.96095 25.9842 8.95511 26.0083 8.9427C26.089 8.9012 26.1208 8.80209 26.0793 8.72139C25.7877 8.15403 25.3105 7.5574 25.257 7.49125C25.2 7.42066 25.0966 7.40964 25.0259 7.46668C24.9553 7.52371 24.9443 7.62717 25.0013 7.69785C25.0526 7.76129 25.5102 8.33351 25.7869 8.87178C25.8161 8.9284 25.8736 8.96095 25.9333 8.96095Z" fill="#F6C719"/>
<path d="M28.2457 6.75875C28.2939 6.75875 28.3416 6.73763 28.3742 6.69712C28.4309 6.62628 28.4194 6.52282 28.3486 6.46611C27.7724 6.00476 27.0012 5.7638 26.4556 5.64292C26.2025 5.58679 26.0403 5.56567 26.0104 5.56205C25.9206 5.55088 25.8384 5.61514 25.8273 5.70521C25.8162 5.79528 25.8803 5.87729 25.9704 5.88839C25.9872 5.89044 26.141 5.91 26.3845 5.96391C26.8032 6.05669 27.5885 6.27874 28.1432 6.72276C28.1734 6.747 28.2097 6.75875 28.2457 6.75875Z" fill="#F6C719"/>
<path d="M23.0603 9.28051C23.1493 9.28051 23.2226 9.20934 23.2246 9.11985C23.2371 8.56251 23.3192 8.00377 23.3285 7.94197L23.0035 7.89258L23.166 7.91707L23.0034 7.89307C22.9938 7.95701 22.9089 8.53489 22.8959 9.11253C22.8938 9.20326 22.9658 9.27854 23.0566 9.28051C23.0578 9.28051 23.0591 9.28051 23.0603 9.28051Z" fill="#F6C719"/>
<path d="M11.4428 13.5967C12.7585 16.5601 15.8205 18.027 18.2826 16.8732C18.9573 16.5568 19.5169 16.0761 19.9459 15.4844C15.3955 14.9427 14.9478 10.0397 15.2592 5.74939C14.6659 5.7535 14.0758 5.88006 13.517 6.14221C11.0557 7.29601 10.1271 10.6333 11.4428 13.5967Z" fill="#F6C719"/>
<path d="M12.8234 13.1127C14.1432 15.9619 17.5668 18.0032 19.9459 15.4844C19.9467 15.4836 19.9476 15.4828 19.9484 15.482C21.0849 13.9148 21.3109 11.5686 20.3568 9.41876C19.3394 7.12841 17.2792 5.73136 15.2592 5.74944C12.4043 6.36661 11.5636 10.3942 12.8234 13.1127Z" fill="#F6D14F"/>
<path d="M14.4629 12.2475C13.599 10.1946 14.0556 8.04354 15.4827 7.44299C16.9098 6.84243 18.767 8.01979 19.6309 10.0727C20.4948 12.1256 20.0382 14.2766 18.6112 14.8772C17.1841 15.4777 15.3269 14.3004 14.4629 12.2475Z" fill="#F6C719"/>
<path d="M16.2229 8.81519C16.3432 9.05523 16.8026 10.3261 15.8736 11.337C17.5271 11.7071 18.2783 12.9226 18.4071 13.1587C18.2888 12.9225 17.6817 11.5077 18.6108 10.4968C16.9596 10.1315 16.3539 9.05556 16.2229 8.81519Z" fill="#9BBFD9"/>
<path d="M26.5492 25.6829C26.863 25.6474 27.169 25.5543 27.4504 25.4053L31.8283 23.0902C32.4481 22.7621 32.9386 22.2331 33.22 21.5904C34.5242 18.1533 36.4687 13.7051 36.5468 12.4916C36.5319 12.5894 36.4696 12.6808 36.3615 12.7265C34.3193 13.5931 29.4287 15.3839 27.7784 15.9847C27.6026 16.0486 27.4196 16.0849 27.2359 16.0935C24.8917 19.5555 24.9081 22.7211 26.5492 25.6829Z" fill="#9BBFD9"/>
<path d="M8.49431 21.3184C8.79394 22.8789 10.0809 24.0578 11.6618 24.2194L26.0051 25.6869C26.1873 25.7051 26.3694 25.7042 26.5492 25.6829L27.236 16.0937C27.0404 16.1023 26.8441 16.0794 26.6541 16.0259C25.1449 15.5977 9.80327 10.9659 6.54189 9.97309C6.45437 9.9463 6.41024 9.87061 6.41024 9.79492C6.34475 10.3476 7.54966 16.3963 8.49431 21.3184Z" fill="#9BBFD9"/>
<path d="M10.8856 32.3212C11.2892 32.5433 11.755 32.6691 12.2509 32.6691C13.7957 32.6691 15.0476 31.4446 15.0476 29.9346C15.0476 28.4252 13.7957 27.2007 12.2509 27.2007C11.7562 27.2007 11.2911 27.3265 10.8883 27.5472C11.0455 27.5172 11.0442 32.3527 10.8856 32.3212Z" fill="#9BBFD9"/>
<path d="M9.45421 29.9346C9.45421 30.9598 10.0314 31.8535 10.8857 32.3212C11.0442 32.3527 11.208 32.369 11.3764 32.369C12.7515 32.369 13.8665 31.2796 13.8665 29.9346C13.8665 28.5903 12.7515 27.5007 11.3764 27.5007C11.2093 27.5007 11.0455 27.5171 10.8883 27.5472H10.887C10.032 28.015 9.45421 28.9093 9.45421 29.9346Z" fill="#9BBFD9"/>
<path d="M23.7442 37.6212C24.1836 37.8631 24.6908 38 25.2308 38C26.9128 38 28.2761 36.6667 28.2761 35.0224C28.2761 33.3789 26.9129 32.0457 25.2308 32.0457C24.6922 32.0457 24.1857 32.1826 23.747 32.423C23.9182 32.3902 23.9168 37.6555 23.7442 37.6212Z" fill="#9BBFD9"/>
<path d="M22.1855 35.0224C22.1855 36.1389 22.814 37.1119 23.7442 37.6212C23.9168 37.6555 24.0952 37.6733 24.2785 37.6733C25.7758 37.6733 26.9899 36.487 26.9899 35.0224C26.9899 33.5587 25.7758 32.3723 24.2785 32.3723C24.0966 32.3723 23.9182 32.3901 23.747 32.4229H23.7456C22.8147 32.9323 22.1855 33.906 22.1855 35.0224Z" fill="#9BBFD9"/>
<path d="M2.25936 6.64227L18.8106 1.47819C19.1741 1.38755 19.3507 0.970403 19.2789 0.613168C19.2 0.224459 18.8886 -0.0759894 18.4233 0.0170379L1.3793 3.7807C1.57431 3.87997 1.98628 6.40025 2.25936 6.64227Z" fill="#9BBFD9"/>
<path d="M0.336188 5.53359C0.50178 6.3521 1.22644 6.89613 1.95348 6.74869C2.06229 6.72659 2.16477 6.69035 2.25944 6.64227C2.80273 6.36705 3.1118 5.6968 2.96988 5.00057C2.80667 4.19151 2.09779 3.65143 1.37946 3.7807L1.29506 3.79886L1.2935 3.7996C0.601137 3.97628 0.175281 4.73875 0.336188 5.53359Z" fill="#C5C5FF"/>
</g>
<defs>
<clipPath id="clip0_0_39">
<rect width="38" height="38" fill="white" transform="matrix(-1 0 0 1 38 0)"/>
</clipPath>
</defs>
</svg>
