<svg width="9" height="14" viewBox="0 0 9 14" fill="none" xmlns="http://www.w3.org/2000/svg">
<path d="M2.93742 5.7671L7.47418 5.75355C7.49707 5.75355 7.51903 5.76259 7.53522 5.77868C7.55141 5.79478 7.56051 5.8166 7.56051 5.83935V7.93032C7.56051 7.95308 7.55141 7.97491 7.53522 7.991C7.51903 8.00709 7.49707 8.01613 7.47418 8.01613H2.91697C2.89408 8.01613 2.87212 8.02517 2.85593 8.04126C2.83974 8.05736 2.83064 8.07918 2.83064 8.10194L2.84882 11.6561C2.84882 11.6789 2.85792 11.7007 2.87411 11.7168C2.8903 11.7329 2.91226 11.7419 2.93515 11.7419H8.09892C8.12182 11.7419 8.14377 11.751 8.15996 11.7671C8.17615 11.7832 8.18525 11.805 8.18525 11.8277V13.9142C8.18525 13.937 8.17615 13.9588 8.15996 13.9749C8.14377 13.991 8.12182 14 8.09892 14H0.086329C0.0634334 14 0.0414741 13.991 0.0252844 13.9749C0.00909482 13.9588 0 13.937 0 13.9142V0.0858076C0 0.0630503 0.00909482 0.0412236 0.0252844 0.0251317C0.0414741 0.00903989 0.0634334 5.1545e-09 0.086329 5.1545e-09H8.04894C8.07145 -7.74248e-06 8.09307 0.00871881 8.10919 0.0243255C8.12532 0.0399321 8.13468 0.0611837 8.13527 0.0835473L8.18297 2.17C8.18328 2.18145 8.18127 2.19286 8.17707 2.20353C8.17287 2.2142 8.16655 2.22393 8.15851 2.23214C8.15046 2.24035 8.14085 2.24687 8.13022 2.25133C8.1196 2.25578 8.10818 2.25807 8.09665 2.25807H2.92151C2.89862 2.25807 2.87667 2.26711 2.86048 2.2832C2.84429 2.29929 2.83519 2.32112 2.83519 2.34387L2.85109 5.68129C2.85109 5.70405 2.86018 5.72588 2.87637 5.74197C2.89256 5.75806 2.91452 5.7671 2.93742 5.7671Z" fill="white"/>
</svg>
