<svg width="89" height="52" viewBox="0 0 89 52" fill="none" xmlns="http://www.w3.org/2000/svg">
<path d="M62.2079 31.0026L65.4712 24.7982" stroke="#806664" stroke-width="2"/>
<path d="M84.1035 1.03348C84.0005 0.991922 83.8863 0.996374 83.7608 1.04683C83.283 1.23829 82.8 1.23606 82.3117 1.04016" stroke="white" stroke-width="2"/>
<path d="M88.2201 2.57401L88.0253 2.63635C87.9461 2.66009 87.9208 2.71055 87.9491 2.78773C88.2201 3.54464 87.2145 5.33673 86.7845 5.89106C85.8064 7.15406 84.6104 8.30204 83.1964 9.335C82.9478 9.51755 82.8582 9.73127 82.8269 10.0162" stroke="white" stroke-width="2"/>
<path d="M68.5329 18.8298C68.5463 18.7793 68.5508 18.7363 68.5463 18.7006C68.5438 18.6858 68.5378 18.6718 68.5287 18.6598C68.5197 18.6477 68.508 18.6379 68.4945 18.6312C68.481 18.6245 68.466 18.621 68.4509 18.6211C68.4358 18.6212 68.4209 18.6248 68.4075 18.6316L62.9089 21.5346" stroke="#857670" stroke-width="2"/>
<path d="M62.9089 21.5346L62.7992 21.3966C62.7469 21.3313 62.6902 21.3283 62.6289 21.3877L62.5259 21.4901C62.4962 21.5195 62.4583 21.5395 62.4172 21.5476C62.376 21.5557 62.3333 21.5515 62.2945 21.5356C62.2558 21.5197 62.2226 21.4927 62.1992 21.458C62.1758 21.4234 62.1632 21.3827 62.1631 21.3409V21.2074C62.1631 21.1302 62.1332 21.0671 62.0735 21.0181L60.7229 19.9117C60.6692 19.8687 60.6707 19.8279 60.7274 19.7893C60.9902 19.6052 61.1507 19.3848 61.209 19.1281" stroke="white" stroke-width="2"/>
<path d="M50.9756 36.1319L53.9007 30.4817" stroke="#806664" stroke-width="2"/>
<path d="M56.8684 24.6246L62.9089 21.5346" stroke="#806664" stroke-width="2"/>
<path d="M71.4221 13.1708L70.8085 13.616" stroke="#83666D" stroke-width="2"/>
<path d="M60.2638 19.6112L59.2223 20.1254" stroke="#7E5661" stroke-width="2"/>
<path d="M42.5072 31.3499L42.4377 31.1652C42.4109 31.0939 42.3623 31.0731 42.2922 31.1028L34.6681 34.2485" stroke="#7E5661" stroke-width="2"/>
<path d="M34.6681 34.2485L34.6188 34.1572C34.5845 34.0949 34.5315 34.0629 34.4598 34.0615C34.0104 34.0526 33.481 34.1691 32.8718 34.411C30.002 35.5449 26.3087 36.8413 21.7919 38.3002C16.2941 40.0737 11.1061 41.4168 6.22796 42.3296C5.34327 42.4966 4.11589 42.5344 3.06994 42.8038C2.16284 43.0398 1.00042 42.7214 0.0395738 42.6836" stroke="white" stroke-width="2"/>
<path d="M1.77088 37.4319L3.1192 36.0717" stroke="white" stroke-width="2"/>
<path d="M70.8085 13.616C67.7774 15.5914 64.5775 17.4287 61.209 19.1281" stroke="#878778" stroke-width="2"/>
<path d="M61.209 19.1281L60.2638 19.6112" stroke="#82776C" stroke-width="2"/>
<path d="M42.5139 39.9164V35.5107" stroke="#7E5661" stroke-width="2"/>
<path d="M42.4915 27.7791C42.4601 27.8786 42.4206 27.9394 42.3728 27.9617C39.8046 29.1252 37.2005 30.1931 34.5606 31.1652" stroke="#806664" stroke-width="2"/>
<path d="M18.2195 36.5726C18.2001 36.6721 18.1276 36.7277 18.0022 36.7396C17.8484 36.7559 17.7633 36.7663 17.7469 36.7708C15.2608 37.36 12.7478 37.7577 10.2079 37.964" stroke="#806664" stroke-width="2"/>
<path d="M10.2931 31.8865C10.3573 31.649 10.3625 31.4004 10.3088 31.1407" stroke="#806664" stroke-width="2"/>
<path d="M13.3167 50.7669C12.3581 49.4549 11.6138 48.0413 11.0837 46.526" stroke="#83666D" stroke-width="2"/>
<path d="M10.3267 42.2673L18.2777 40.1078" stroke="#83666D" stroke-width="2"/>
<path d="M18.6406 44.3399C19.323 45.9917 20.3809 47.2273 21.8143 48.0465" stroke="#7E5661" stroke-width="2"/>
<path d="M34.4665 43.3069C34.6188 41.8213 34.6554 40.2859 34.5763 38.7009" stroke="#7E5661" stroke-width="2"/>
<path d="M34.583 34.3575L34.6681 34.2485" stroke="#83666D" stroke-width="2"/>
</svg>
