<svg width="19" height="23" viewBox="0 0 19 23" fill="none" xmlns="http://www.w3.org/2000/svg">
<path d="M18.5042 0.212496L15.3864 6.29022L12.0634 12.6082L6.7173 23C6.86327 22.3562 7.12859 21.7335 7.51328 21.132C7.55433 21.0655 7.57713 20.993 7.58169 20.9144C7.59842 20.6167 7.72918 20.3854 7.97398 20.2207C8.00529 20.2022 8.0285 20.1727 8.03906 20.1381C8.04962 20.1034 8.04675 20.0661 8.03104 20.0334C8.01532 20.0007 7.98788 19.9751 7.95412 19.9615C7.92035 19.9479 7.88269 19.9474 7.84854 19.96C7.68889 20.0084 7.58018 20.1021 7.5224 20.2411C7.49199 20.3121 7.44105 20.3635 7.36959 20.3953C7.13847 20.4965 6.9583 20.5471 6.82905 20.5471C4.63042 20.5471 2.43027 20.5471 0.228597 20.5471C0.14649 20.5471 0.0879537 20.5109 0.0529824 20.4383C-0.0321652 20.2675 -0.014684 20.1194 0.105435 19.994C0.140406 19.9592 0.157894 19.9169 0.157894 19.8671C0.157894 19.8368 0.146492 19.8187 0.123685 19.8126C0.0765494 19.799 0.0628667 19.7696 0.0826331 19.7242L0.707553 18.2711C0.79118 18.0777 0.766088 18.0633 0.632285 18.228C0.542576 18.3369 0.45135 18.4056 0.3586 18.4343L0.625443 17.8313L3.60409 12.0778L6.62606 6.1134L12.7772 2.96685L18.3764 0.0107366C18.3901 0.00375638 18.4053 7.85787e-05 18.4207 1.24573e-06C18.4361 -7.60873e-05 18.4513 0.00344814 18.465 0.0102904C18.4788 0.0171326 18.4908 0.0271007 18.4999 0.0393867C18.5091 0.0516726 18.5152 0.065932 18.5178 0.0810118C18.5224 0.117283 18.5178 0.161112 18.5042 0.212496Z" fill="white"/>
</svg>
