<svg width="24" height="24" viewBox="0 0 24 24" fill="none" xmlns="http://www.w3.org/2000/svg">
<g clip-path="url(#clip0_83_1638)">
<path d="M17.984 5.81203C17.9643 5.7173 17.9254 5.6276 17.8696 5.54849C17.8139 5.46937 17.7426 5.40251 17.66 5.35203L9.56401 0.500033C9.45361 0.435345 9.32797 0.401245 9.20001 0.401245C9.07206 0.401245 8.94641 0.435345 8.83601 0.500033L0.740011 5.35203C0.65745 5.40251 0.586107 5.46937 0.530383 5.54849C0.474658 5.6276 0.435734 5.7173 0.416011 5.81203C0.40477 5.85919 0.399396 5.90756 0.400011 5.95603V15.244C0.39969 15.3655 0.43084 15.485 0.490425 15.5908C0.55001 15.6967 0.635998 15.7853 0.740011 15.848L8.83601 20.7C8.94614 20.7655 9.07189 20.8 9.20001 20.8C9.32813 20.8 9.45388 20.7655 9.56401 20.7L11.292 19.664L18 10.852V5.95603C18.0006 5.90756 17.9953 5.85919 17.984 5.81203Z" fill="#3560D8"/>
<path d="M9.20001 10.952V20.8C9.07177 20.801 8.94577 20.7664 8.83601 20.7L0.740011 15.848C0.635998 15.7853 0.55001 15.6967 0.490425 15.5908C0.43084 15.485 0.39969 15.3655 0.400011 15.244V5.95601C0.399396 5.90754 0.40477 5.85917 0.416011 5.81201L8.81201 10.844C8.92904 10.9148 9.06324 10.9522 9.20001 10.952Z" fill="#156FB5"/>
<path d="M18 5.95601V10.852L11.292 19.664L9.56401 20.7C9.45426 20.7664 9.32826 20.801 9.20001 20.8V10.952C9.33679 10.9522 9.47099 10.9148 9.58801 10.844L17.984 5.81201C17.9953 5.85917 18.0006 5.90754 18 5.95601Z" fill="#156FB5"/>
<path d="M17.2 23.6C20.7346 23.6 23.6 20.7347 23.6 17.2C23.6 13.6654 20.7346 10.8 17.2 10.8C13.6654 10.8 10.8 13.6654 10.8 17.2C10.8 20.7347 13.6654 23.6 17.2 23.6Z" fill="#F15D25"/>
<path d="M20.8 16.8V17.6C20.8 17.7061 20.7578 17.8078 20.6828 17.8828C20.6078 17.9578 20.5061 18 20.4 18H18V20.4C18 20.5061 17.9578 20.6078 17.8828 20.6828C17.8078 20.7578 17.7061 20.8 17.6 20.8H16.8C16.6939 20.8 16.5921 20.7578 16.5171 20.6828C16.4421 20.6078 16.4 20.5061 16.4 20.4V18H14C13.8939 18 13.7921 17.9578 13.7171 17.8828C13.6421 17.8078 13.6 17.7061 13.6 17.6V16.8C13.6 16.6939 13.6421 16.5921 13.7171 16.5171C13.7921 16.4421 13.8939 16.4 14 16.4H16.4V14C16.4 13.8939 16.4421 13.7921 16.5171 13.7171C16.5921 13.6421 16.6939 13.6 16.8 13.6H17.6C17.7061 13.6 17.8078 13.6421 17.8828 13.7171C17.9578 13.7921 18 13.8939 18 14V16.4H20.4C20.5061 16.4 20.6078 16.4421 20.6828 16.5171C20.7578 16.5921 20.8 16.6939 20.8 16.8Z" fill="white"/>
</g>
<defs>
<clipPath id="clip0_83_1638">
<rect width="24" height="24" fill="white"/>
</clipPath>
</defs>
</svg>
