<svg width="24" height="24" viewBox="0 0 24 24" fill="none" xmlns="http://www.w3.org/2000/svg">
<g clip-path="url(#clip0_250_88768)">
<path d="M15.2927 9.33017H12.703V10.4188H11.2965V9.33017H8.70681V7.0332H5.34082V19.7804H7.21639V16.1573H9.71806V14.8133H14.2815V16.1573H16.7831V19.7804H18.6587V7.0332H15.2927V9.33017Z" fill="#156FB5"/>
<path d="M1.12109 0H22.8786V2.81322H1.12109V0Z" fill="#156FB5"/>
<path d="M12.8751 17.5628V16.2188H11.1247V17.5628H8.62305V19.7793H15.3767V17.5628H12.8751Z" fill="#156FB5"/>
<path d="M20.0653 21.1877H3.93436V4.2207H1.12109V24.0009H22.8786V4.2207H20.0653V21.1877Z" fill="#156FB5"/>
<path d="M5.34082 4.2207H8.70681V5.62743H5.34082V4.2207Z" fill="#156FB5"/>
<path d="M10.1133 4.2207H13.8861V7.9244H10.1133V4.2207Z" fill="#156FB5"/>
<path d="M15.293 4.2207H18.6589V5.62743H15.293V4.2207Z" fill="#156FB5"/>
</g>
<defs>
<clipPath id="clip0_250_88768">
<rect width="24" height="24" fill="white"/>
</clipPath>
</defs>
</svg>
