<svg width="20" height="20" viewBox="0 0 20 20" fill="none" xmlns="http://www.w3.org/2000/svg">
<path d="M4.75 15.9998V15.2498C4.75 14.5603 4.8858 13.8776 5.14963 13.2407C5.41347 12.6037 5.80018 12.025 6.28769 11.5375C6.7752 11.05 7.35395 10.6632 7.99091 10.3994C8.62787 10.1356 9.31056 9.99977 10 9.99977C10.6894 9.99977 11.3721 10.1356 12.0091 10.3994C12.646 10.6632 13.2248 11.05 13.7123 11.5375C14.1998 12.025 14.5865 12.6037 14.8504 13.2407C15.1142 13.8776 15.25 14.5603 15.25 15.2498V15.9998" stroke="#9291A5" stroke-width="1.5" stroke-linecap="round" stroke-linejoin="round"/>
<path d="M10 10C10.7956 10 11.5587 9.68393 12.1213 9.12132C12.6839 8.55871 13 7.79565 13 7C13 6.20435 12.6839 5.44129 12.1213 4.87868C11.5587 4.31607 10.7956 4 10 4C9.20435 4 8.44129 4.31607 7.87868 4.87868C7.31607 5.44129 7 6.20435 7 7C7 7.79565 7.31607 8.55871 7.87868 9.12132C8.44129 9.68393 9.20435 10 10 10V10Z" stroke="#9291A5" stroke-width="1.5" stroke-linecap="round" stroke-linejoin="round"/>
</svg>
