<svg width="24" height="24" viewBox="0 0 24 24" fill="none" xmlns="http://www.w3.org/2000/svg">
<g clip-path="url(#clip0_83_1739)">
<path fill-rule="evenodd" clip-rule="evenodd" d="M5.772 2.90444C5.35296 2.4854 4.77408 2.2262 4.13424 2.2262C3.49488 2.2262 2.91552 2.4854 2.49648 2.90444C2.07744 3.32348 1.81824 3.90236 1.81824 4.5422C1.81824 5.18156 2.07744 5.76092 2.49648 6.17996C2.91552 6.599 3.4944 6.8582 4.13424 6.8582C4.7736 6.8582 5.35296 6.599 5.772 6.17996C6.19104 5.76092 6.45024 5.18204 6.45024 4.5422C6.45024 3.90236 6.19104 3.32396 5.772 2.90444ZM20.0914 6.74396H12.8794V13.956H20.0918V6.74396H20.0914ZM24 14.5612H16.7875V21.7737H24V14.5612ZM16.1827 14.5612H8.97024V21.7737H16.1822V14.5612H16.1827ZM1.18992 15.8308C0.942239 15.8054 0.686879 15.7416 0.480479 15.5995C0.200639 15.407 -0.00480153 15.0508 -1.52835e-06 14.4096L0.0364785 9.78956C0.0403185 9.31484 0.235678 8.88236 0.549119 8.56892C0.860159 8.25788 1.28784 8.06492 1.75968 8.06492H9.11328C9.19056 8.06492 9.26832 8.03516 9.32736 7.97612L11.171 6.13244C11.291 6.01244 11.4494 5.95244 11.6078 5.95244C11.7662 5.95244 11.9246 6.01244 12.0446 6.13244L12.0451 6.13196L12.0456 6.13244C12.0504 6.1382 12.0557 6.14348 12.061 6.14876C12.181 6.26876 12.241 6.42716 12.241 6.58556C12.241 6.74396 12.181 6.90236 12.061 7.02236L9.59088 9.48908H7.5528V9.49004C7.47648 9.49004 7.40016 9.51884 7.34112 9.57644L6.65136 10.2523C6.61767 10.2807 6.59059 10.3161 6.57201 10.3561C6.55344 10.396 6.54383 10.4396 6.54384 10.4836V20.8214C6.54384 21.0835 6.4368 21.3216 6.26448 21.4939C6.09168 21.6667 5.85408 21.7732 5.592 21.7732H5.424C5.16192 21.7732 4.92384 21.6662 4.75152 21.4939C4.57872 21.3211 4.47216 21.0835 4.47216 20.8214V14.3846C4.47216 14.2176 4.3368 14.0822 4.16976 14.0822C4.00272 14.0822 3.86736 14.2176 3.86736 14.3846V20.8209C3.86736 21.083 3.76032 21.3211 3.588 21.4934C3.4152 21.6662 3.1776 21.7728 2.91552 21.7728H2.748C2.48592 21.7728 2.24784 21.6657 2.07552 21.4934C1.90272 21.3206 1.79616 21.083 1.79616 20.8209V9.87308C1.79616 9.70604 1.6608 9.57068 1.49376 9.57068C1.32672 9.57068 1.19136 9.70604 1.19136 9.87308V15.8308H1.18992Z" fill="#F15D25"/>
</g>
<defs>
<clipPath id="clip0_83_1739">
<rect width="24" height="24" fill="white"/>
</clipPath>
</defs>
</svg>
