<svg width="34" height="20" viewBox="0 0 34 20" fill="none" xmlns="http://www.w3.org/2000/svg">
<path d="M14.0742 4.83608L10.4959 11.8216C10.4538 11.9039 10.4794 11.945 10.5727 11.945H33.8917C33.9204 11.945 33.948 11.9564 33.9683 11.9766C33.9886 11.9968 34 12.0242 34 12.0527L33.9978 19.5162C33.9978 19.591 33.9601 19.6284 33.8849 19.6284L0.178572 19.6352C0.0942879 19.6352 0.0498888 19.5933 0.0453736 19.5095C-0.019345 18.2992 -0.0148303 17.0868 0.0589187 15.872C0.081495 15.4845 0.186101 15.1098 0.372732 14.7478C2.8501 9.93367 5.31918 5.12331 7.77999 0.316693C7.8718 0.288269 7.9621 0.220204 8.0509 0.112493C8.18335 -0.0505704 8.20819 -0.036358 8.12541 0.155129L7.50682 1.59352C7.48726 1.6384 7.5008 1.66757 7.54746 1.68104C7.57003 1.68702 7.58132 1.70497 7.58132 1.73489C7.58132 1.78426 7.56401 1.82615 7.52939 1.86056C7.41049 1.98472 7.39319 2.13133 7.47747 2.30038C7.51209 2.37219 7.57003 2.40809 7.65131 2.40809C9.83066 2.40809 12.0085 2.40809 14.1849 2.40809C14.3128 2.40809 14.4912 2.35797 14.7199 2.25774C14.7907 2.22633 14.8411 2.17546 14.8712 2.10515C14.9284 1.96752 15.036 1.87477 15.194 1.8269C15.2278 1.81442 15.2651 1.81496 15.2985 1.8284C15.332 1.84185 15.3591 1.86723 15.3747 1.89957C15.3902 1.9319 15.3931 1.96884 15.3826 2.00315C15.3722 2.03745 15.3492 2.06663 15.3182 2.08495C15.0759 2.24802 14.9464 2.4769 14.9299 2.77161C14.9254 2.84941 14.9028 2.92121 14.8622 2.98704C14.4814 3.58244 14.2187 4.19879 14.0742 4.83608Z" fill="white"/>
</svg>
