<svg width="20" height="20" viewBox="0 0 20 20" fill="none" xmlns="http://www.w3.org/2000/svg">
<path d="M10 0C11.3542 0 12.6488 0.264137 13.8839 0.792411C15.119 1.32068 16.183 2.03125 17.0759 2.92411C17.9688 3.81696 18.6793 4.88095 19.2076 6.11607C19.7359 7.35119 20 8.64583 20 10C20 11.3542 19.7359 12.6488 19.2076 13.8839C18.6793 15.119 17.9688 16.183 17.0759 17.0759C16.183 17.9688 15.119 18.6793 13.8839 19.2076C12.6488 19.7359 11.3542 20 10 20C8.64583 20 7.35119 19.7359 6.11607 19.2076C4.88095 18.6793 3.81696 17.9688 2.92411 17.0759C2.03125 16.183 1.32068 15.119 0.792411 13.8839C0.264137 12.6488 0 11.3542 0 10C0 8.64583 0.264137 7.35119 0.792411 6.11607C1.32068 4.88095 2.03125 3.81696 2.92411 2.92411C3.81696 2.03125 4.88095 1.32068 6.11607 0.792411C7.35119 0.264137 8.64583 0 10 0ZM10 1.42857C8.58631 1.42857 7.2433 1.76339 5.97098 2.43304L8.13616 4.59821C8.74628 4.38988 9.36756 4.28571 10 4.28571C10.6324 4.28571 11.2537 4.38988 11.8638 4.59821L14.029 2.43304C12.7567 1.76339 11.4137 1.42857 10 1.42857ZM2.43304 14.029L4.59821 11.8638C4.38988 11.2537 4.28571 10.6324 4.28571 10C4.28571 9.36756 4.38988 8.74628 4.59821 8.13616L2.43304 5.97098C1.76339 7.2433 1.42857 8.58631 1.42857 10C1.42857 11.4137 1.76339 12.7567 2.43304 14.029ZM10 18.5714C11.4137 18.5714 12.7567 18.2366 14.029 17.567L11.8638 15.4018C11.2537 15.6101 10.6324 15.7143 10 15.7143C9.36756 15.7143 8.74628 15.6101 8.13616 15.4018L5.97098 17.567C7.2433 18.2366 8.58631 18.5714 10 18.5714ZM10 14.2857C11.183 14.2857 12.1931 13.8672 13.0301 13.0301C13.8672 12.1931 14.2857 11.183 14.2857 10C14.2857 8.81696 13.8672 7.80692 13.0301 6.96987C12.1931 6.13281 11.183 5.71429 10 5.71429C8.81696 5.71429 7.80692 6.13281 6.96987 6.96987C6.13281 7.80692 5.71429 8.81696 5.71429 10C5.71429 11.183 6.13281 12.1931 6.96987 13.0301C7.80692 13.8672 8.81696 14.2857 10 14.2857ZM15.4018 11.8638L17.567 14.029C18.2366 12.7567 18.5714 11.4137 18.5714 10C18.5714 8.58631 18.2366 7.2433 17.567 5.97098L15.4018 8.13616C15.6101 8.74628 15.7143 9.36756 15.7143 10C15.7143 10.6324 15.6101 11.2537 15.4018 11.8638Z" fill="#0F62AD"/>
</svg>
