<svg width="24" height="24" viewBox="0 0 24 24" fill="none" xmlns="http://www.w3.org/2000/svg">
<path d="M22.9031 11.7281L18.375 10.0313V4.94533C18.375 4.2422 17.9391 3.61408 17.2781 3.36564L12.5906 1.60782C12.2109 1.46251 11.7891 1.46251 11.4047 1.60782L6.71719 3.36564C6.05625 3.61408 5.62031 4.2422 5.62031 4.94533V10.0313L1.09219 11.7281C0.435937 11.9766 0 12.6047 0 13.3078V18.4688C0 19.1063 0.360937 19.6922 0.932812 19.9781L5.62031 22.3219C6.09375 22.561 6.65625 22.561 7.12969 22.3219L12 19.8844L16.8703 22.3219C17.3438 22.561 17.9062 22.561 18.3797 22.3219L23.0672 19.9781C23.6391 19.6922 24 19.1063 24 18.4688V13.3078C24 12.6047 23.5641 11.9766 22.9031 11.7281ZM16.7812 10.0688L12.7969 11.5641V8.3672L16.7812 6.63283V10.0688ZM7.21875 4.8797L12 3.08907L16.7812 4.8797V4.90782L12 6.84845L7.21875 4.90782V4.8797ZM11.1562 18.525L7.17188 20.5172V16.8094L11.1562 14.9906V18.525ZM11.1562 13.275L6.375 15.2156L1.59375 13.275V13.2469L6.375 11.4563L11.1562 13.2469V13.275ZM22.4062 18.525L18.4219 20.5172V16.8094L22.4062 14.9906V18.525ZM22.4062 13.275L17.625 15.2156L12.8438 13.275V13.2469L17.625 11.4563L22.4062 13.2469V13.275Z" fill="white"/>
</svg>
