<svg width="514" height="254" viewBox="0 0 514 254" fill="none" xmlns="http://www.w3.org/2000/svg">
<path d="M0 6C0 2.68629 2.68629 0 6 0H9C12.3137 0 15 2.68629 15 6V254H0V6Z" fill="#156FB5"/>
<path d="M25 135C25 131.686 27.6863 129 31 129H34C37.3137 129 40 131.686 40 135V254H25V135Z" fill="#FF551A"/>
<path d="M81.0008 41C81.0008 37.6863 83.6871 35 87.0008 35H90.0008C93.3145 35 96.0008 37.6863 96.0008 41V254H81.0008V41Z" fill="#156FB5"/>
<path d="M105.515 149.741C105.515 146.428 108.201 143.741 111.515 143.741H114.685C117.999 143.741 120.685 146.428 120.685 149.741V254H105.515V149.741Z" fill="#FF551A"/>
<path d="M162.479 183.082C162.479 179.768 165.165 177.082 168.479 177.082H171.65C174.963 177.082 177.65 179.768 177.65 183.082V254H162.479V183.082Z" fill="#156FB5"/>
<path d="M186.753 168C186.753 164.686 189.439 162 192.753 162H195.923C199.237 162 201.923 164.686 201.923 168V254H186.753V168Z" fill="#FF551A"/>
<path d="M245 118C245 114.686 247.687 112 251 112H254C257.314 112 260 114.686 260 118V254H245V118Z" fill="#156FB5"/>
<path d="M268.983 136.01C268.983 132.696 271.669 130.01 274.983 130.01H278.153C281.467 130.01 284.153 132.696 284.153 136.01V254H268.983V136.01Z" fill="#FF551A"/>
<path d="M327 174C327 170.686 329.687 168 333 168H336C339.314 168 342 170.686 342 174V254H327V174Z" fill="#156FB5"/>
<path d="M351.213 185.801C351.213 182.487 353.899 179.801 357.213 179.801H360.383C363.697 179.801 366.383 182.487 366.383 185.801V254H351.213V185.801Z" fill="#FF551A"/>
<path d="M401.242 54C401.242 50.6863 403.928 48 407.242 48H410.412C413.726 48 416.412 50.6863 416.412 54V254H401.242V54Z" fill="#156FB5"/>
<path d="M425.517 94.0284C425.517 90.7147 428.203 88.0284 431.517 88.0284H434.687C438.001 88.0284 440.687 90.7147 440.687 94.0284V254H425.517V94.0284Z" fill="#FF551A"/>
<path d="M474.999 150C474.999 146.686 477.686 144 480.999 144H483.999C487.313 144 489.999 146.686 489.999 150V254H474.999V150Z" fill="#156FB5"/>
<path d="M498.829 74C498.829 70.6863 501.515 68 504.829 68H508C511.313 68 514 70.6863 514 74V254H498.829V74Z" fill="#FF551A"/>
</svg>
