<svg width="10" height="14" viewBox="0 0 10 14" fill="none" xmlns="http://www.w3.org/2000/svg">
<path d="M6.14291 2.37097H0.0772399C0.0567544 2.37097 0.0371076 2.36288 0.0226222 2.34848C0.00813674 2.33408 0 2.31456 0 2.2942V0.0767734C0 0.0564116 0.00813674 0.0368835 0.0226222 0.0224856C0.0371076 0.0080876 0.0567544 0 0.0772399 0H9.52106C9.54155 0 9.56119 0.0080876 9.57568 0.0224856C9.59016 0.0368835 9.5983 0.0564116 9.5983 0.0767734V2.15194C9.59817 2.16727 9.59342 2.18221 9.58467 2.19484L3.33498 11.5094C3.32706 11.521 3.32252 11.5347 3.32186 11.5487C3.32121 11.5628 3.32446 11.5768 3.33126 11.5891C3.33807 11.6015 3.34816 11.6118 3.36043 11.6188C3.37271 11.6258 3.3867 11.6294 3.40087 11.629H9.51879C9.53927 11.629 9.55892 11.6371 9.57341 11.6515C9.58789 11.6659 9.59603 11.6854 9.59603 11.7058L9.5983 13.9232C9.5983 13.9436 9.59016 13.9631 9.57568 13.9775C9.56119 13.9919 9.54155 14 9.52106 14H0.0772399C0.0567544 14 0.0371076 13.9919 0.0226222 13.9775C0.00813674 13.9631 0 13.9436 0 13.9232V11.8526C0.000131167 11.8372 0.00487809 11.8223 0.0136302 11.8097L6.20652 2.49065C6.21433 2.47913 6.21885 2.46571 6.2196 2.45184C6.22035 2.43797 6.21729 2.42416 6.21076 2.41188C6.20424 2.3996 6.19448 2.3893 6.18253 2.3821C6.17058 2.37489 6.15689 2.37105 6.14291 2.37097Z" fill="white"/>
</svg>
