<svg width="32" height="24" viewBox="0 0 32 24" fill="none" xmlns="http://www.w3.org/2000/svg">
<path d="M7.16883 15.8897C7.13711 16.1104 7.07595 16.3206 6.98533 16.5202C6.9521 16.5938 6.89924 16.6118 6.82674 16.5743C6.64324 16.4775 6.51184 16.4032 6.29209 16.4032C4.42081 16.3971 2.57444 16.3986 0.752997 16.4077C0.584487 16.4091 0.421482 16.3481 0.295809 16.2365C0.170136 16.1249 0.0908192 15.9708 0.073354 15.8042C-0.622148 9.23569 3.70039 2.89464 9.96896 0.809482C12.4633 -0.019178 15.3359 -0.0957387 18.0567 0.0731458C26.0448 0.566289 31.8671 7.06271 31.9124 14.962C31.926 17.4998 32.1412 20.3168 31.8421 22.8208C31.8166 23.0359 31.7126 23.2343 31.5498 23.3783C31.3869 23.5223 31.1766 23.602 30.9586 23.6021L25.193 23.6089C25.1572 23.6089 25.1222 23.6173 25.0906 23.6334C25.0591 23.6495 25.032 23.6727 25.0117 23.7012L24.8486 23.9241C24.7942 24.0007 24.7504 23.9947 24.7172 23.9061C24.616 23.6284 24.5662 23.3927 24.5677 23.1991C24.5813 20.7266 24.5715 18.2549 24.5382 15.7839C24.5186 14.2842 24.391 13.1673 24.1554 12.4332C23.2605 9.65903 20.4332 7.16855 17.4111 7.12801C16.088 7.11 14.5928 6.99966 13.3808 7.29014C9.37541 8.25166 7.22773 11.4807 7.26625 15.4867C7.26625 15.5752 7.25039 15.6541 7.21867 15.7231C7.19451 15.7772 7.17789 15.8327 7.16883 15.8897Z" fill="white"/>
</svg>
