<svg width="24" height="24" viewBox="0 0 24 24" fill="none" xmlns="http://www.w3.org/2000/svg">
<g clip-path="url(#clip0_127_11286)">
<path d="M22.7669 11.5285L21.5434 12.158V11.388C21.5434 9.53501 21.0769 7.69551 20.0759 6.13401C17.2949 1.78951 11.5514 0.381507 7.08542 3.21651C6.29842 3.71801 6.85192 5.00801 7.77342 4.72601C9.71792 4.13051 11.6629 4.46451 13.1359 5.33351C14.9769 6.40601 16.2804 8.35901 16.2804 10.6975C16.2804 11.339 16.2804 12.1535 16.2844 12.1575L15.0779 11.5325C14.2864 11.126 13.4734 12.05 13.9824 12.782L18.2179 18.8745C18.5559 19.3625 19.2834 19.3625 19.6214 18.8745L23.8609 12.778C24.3714 12.042 23.5589 11.118 22.7669 11.5285Z" fill="#156FB5"/>
<path d="M16.2259 19.2745C14.2819 19.87 12.3364 19.536 10.8634 18.6665C9.02745 17.597 7.71895 15.6465 7.71895 13.3025C7.71895 12.6605 7.71895 11.8465 7.71495 11.8425L8.92145 12.4675C9.71295 12.874 10.5259 11.9495 10.0169 11.2185L5.78145 5.12601C5.44345 4.63801 4.71595 4.63801 4.37795 5.12601L0.137948 11.2225C-0.371052 11.9585 0.441948 12.8825 1.23345 12.472L2.45695 11.843C2.45695 13.827 2.57445 15.7615 3.92445 17.867C5.31045 20.032 7.40695 21.422 9.59345 21.97C12.0954 22.6015 14.7044 22.1875 16.9149 20.7835C17.702 20.2835 17.1479 18.9915 16.2259 19.2745Z" fill="#156FB5"/>
</g>
<defs>
<clipPath id="clip0_127_11286">
<rect width="24" height="24" fill="white"/>
</clipPath>
</defs>
</svg>
