<svg width="5" height="6" viewBox="0 0 5 6" fill="none" xmlns="http://www.w3.org/2000/svg">
<path d="M1.19067 4.6148L0.830238 5.59047C0.79445 5.68871 0.724582 5.74461 0.620628 5.75816L0.145166 5.8293C0.123495 5.83225 0.101423 5.82962 0.0810649 5.82167C0.0607069 5.81372 0.0427428 5.80071 0.0288916 5.78389C0.0150404 5.76706 0.00576523 5.74698 0.00195458 5.72557C-0.00185607 5.70416 -7.53954e-05 5.68214 0.00712667 5.66161L1.93709 0.391984C1.97896 0.277137 2.05541 0.177892 2.15603 0.107756C2.25665 0.0376208 2.37657 0 2.49946 0C2.62236 0 2.74228 0.0376208 2.8429 0.107756C2.94352 0.177892 3.01997 0.277137 3.06184 0.391984L4.97902 5.66415C5.03356 5.81491 4.98158 5.87673 4.82309 5.84963L4.28628 5.75562C4.25923 5.75092 4.23398 5.73898 4.21326 5.72107C4.19254 5.70316 4.17713 5.67996 4.1687 5.65399L3.84149 4.67324C3.82587 4.62597 3.79547 4.58479 3.75462 4.5556C3.71377 4.5264 3.66456 4.51066 3.61399 4.51062H1.34405C1.26906 4.51062 1.21794 4.54535 1.19067 4.6148ZM1.50509 3.77125C1.50104 3.78304 1.49987 3.79561 1.50167 3.80793C1.50346 3.82026 1.50816 3.83198 1.5154 3.84214C1.52263 3.85231 1.53219 3.86063 1.54328 3.86641C1.55438 3.8722 1.56669 3.87529 1.57922 3.87542L3.40949 3.87797C3.42223 3.87824 3.43485 3.87544 3.44628 3.86983C3.4577 3.86422 3.4676 3.85595 3.47513 3.84573C3.48266 3.8355 3.48759 3.82363 3.48951 3.8111C3.49143 3.79858 3.49029 3.78578 3.48618 3.77379L2.57615 1.13898C2.571 1.12313 2.56093 1.10931 2.54738 1.09951C2.53383 1.0897 2.5175 1.08442 2.50074 1.08442C2.48399 1.08442 2.46766 1.0897 2.45411 1.09951C2.44056 1.10931 2.43049 1.12313 2.42534 1.13898L1.50509 3.77125Z" fill="white"/>
</svg>
