<svg width="24" height="24" viewBox="0 0 24 24" fill="none" xmlns="http://www.w3.org/2000/svg">
<g clip-path="url(#clip0_154_3626)">
<path d="M9.85715 16.7142H14.1429V17.5714H9.85715V16.7142Z" fill="#156FB5"/>
<path d="M12.1641 10.7469C12.3242 10.8133 12.4286 10.9696 12.4286 11.1429V13.2857H14.1429V9.42859H9.85715V12.6797L11.697 10.8399C11.8196 10.7172 12.004 10.6806 12.1641 10.7469Z" fill="#156FB5"/>
<path d="M15 9.42859V13.7143C15 13.951 14.8081 14.1429 14.5714 14.1429H12C11.7633 14.1429 11.5714 13.951 11.5714 13.7143V12.1775L9.73158 14.0173C9.65122 14.0977 9.5422 14.1429 9.42857 14.1429C9.37227 14.1431 9.3164 14.132 9.2645 14.1102C9.10442 14.0439 8.99999 13.8876 8.99999 13.7143V9.42859H4.71428V24H19.2857V9.42859H15ZM15 18C15 18.2367 14.8081 18.4286 14.5714 18.4286H9.42857C9.19189 18.4286 8.99999 18.2367 8.99999 18V16.2857C8.99999 16.0491 9.19189 15.8572 9.42857 15.8572H14.5714C14.8081 15.8572 15 16.0491 15 16.2857V18Z" fill="#156FB5"/>
<path d="M12 0C10.1064 0 8.57143 1.53495 8.57143 3.42857C8.57143 5.3222 10.1064 6.85714 12 6.85714C13.8936 6.85714 15.4286 5.3222 15.4286 3.42857C15.4265 1.53599 13.8926 0.00209263 12 0ZM12.4286 3.85714V6H11.5714V3.85714H9.42857V3H11.5714V0.857143H12.4286V3H14.5714V3.85714H12.4286Z" fill="#FF551A"/>
</g>
<defs>
<clipPath id="clip0_154_3626">
<rect width="24" height="24" fill="white"/>
</clipPath>
</defs>
</svg>
