<svg width="69" height="20" viewBox="0 0 69 20" fill="none" xmlns="http://www.w3.org/2000/svg">
<g clip-path="url(#clip0_188_25594)">
<path d="M0 3.72435V11.1574L6.43307 14.87V0.0078125L0 3.72435Z" fill="#156FB5"/>
<path d="M6.43311 0.0078125V14.87L12.8662 11.1574V3.72435L6.43311 0.0078125Z" fill="#156FB5"/>
<path d="M0 3.72435L6.43307 0.0078125L12.8661 3.72435L6.43307 7.44088L0 3.72435Z" fill="#F2F2F2"/>
<path d="M9.64964 9.29941V5.58288L6.43311 3.72461V11.1577L9.64964 9.29941Z" fill="#156FB5"/>
<path d="M6.43309 11.1577V3.72461L3.21655 5.58288V9.29941L6.43309 11.1577Z" fill="#156FB5"/>
<path d="M9.64962 9.29967L6.43309 11.1579L3.21655 9.29967L6.43309 7.44141L9.64962 9.29967Z" fill="#F2F2F2"/>
<path d="M19.7283 9.17357L18.6614 8.10664C18.2953 7.7405 17.7047 7.7405 17.3425 8.10664L16.2992 9.15388L18.685 11.5397L19.7283 10.4964C20.0905 10.1303 20.0905 9.53971 19.7283 9.17357Z" fill="#156FB5"/>
<path d="M18.0512 12.173L15.6654 9.78721L16.2993 9.14941L18.6851 11.5352L18.0512 12.173Z" fill="#F2F2F2"/>
<path d="M9.25198 19.6577L7.85828 19.9884L8.18898 18.5947L9.25198 19.6577Z" fill="#156FB5"/>
<path d="M10.9842 19.2437L8.99207 19.7201L7.85034 19.9917L8.11806 18.85L8.58656 16.8618L8.60231 16.8461C8.80703 16.8146 9.02357 16.8736 9.17711 17.0311C9.35034 17.2043 9.40546 17.4445 9.35428 17.665C9.57475 17.6138 9.81491 17.6689 9.98814 17.8421C10.1574 18.0114 10.2165 18.2555 10.1653 18.476C10.3858 18.4248 10.6259 18.4799 10.7992 18.6532C10.9645 18.8067 11.0236 19.035 10.9842 19.2437Z" fill="#156FB5"/>
<path d="M9.185 17.0312C9.35429 17.2005 9.41335 17.4446 9.36217 17.6611C9.58264 17.6099 9.8228 17.6651 9.99603 17.8383C10.1653 18.0076 10.2244 18.2517 10.1732 18.4682C10.3937 18.417 10.6338 18.4721 10.8031 18.6454C10.9645 18.8068 11.0275 19.0351 10.9882 19.2438L18.0551 12.1729L15.6693 9.78711L8.61414 16.8422C8.81492 16.8147 9.03146 16.8737 9.185 17.0312Z" fill="#156FB5"/>
<path d="M8.9961 19.7207L7.85437 19.9923L8.12209 18.8506L8.9961 19.7207Z" fill="#156FB5"/>
</g>
<path d="M58.4141 12.1201L56.0703 10.9482V13.7395L58.4141 14.9114V12.1201Z" fill="#FF551A"/>
<path d="M59 11.1028L61.2052 10.0001L59 8.89746L56.7947 10.0001L59 11.1028Z" fill="#FF551A"/>
<path d="M59 5.3125C55.0198 5.3125 51.3565 8.51211 49 11.7578C51.3572 15.0045 55.0205 18.2031 59 18.2031C62.9802 18.2031 66.6435 15.0035 69 11.7578C66.6428 8.51113 62.9795 5.3125 59 5.3125ZM63.1016 14.4637L59 16.5145L54.8984 14.4637V9.63781L59 7.58703L63.1016 9.63781V14.4637Z" fill="#FF551A"/>
<path d="M59.5859 12.1201V14.9114L61.9297 13.7395V10.9482L59.5859 12.1201Z" fill="#FF551A"/>
<path d="M58.4141 1.79688H59.5859V4.14062H58.4141V1.79688Z" fill="#FF551A"/>
<path d="M53.512 3.42383L54.527 2.83779L55.6988 4.86738L54.6838 5.45341L53.512 3.42383Z" fill="#FF551A"/>
<path d="M50.0803 6.1123L50.6664 5.09729L52.6959 6.26911L52.1099 7.28412L50.0803 6.1123Z" fill="#FF551A"/>
<path d="M62.302 4.86914L63.4738 2.83956L64.4888 3.42559L63.317 5.45518L62.302 4.86914Z" fill="#FF551A"/>
<path d="M65.3032 6.26758L67.3328 5.09576L67.9188 6.11077L65.8893 7.28259L65.3032 6.26758Z" fill="#FF551A"/>
<defs>
<clipPath id="clip0_188_25594">
<rect width="20" height="20" fill="white"/>
</clipPath>
</defs>
</svg>
