<svg width="20" height="20" viewBox="0 0 20 20" fill="none" xmlns="http://www.w3.org/2000/svg">
<path d="M1.875 8.125C0.839453 8.125 0 8.96484 0 10C0 11.0352 0.839453 11.875 1.875 11.875C2.91055 11.875 3.75 11.0352 3.75 10C3.75 8.96484 2.91055 8.125 1.875 8.125ZM1.875 14.375C0.839453 14.375 0 15.2148 0 16.25C0 17.2852 0.839453 18.125 1.875 18.125C2.91055 18.125 3.75 17.2852 3.75 16.25C3.75 15.2148 2.91055 14.375 1.875 14.375ZM1.875 1.875C0.839453 1.875 0 2.71445 0 3.75C0 4.78555 0.839453 5.625 1.875 5.625C2.91055 5.625 3.75 4.78516 3.75 3.75C3.75 2.71484 2.91055 1.875 1.875 1.875ZM7.5 5H18.75C19.4402 5 20 4.44023 20 3.78516C20 3.13008 19.4414 2.5 18.75 2.5H7.5C6.80859 2.5 6.25 3.05977 6.25 3.71484C6.25 4.36992 6.80859 5 7.5 5ZM18.75 8.75H7.5C6.80859 8.75 6.25 9.30859 6.25 10C6.25 10.6914 6.80977 11.25 7.5 11.25H18.75C19.4402 11.25 20 10.6902 20 10C20 9.30977 19.4414 8.75 18.75 8.75ZM18.75 15H7.5C6.80977 15 6.25 15.5598 6.25 16.25C6.25 16.9402 6.80977 17.5 7.5 17.5H18.75C19.4402 17.5 20 16.9402 20 16.25C20 15.5598 19.4414 15 18.75 15Z" fill="#1674B7"/>
</svg>
