<svg width="24" height="24" viewBox="0 0 24 24" fill="none" xmlns="http://www.w3.org/2000/svg">
<path fill-rule="evenodd" clip-rule="evenodd" d="M5.99998 2.39999C4.67449 2.39999 3.59998 3.47451 3.59998 4.79999V21.6L7.79998 19.2L12 21.6L16.2 19.2L20.4 21.6V4.79999C20.4 3.47451 19.3255 2.39999 18 2.39999H5.99998ZM11.6485 6.84853C12.1171 6.37989 12.1171 5.6201 11.6485 5.15146C11.1799 4.68284 10.4201 4.68284 9.95144 5.15146L6.35144 8.75146C5.88282 9.2201 5.88282 9.97989 6.35144 10.4485L9.95144 14.0485C10.4201 14.5171 11.1799 14.5171 11.6485 14.0485C12.1171 13.5799 12.1171 12.8201 11.6485 12.3515L10.097 10.8H12C13.9883 10.8 15.6 12.4117 15.6 14.4V15.6C15.6 16.2628 16.1372 16.8 16.8 16.8C17.4627 16.8 18 16.2628 18 15.6V14.4C18 11.0863 15.3137 8.39999 12 8.39999H10.097L11.6485 6.84853Z" fill="white"/>
</svg>
