<svg width="4" height="6" viewBox="0 0 4 6" fill="none" xmlns="http://www.w3.org/2000/svg">
<path d="M3.205 4.23929C3.03059 2.96883 0.482048 3.5562 0.143632 2.12532C-0.444692 -0.374182 2.97331 -0.666568 3.91827 1.23523C3.98596 1.3715 3.9443 1.45085 3.79332 1.47327L3.3664 1.53796C3.25186 1.55521 3.16595 1.51467 3.10868 1.41635C2.56201 0.45898 0.916783 0.251988 0.786623 1.5923C0.651256 2.98178 4.66019 2.31938 3.90526 4.76713C3.37161 6.50074 0.42478 6.38172 0.00826787 4.55755C-0.0212351 4.43335 0.0282197 4.37125 0.156644 4.37125H0.57837C0.677291 4.37125 0.74844 4.4161 0.791826 4.5058C1.37494 5.73226 3.37941 5.52526 3.205 4.23929Z" fill="white"/>
</svg>
