<svg width="24" height="30" viewBox="0 0 24 30" fill="none" xmlns="http://www.w3.org/2000/svg">
<path d="M8.94032 26.0071L6.22501 27.8195C6.22089 27.8222 6.21615 27.8238 6.21123 27.8242C6.20631 27.8245 6.20138 27.8236 6.1969 27.8216C6.19243 27.8195 6.18855 27.8163 6.18565 27.8123C6.18275 27.8083 6.18091 27.8037 6.18032 27.7988L5.70446 23.8189C5.70364 23.8118 5.70023 23.8053 5.69489 23.8005C5.68954 23.7958 5.68263 23.7932 5.67549 23.7933H1.45646C1.44877 23.7933 1.44141 23.7902 1.43597 23.7848C1.43054 23.7793 1.42749 23.772 1.42749 23.7643V2.01529C1.42749 2.00761 1.43054 2.00024 1.43597 1.99481C1.44141 1.98938 1.44877 1.98633 1.45646 1.98633H23.2054C23.2131 1.98633 23.2205 1.98938 23.2259 1.99481C23.2313 2.00024 23.2344 2.00761 23.2344 2.01529V23.7643C23.2344 23.772 23.2313 23.7793 23.2259 23.7848C23.2205 23.7902 23.2131 23.7933 23.2054 23.7933H12.273C12.2671 23.7932 12.2613 23.7949 12.2565 23.7982L10.2851 25.1099C10.2787 25.114 10.2741 25.1205 10.2724 25.1279C10.2707 25.1354 10.272 25.1432 10.276 25.1497L11.8385 27.6101C11.8406 27.6133 11.8421 27.617 11.8428 27.6208C11.8435 27.6246 11.8434 27.6285 11.8425 27.6323C11.8417 27.6361 11.8401 27.6396 11.8378 27.6428C11.8356 27.646 11.8327 27.6486 11.8294 27.6506L10.5657 28.4542C10.5625 28.4564 10.5588 28.4578 10.555 28.4585C10.5512 28.4592 10.5473 28.4591 10.5435 28.4583C10.5397 28.4574 10.5361 28.4558 10.533 28.4535C10.5298 28.4513 10.5272 28.4484 10.5251 28.4451L8.98087 26.0153C8.97878 26.0121 8.97606 26.0093 8.97288 26.0071C8.96969 26.005 8.96611 26.0034 8.96233 26.0027C8.95856 26.0019 8.95466 26.0019 8.95088 26.0026C8.9471 26.0034 8.94351 26.0049 8.94032 26.0071ZM18.5428 11.084C18.5455 11.0812 18.5487 11.0791 18.5523 11.0776C18.5558 11.0761 18.5596 11.0753 18.5635 11.0753C18.5673 11.0753 18.5712 11.0761 18.5747 11.0776C18.5783 11.0791 18.5815 11.0812 18.5842 11.084L21.614 14.0823C21.618 14.0865 21.6232 14.0893 21.6289 14.0905C21.6346 14.0916 21.6405 14.091 21.6458 14.0888C21.6512 14.0866 21.6557 14.0828 21.6589 14.078C21.6621 14.0731 21.6637 14.0674 21.6636 14.0617L21.6611 3.58771C21.6611 3.58003 21.6581 3.57266 21.6527 3.56723C21.6472 3.5618 21.6399 3.55874 21.6322 3.55874H3.02887C3.02119 3.55874 3.01382 3.5618 3.00839 3.56723C3.00296 3.57266 2.9999 3.58003 2.9999 3.58771L2.99908 14.0484C2.99899 14.0542 3.00065 14.0599 3.00382 14.0647C3.007 14.0696 3.01155 14.0733 3.0169 14.0756C3.02224 14.0778 3.02813 14.0784 3.03381 14.0772C3.03948 14.0761 3.04468 14.0732 3.04873 14.0691L6.85728 10.2548C6.85998 10.252 6.8632 10.2498 6.86675 10.2483C6.8703 10.2468 6.87412 10.2461 6.87797 10.2461C6.88183 10.2461 6.88564 10.2468 6.88919 10.2483C6.89275 10.2498 6.89597 10.252 6.89866 10.2548L13.0898 16.4459C13.0925 16.4487 13.0958 16.4509 13.0993 16.4524C13.1029 16.4539 13.1067 16.4546 13.1105 16.4546C13.1144 16.4546 13.1182 16.4539 13.1217 16.4524C13.1253 16.4509 13.1285 16.4487 13.1312 16.4459L18.5428 11.084ZM5.11356 18.8691C5.10859 18.8261 5.12515 18.8153 5.16321 18.8368C7.11852 19.9568 9.02363 21.0573 10.8785 22.1381C10.9789 22.1966 11.0868 22.2264 11.2021 22.2275C13.0096 22.2473 14.8118 22.2504 16.6087 22.2366C16.6147 22.2366 16.6205 22.2348 16.6254 22.2315C16.6304 22.2282 16.6342 22.2234 16.6364 22.2179C16.6387 22.2124 16.6392 22.2063 16.6379 22.2005C16.6367 22.1947 16.6337 22.1894 16.6294 22.1853L6.9359 12.4917C6.92856 12.4842 6.91979 12.4783 6.9101 12.4743C6.90041 12.4702 6.89 12.4681 6.87946 12.4681C6.86892 12.4681 6.85846 12.4702 6.84869 12.4743C6.83892 12.4783 6.83003 12.4842 6.82253 12.4917L3.02473 16.2895C3.00873 16.3055 3.00073 16.3246 3.00073 16.3466L2.99825 22.1993C2.99825 22.2275 3.01232 22.2415 3.04046 22.2415H5.43797C5.44807 22.2415 5.45804 22.2393 5.46723 22.2351C5.47641 22.2309 5.48461 22.2249 5.49126 22.2173C5.49791 22.2097 5.50287 22.2008 5.50581 22.1911C5.50876 22.1814 5.50961 22.1713 5.50832 22.1613L5.11356 18.8691ZM21.662 16.3292C21.662 16.3245 21.6611 16.3197 21.6592 16.3153C21.6574 16.3109 21.6546 16.3069 21.6512 16.3036L18.5867 13.2796C18.58 13.2731 18.5711 13.2695 18.5618 13.2695C18.5526 13.2695 18.5437 13.2731 18.537 13.2796L14.2369 17.5458C14.2335 17.5491 14.2309 17.553 14.2291 17.5574C14.2273 17.5617 14.2264 17.5663 14.2264 17.571C14.2264 17.5757 14.2273 17.5804 14.2291 17.5847C14.2309 17.589 14.2335 17.593 14.2369 17.5963L18.873 22.2308C18.8763 22.2342 18.8803 22.2369 18.8847 22.2388C18.8891 22.2406 18.8939 22.2416 18.8987 22.2415H21.6264C21.6358 22.2415 21.6449 22.2378 21.6516 22.2311C21.6582 22.2244 21.662 22.2154 21.662 22.2059V16.3292ZM7.42252 25.0752C7.42336 25.0818 7.42587 25.0881 7.42982 25.0934C7.43377 25.0988 7.43903 25.103 7.44509 25.1057C7.45115 25.1085 7.45781 25.1096 7.46444 25.1091C7.47106 25.1085 7.47743 25.1062 7.48294 25.1025L9.9599 23.4631C9.96543 23.4594 9.96991 23.4543 9.97293 23.4484C9.97595 23.4425 9.97741 23.4359 9.97716 23.4293C9.97691 23.4226 9.97497 23.4162 9.97151 23.4105C9.96806 23.4048 9.96321 23.4001 9.95742 23.3968L7.08487 21.7475C7.07864 21.7439 7.07154 21.7421 7.06437 21.7424C7.0572 21.7426 7.05023 21.7448 7.04424 21.7487C7.03824 21.7527 7.03345 21.7582 7.0304 21.7647C7.02735 21.7712 7.02615 21.7784 7.02694 21.7855L7.42252 25.0752Z" fill="#A0A0A0"/>
<path d="M16.997 7.43757C16.997 8.05543 16.7515 8.64799 16.3146 9.08489C15.8777 9.52178 15.2852 9.76723 14.6673 9.76723C14.0494 9.76723 13.4569 9.52178 13.02 9.08489C12.5831 8.64799 12.3376 8.05543 12.3376 7.43757C12.3376 6.81971 12.5831 6.22715 13.02 5.79025C13.4569 5.35336 14.0494 5.10791 14.6673 5.10791C15.2852 5.10791 15.8777 5.35336 16.3146 5.79025C16.7515 6.22715 16.997 6.81971 16.997 7.43757ZM15.4436 7.4384C15.4436 7.33678 15.4236 7.23616 15.3847 7.14228C15.3458 7.0484 15.2888 6.96309 15.2169 6.89124C15.1451 6.81939 15.0598 6.76239 14.9659 6.7235C14.872 6.68462 14.7714 6.6646 14.6698 6.6646C14.4646 6.6646 14.2677 6.74613 14.1226 6.89124C13.9775 7.03636 13.896 7.23317 13.896 7.4384C13.896 7.54001 13.916 7.64063 13.9549 7.73451C13.9938 7.8284 14.0508 7.9137 14.1226 7.98555C14.1945 8.0574 14.2798 8.1144 14.3737 8.15329C14.4675 8.19218 14.5682 8.21219 14.6698 8.21219C14.7714 8.21219 14.872 8.19218 14.9659 8.15329C15.0598 8.1144 15.1451 8.0574 15.2169 7.98555C15.2888 7.9137 15.3458 7.8284 15.3847 7.73451C15.4236 7.64063 15.4436 7.54001 15.4436 7.4384Z" fill="#A0A0A0"/>
</svg>
