<svg width="24" height="24" viewBox="0 0 24 24" fill="none" xmlns="http://www.w3.org/2000/svg">
<path d="M19.215 21.0375C19.1865 21.021 19.1542 21.0124 19.1213 21.0124C19.0884 21.0124 19.056 21.021 19.0275 21.0375L17.34 22.0987L15.6525 21.0375C15.6225 21.0185 15.5877 21.0084 15.5522 21.0084C15.5167 21.0084 15.4819 21.0185 15.4519 21.0375L13.7644 22.0987L12.0769 21.0375C12.0469 21.0185 12.0121 21.0084 11.9766 21.0084C11.9411 21.0084 11.9063 21.0185 11.8763 21.0375L10.1888 22.0987L8.50126 21.0375C8.47126 21.0185 8.43647 21.0084 8.40095 21.0084C8.36543 21.0084 8.33065 21.0185 8.30064 21.0375L6.61314 22.0987L4.92564 21.0375C4.89723 21.0197 4.86458 21.0099 4.83109 21.0091C4.7976 21.0082 4.76449 21.0163 4.7352 21.0326C4.70592 21.0489 4.68153 21.0727 4.66457 21.1016C4.64761 21.1305 4.6387 21.1634 4.63876 21.1969V22.6106C4.63779 22.7232 4.65997 22.8347 4.70391 22.9383C4.74786 23.042 4.81263 23.1354 4.89421 23.213C4.9758 23.2905 5.07245 23.3505 5.17816 23.3891C5.28388 23.4277 5.39641 23.4442 5.50876 23.4375H18.4931C18.7106 23.4375 18.9192 23.3512 19.0732 23.1976C19.2271 23.044 19.3139 22.8356 19.3144 22.6181V21.2044C19.3146 21.1701 19.3055 21.1365 19.288 21.1071C19.2705 21.0776 19.2452 21.0536 19.215 21.0375Z" fill="white"/>
<path d="M12.5625 10.56L13.1662 6.33937L10.4175 9.2475L11.3231 9.68812C11.359 9.70566 11.3884 9.73422 11.407 9.76964C11.4255 9.80505 11.4323 9.84548 11.4262 9.885L10.7419 14.2706L13.5844 11.1956L12.675 10.755C12.6376 10.7391 12.6065 10.7114 12.5862 10.6763C12.5659 10.6411 12.5576 10.6003 12.5625 10.56Z" fill="white"/>
<path d="M19.3125 1.875C19.3126 1.84314 19.3045 1.81178 19.2891 1.78389C19.2737 1.75601 19.2514 1.73251 19.2244 1.71562L17.4431 0.590625C17.4131 0.571623 17.3783 0.561535 17.3428 0.561535C17.3073 0.561535 17.2725 0.571623 17.2425 0.590625L15.5625 1.65375L13.875 0.590625C13.845 0.571623 13.8102 0.561535 13.7747 0.561535C13.7392 0.561535 13.7044 0.571623 13.6744 0.590625L12 1.65375L10.3125 0.590625C10.2825 0.571623 10.2477 0.561535 10.2122 0.561535C10.1767 0.561535 10.1419 0.571623 10.1119 0.590625L8.43751 1.65375L6.75001 0.590625C6.72001 0.571623 6.68522 0.561535 6.6497 0.561535C6.61418 0.561535 6.5794 0.571623 6.54939 0.590625L4.76814 1.71562C4.7425 1.73339 4.72171 1.75727 4.70763 1.7851C4.69355 1.81292 4.68664 1.84383 4.68751 1.875V19.1869C4.68745 19.2187 4.69551 19.2501 4.71093 19.278C4.72635 19.3059 4.74862 19.3294 4.77564 19.3462L6.55689 20.4712C6.5869 20.4903 6.62168 20.5003 6.6572 20.5003C6.69272 20.5003 6.72751 20.4903 6.75751 20.4712L8.44501 19.41L10.1325 20.4712C10.1625 20.4903 10.1973 20.5003 10.2328 20.5003C10.2683 20.5003 10.3031 20.4903 10.3331 20.4712L12.0206 19.41L13.7081 20.4712C13.7381 20.4903 13.7729 20.5003 13.8084 20.5003C13.844 20.5003 13.8788 20.4903 13.9088 20.4712L15.5963 19.41L17.2838 20.4712C17.3138 20.4903 17.3486 20.5003 17.3841 20.5003C17.4196 20.5003 17.4544 20.4903 17.4844 20.4712L19.2656 19.3462C19.2927 19.3294 19.3149 19.3059 19.3303 19.278C19.3458 19.2501 19.3538 19.2187 19.3538 19.1869L19.3125 1.875ZM6.75001 3.03562H12C12.0497 3.03562 12.0974 3.05538 12.1326 3.09054C12.1678 3.12571 12.1875 3.1734 12.1875 3.22312C12.1875 3.27285 12.1678 3.32054 12.1326 3.35571C12.0974 3.39087 12.0497 3.41062 12 3.41062H6.75001C6.70028 3.41062 6.65259 3.39087 6.61743 3.35571C6.58227 3.32054 6.56251 3.27285 6.56251 3.22312C6.56251 3.1734 6.58227 3.12571 6.61743 3.09054C6.65259 3.05538 6.70028 3.03562 6.75001 3.03562ZM6.75001 3.75H12C12.0497 3.75 12.0974 3.76975 12.1326 3.80492C12.1678 3.84008 12.1875 3.88777 12.1875 3.9375C12.1875 3.98723 12.1678 4.03492 12.1326 4.07008C12.0974 4.10525 12.0497 4.125 12 4.125H6.75001C6.70028 4.125 6.65259 4.10525 6.61743 4.07008C6.58227 4.03492 6.56251 3.98723 6.56251 3.9375C6.56251 3.88777 6.58227 3.84008 6.61743 3.80492C6.65259 3.76975 6.70028 3.75 6.75001 3.75ZM6.75001 4.84312C6.70028 4.84312 6.65259 4.82337 6.61743 4.78821C6.58227 4.75304 6.56251 4.70535 6.56251 4.65562C6.56251 4.6059 6.58227 4.55821 6.61743 4.52304C6.65259 4.48788 6.70028 4.46812 6.75001 4.46812H12C12.0497 4.46812 12.0974 4.48788 12.1326 4.52304C12.1678 4.55821 12.1875 4.6059 12.1875 4.65562C12.1875 4.70535 12.1678 4.75304 12.1326 4.78821C12.0974 4.82337 12.0497 4.84312 12 4.84312H6.75001ZM10.4625 15.0394C10.4353 15.0397 10.4084 15.0341 10.3836 15.0229C10.3588 15.0118 10.3367 14.9954 10.3189 14.9749C10.3011 14.9544 10.2879 14.9303 10.2803 14.9042C10.2727 14.8781 10.2709 14.8506 10.275 14.8237L11.025 9.96562L10.0125 9.47437C9.98591 9.46154 9.96271 9.4426 9.94481 9.4191C9.92691 9.3956 9.91482 9.3682 9.90952 9.33914C9.90422 9.31008 9.90586 9.28017 9.91431 9.25187C9.92276 9.22356 9.93777 9.19765 9.95814 9.17625L13.3125 5.65312C13.3403 5.62503 13.3763 5.60644 13.4153 5.60001C13.4543 5.59358 13.4943 5.59963 13.5296 5.6173C13.565 5.63498 13.5938 5.66337 13.6121 5.69843C13.6304 5.73348 13.6371 5.77341 13.6313 5.8125L12.9638 10.4812L13.9781 10.9725C14.0046 10.9852 14.0276 11.004 14.0455 11.0272C14.0633 11.0505 14.0755 11.0776 14.081 11.1064C14.0864 11.1353 14.0851 11.1649 14.077 11.1931C14.0689 11.2213 14.0543 11.2472 14.0344 11.2687L10.5994 14.9775C10.5821 14.9967 10.561 15.0121 10.5374 15.0227C10.5139 15.0334 10.4884 15.0391 10.4625 15.0394ZM17.25 18.0262H12C11.9503 18.0262 11.9026 18.0065 11.8674 17.9713C11.8323 17.9362 11.8125 17.8885 11.8125 17.8387C11.8125 17.789 11.8323 17.7413 11.8674 17.7062C11.9026 17.671 11.9503 17.6512 12 17.6512H17.25C17.2997 17.6512 17.3474 17.671 17.3826 17.7062C17.4178 17.7413 17.4375 17.789 17.4375 17.8387C17.4375 17.8885 17.4178 17.9362 17.3826 17.9713C17.3474 18.0065 17.2997 18.0262 17.25 18.0262ZM17.25 17.3081H12C11.9503 17.3081 11.9026 17.2884 11.8674 17.2532C11.8323 17.218 11.8125 17.1704 11.8125 17.1206C11.8125 17.0709 11.8323 17.0232 11.8674 16.988C11.9026 16.9529 11.9503 16.9331 12 16.9331H17.25C17.2997 16.9331 17.3474 16.9529 17.3826 16.988C17.4178 17.0232 17.4375 17.0709 17.4375 17.1206C17.4375 17.1704 17.4178 17.218 17.3826 17.2532C17.3474 17.2884 17.2997 17.3081 17.25 17.3081ZM17.25 16.59H12C11.9503 16.59 11.9026 16.5702 11.8674 16.5351C11.8323 16.4999 11.8125 16.4522 11.8125 16.4025C11.8125 16.3528 11.8323 16.3051 11.8674 16.2699C11.9026 16.2348 11.9503 16.215 12 16.215H17.25C17.2997 16.215 17.3474 16.2348 17.3826 16.2699C17.4178 16.3051 17.4375 16.3528 17.4375 16.4025C17.4375 16.4522 17.4178 16.4999 17.3826 16.5351C17.3474 16.5702 17.2997 16.59 17.25 16.59Z" fill="white"/>
</svg>
