<svg width="69" height="20" viewBox="0 0 69 20" fill="none" xmlns="http://www.w3.org/2000/svg">
<g clip-path="url(#clip0_188_22375)">
<path d="M0 3.72435V11.1574L6.43307 14.87V0.0078125L0 3.72435Z" fill="#156FB5"/>
<path d="M6.43311 0.0078125V14.87L12.8662 11.1574V3.72435L6.43311 0.0078125Z" fill="#156FB5"/>
<path d="M0 3.72435L6.43307 0.0078125L12.8661 3.72435L6.43307 7.44088L0 3.72435Z" fill="#F2F2F2"/>
<path d="M9.64964 9.29941V5.58288L6.43311 3.72461V11.1577L9.64964 9.29941Z" fill="#156FB5"/>
<path d="M6.43284 11.1577V3.72461L3.21631 5.58288V9.29941L6.43284 11.1577Z" fill="#156FB5"/>
<path d="M9.64938 9.29919L6.43284 11.1575L3.21631 9.29919L6.43284 7.44092L9.64938 9.29919Z" fill="#F2F2F2"/>
<path d="M19.7285 9.17308L18.6615 8.10615C18.2954 7.74001 17.7048 7.74001 17.3426 8.10615L16.2993 9.15339L18.6851 11.5392L19.7285 10.4959C20.0907 10.1298 20.0907 9.53922 19.7285 9.17308Z" fill="#156FB5"/>
<path d="M18.0514 12.173L15.6655 9.78721L16.2994 9.14941L18.6852 11.5352L18.0514 12.173Z" fill="#F2F2F2"/>
<path d="M9.2521 19.6577L7.8584 19.9884L8.18911 18.5947L9.2521 19.6577Z" fill="#156FB5"/>
<path d="M10.9844 19.2442L8.99232 19.7206L7.85059 19.9922L8.1183 18.8505L8.58681 16.8623L8.60255 16.8466C8.80728 16.8151 9.02381 16.8741 9.17736 17.0316C9.35059 17.2048 9.4057 17.445 9.35452 17.6655C9.575 17.6143 9.81515 17.6694 9.98838 17.8426C10.1577 18.0119 10.2167 18.256 10.1655 18.4765C10.386 18.4253 10.6262 18.4804 10.7994 18.6536C10.9648 18.8072 11.0238 19.0355 10.9844 19.2442Z" fill="#156FB5"/>
<path d="M9.18512 17.0317C9.35442 17.201 9.41347 17.4451 9.36229 17.6616C9.58276 17.6104 9.82292 17.6656 9.99615 17.8388C10.1654 18.0081 10.2245 18.2522 10.1733 18.4687C10.3938 18.4175 10.6339 18.4726 10.8032 18.6459C10.9647 18.8073 11.0276 19.0356 10.9883 19.2443L18.0552 12.1734L15.6694 9.7876L8.61426 16.8427C8.81505 16.8152 9.03158 16.8742 9.18512 17.0317Z" fill="#156FB5"/>
<path d="M8.99622 19.7207L7.85449 19.9923L8.12221 18.8506L8.99622 19.7207Z" fill="#156FB5"/>
</g>
<path d="M58.4141 12.1201L56.0703 10.9482V13.7395L58.4141 14.9114V12.1201Z" fill="#FF551A"/>
<path d="M59.0002 11.1028L61.2055 10.0001L59.0002 8.89746L56.7949 10.0001L59.0002 11.1028Z" fill="#FF551A"/>
<path d="M59 5.3125C55.0198 5.3125 51.3565 8.51211 49 11.7578C51.3572 15.0045 55.0205 18.2031 59 18.2031C62.9802 18.2031 66.6435 15.0035 69 11.7578C66.6428 8.51113 62.9795 5.3125 59 5.3125ZM63.1016 14.4637L59 16.5145L54.8984 14.4637V9.63781L59 7.58703L63.1016 9.63781V14.4637Z" fill="#FF551A"/>
<path d="M59.5859 12.1201V14.9114L61.9297 13.7395V10.9482L59.5859 12.1201Z" fill="#FF551A"/>
<path d="M58.4141 1.79688H59.5859V4.14062H58.4141V1.79688Z" fill="#FF551A"/>
<path d="M53.5117 3.42432L54.5267 2.83828L55.6985 4.86787L54.6835 5.4539L53.5117 3.42432Z" fill="#FF551A"/>
<path d="M50.0801 6.11279L50.6661 5.09778L52.6957 6.2696L52.1097 7.28461L50.0801 6.11279Z" fill="#FF551A"/>
<path d="M62.3022 4.86963L63.4741 2.84004L64.4891 3.42608L63.3173 5.45566L62.3022 4.86963Z" fill="#FF551A"/>
<path d="M65.3032 6.26807L67.3328 5.09625L67.9188 6.11126L65.8893 7.28308L65.3032 6.26807Z" fill="#FF551A"/>
<defs>
<clipPath id="clip0_188_22375">
<rect width="20" height="20" fill="white"/>
</clipPath>
</defs>
</svg>
