<svg width="24" height="24" viewBox="0 0 24 24" fill="none" xmlns="http://www.w3.org/2000/svg">
<path d="M14.505 11.25V7.01245C14.5048 6.71415 14.3862 6.42814 14.1752 6.21721C13.9643 6.00628 13.6783 5.88768 13.38 5.88745H2.625C2.3269 5.88832 2.04126 6.00713 1.83047 6.21792C1.61968 6.42871 1.50087 6.71435 1.5 7.01245V11.25C1.50087 11.5481 1.61968 11.8337 1.83047 12.0445C2.04126 12.2553 2.3269 12.3741 2.625 12.375H13.38C13.6783 12.3747 13.9643 12.2561 14.1752 12.0452C14.3862 11.8343 14.5048 11.5482 14.505 11.25ZM4.34625 9.55495H3.70875V10.9312C3.70875 11.0307 3.66924 11.126 3.59892 11.1964C3.52859 11.2667 3.43321 11.3062 3.33375 11.3062C3.23429 11.3062 3.13891 11.2667 3.06858 11.1964C2.99826 11.126 2.95875 11.0307 2.95875 10.9312V7.3312C2.95905 7.23184 2.99865 7.13663 3.06891 7.06636C3.13917 6.9961 3.23439 6.9565 3.33375 6.9562H4.34625C4.68916 6.95881 5.01713 7.09685 5.25869 7.34025C5.50024 7.58365 5.63579 7.91266 5.63579 8.25558C5.63579 8.59849 5.50024 8.92751 5.25869 9.1709C5.01713 9.4143 4.68916 9.55235 4.34625 9.55495ZM7.44375 11.3062H6.82125C6.72188 11.3059 6.62667 11.2663 6.5564 11.196C6.48614 11.1258 6.44654 11.0306 6.44625 10.9312V7.3312C6.44655 7.23184 6.48615 7.13663 6.55641 7.06636C6.62667 6.9961 6.72189 6.9565 6.82125 6.9562H7.44375C10.3225 7.05733 10.3219 11.2055 7.44375 11.3062ZM12.6713 8.4712C12.7698 8.4726 12.8638 8.51272 12.933 8.5829C13.0022 8.65307 13.041 8.74766 13.041 8.84621C13.041 8.94476 13.0022 9.03934 12.933 9.10952C12.8638 9.17969 12.7698 9.21981 12.6712 9.2212H11.0175V10.9312C11.0175 11.0307 10.978 11.126 10.9077 11.1964C10.8373 11.2667 10.742 11.3062 10.6425 11.3062C10.543 11.3062 10.4477 11.2667 10.3773 11.1964C10.307 11.126 10.2675 11.0307 10.2675 10.9312V7.3312C10.2678 7.23184 10.3074 7.13663 10.3777 7.06636C10.4479 6.9961 10.5431 6.9565 10.6425 6.9562H12.6713C12.7697 6.95766 12.8637 6.99782 12.9328 7.06799C13.002 7.13816 13.0407 7.23271 13.0407 7.33121C13.0407 7.42971 13.002 7.52426 12.9328 7.59443C12.8637 7.66459 12.7697 7.70474 12.6712 7.7062H11.0175V8.4712H12.6713Z" fill="#156FB5"/>
<path d="M6.59623 5.13744C6.59624 4.95865 6.59623 4.30747 6.59623 4.11744H5.38498C5.0368 4.11677 4.69509 4.21148 4.39693 4.3913C4.09878 4.57111 3.85558 4.82916 3.69373 5.13744H6.59623Z" fill="#156FB5"/>
<path d="M9.25879 20.6325C8.55289 20.6317 7.87613 20.3509 7.37699 19.8518C6.87785 19.3527 6.59708 18.6759 6.59629 17.97V13.125C6.06385 13.1264 3.96929 13.124 3.47254 13.125V20.3738C3.47225 20.6252 3.5215 20.8742 3.61747 21.1065C3.71343 21.3389 3.85424 21.5501 4.03184 21.7281C4.20944 21.906 4.42035 22.0472 4.65254 22.1436C4.88472 22.2401 5.13363 22.2898 5.38504 22.29H14.025C14.4878 22.2894 14.9346 22.1212 15.2828 21.8164C15.631 21.5117 15.8569 21.0911 15.9188 20.6325C15.7893 20.6361 9.64102 20.6299 9.25879 20.6325Z" fill="#156FB5"/>
<path d="M4.34624 7.7063H3.70874V8.80505H4.34624C4.49089 8.80345 4.62907 8.74486 4.73079 8.64201C4.83251 8.53915 4.88956 8.40033 4.88956 8.25567C4.88956 8.11102 4.83251 7.9722 4.73079 7.86934C4.62907 7.76649 4.49089 7.7079 4.34624 7.7063Z" fill="#156FB5"/>
<path d="M7.44379 7.7063H7.19629V10.5563C7.39093 10.5876 7.58993 10.5785 7.78087 10.5294C7.97181 10.4804 8.15059 10.3925 8.30605 10.2713C8.46151 10.15 8.5903 9.99807 8.68439 9.82483C8.77848 9.65159 8.83585 9.46082 8.8529 9.26442C8.86996 9.06802 8.84634 8.87021 8.78352 8.68335C8.7207 8.49648 8.62004 8.32458 8.4878 8.17836C8.35557 8.03215 8.19462 7.91476 8.01499 7.83354C7.83536 7.75232 7.64091 7.709 7.44379 7.7063Z" fill="#156FB5"/>
<path d="M22.4026 14.6738L19.9463 10.4363C19.8834 10.328 19.7931 10.238 19.6845 10.1755C19.576 10.113 19.4529 10.0801 19.3276 10.0801C19.2023 10.0801 19.0792 10.113 18.9706 10.1755C18.862 10.238 18.7717 10.328 18.7088 10.4363L16.2526 14.6738C16.1907 14.7829 16.1584 14.9061 16.1588 15.0315C16.1592 15.1568 16.1923 15.2799 16.2547 15.3886C16.3172 15.4972 16.4069 15.5877 16.5151 15.6511C16.6232 15.7145 16.746 15.7486 16.8713 15.7501H17.2688V21.0038C17.2686 21.1427 17.2959 21.2803 17.349 21.4087C17.4021 21.5371 17.4799 21.6537 17.5782 21.7519C17.6764 21.8502 17.793 21.9281 17.9214 21.9811C18.0498 22.0342 18.1874 22.0615 18.3263 22.0613H20.3288C20.4677 22.0615 20.6053 22.0342 20.7337 21.9811C20.8621 21.9281 20.9787 21.8502 21.0769 21.7519C21.1752 21.6537 21.2531 21.5371 21.3061 21.4087C21.3592 21.2803 21.3865 21.1427 21.3863 21.0038V15.7501H21.7838C21.9091 15.7485 22.0318 15.7143 22.1399 15.6509C22.248 15.5875 22.3376 15.497 22.4001 15.3884C22.4626 15.2798 22.4956 15.1567 22.4961 15.0314C22.4965 14.9061 22.4643 14.7829 22.4026 14.6738Z" fill="#156FB5"/>
<path d="M16.605 5.39248H19.8112C19.8209 5.1831 19.7876 4.97395 19.7134 4.77791C19.6393 4.58186 19.5258 4.40305 19.38 4.25248L17.3587 2.17498C17.2104 2.02183 17.0317 1.90136 16.8341 1.82129C16.6365 1.74121 16.4243 1.7033 16.2112 1.70998C16.2115 2.20103 16.211 4.46186 16.2112 4.99873C16.2112 5.05044 16.2214 5.10164 16.2412 5.14942C16.261 5.19719 16.29 5.2406 16.3266 5.27716C16.3631 5.31372 16.4065 5.34273 16.4543 5.36251C16.5021 5.3823 16.5533 5.39248 16.605 5.39248Z" fill="#156FB5"/>
<path d="M15.6037 15.7649C15.473 15.5427 15.404 15.2896 15.404 15.0318C15.404 14.774 15.473 14.5209 15.6037 14.2987L18.0599 10.0612C18.2311 9.76651 18.4995 9.54059 18.819 9.42221C19.1386 9.30383 19.4894 9.30038 19.8112 9.41244V6.14244H16.6049C16.3018 6.14187 16.0112 6.02119 15.7968 5.80682C15.5824 5.59244 15.4618 5.30186 15.4612 4.99869C15.4604 4.4806 15.4618 2.19235 15.4612 1.70996H9.25869C8.75114 1.71102 8.26473 1.91337 7.90619 2.27261C7.54765 2.63186 7.34625 3.11866 7.34619 3.62621V5.13744H13.3799C13.8772 5.13762 14.354 5.33522 14.7056 5.68682C15.0572 6.03841 15.2548 6.51522 15.2549 7.01244V11.2499C15.2548 11.7472 15.0572 12.224 14.7056 12.5756C14.354 12.9272 13.8772 13.1248 13.3799 13.1249H7.34619V17.9699C7.34703 18.4769 7.5488 18.9629 7.90728 19.3214C8.26576 19.6798 8.75172 19.8816 9.25869 19.8824H16.5187C16.5156 19.4218 16.5209 16.9773 16.5187 16.4587C16.3268 16.4119 16.1466 16.3262 15.9892 16.2068C15.8318 16.0875 15.7006 15.9371 15.6037 15.7649Z" fill="#156FB5"/>
</svg>
