<svg width="24" height="24" viewBox="0 0 24 24" fill="none" xmlns="http://www.w3.org/2000/svg">
<path d="M23.2265 2.76923H14.7692V5.52369H17.5671V7.39846H14.7692V9.23077H17.5385V11.0769H14.7692V12.9231H17.5385V14.7692H14.7692V16.6154H17.5385V18.4615H14.7692V21.2308H23.2265C23.652 21.2308 24 20.8698 24 20.4277V3.57231C24 3.13015 23.652 2.76923 23.2265 2.76923ZM22.1538 18.4615H18.4615V16.6154H22.1538V18.4615ZM22.1538 14.7692H18.4615V12.9231H22.1538V14.7692ZM22.1538 11.0769H18.4615V9.23077H22.1538V11.0769ZM22.1538 7.38462H18.4615V5.53846H22.1538V7.38462ZM0 2.66677V21.3342L13.8462 24V0L0 2.66677ZM8.75815 16.6892L7.14738 13.644C7.08646 13.5305 7.02369 13.3218 6.95815 13.0182H6.93323C6.87712 13.2406 6.80493 13.4587 6.71723 13.6708L5.10092 16.6892H2.59108L5.57077 12.0148L2.84492 7.33939H5.40738L6.744 10.1428C6.84831 10.3643 6.94154 10.6274 7.02462 10.9311H7.05046C7.10308 10.7483 7.20092 10.4769 7.344 10.116L8.83015 7.33846H11.1766L8.37323 11.9742L11.2551 16.6883L8.75815 16.6892Z" fill="#A0A0A0"/>
</svg>
