<svg width="18" height="18" viewBox="0 0 18 18" fill="none" xmlns="http://www.w3.org/2000/svg">
<path d="M2.28174 4.35605C2.28174 4.49668 2.75283 12.5088 2.99189 16.3092C3.05869 17.3604 3.75479 17.9967 4.82002 17.9967H13.1028C14.3157 17.9967 14.9556 17.3744 15.0294 16.1686C15.2263 12.9201 15.7044 4.99941 15.7396 4.35254L2.28174 4.35605ZM11.8267 12.3541C12.2802 12.8076 12.2802 13.5424 11.8267 13.9959C11.3731 14.4494 10.6384 14.4494 10.1849 13.9959L9.01064 12.8217L7.83643 13.9959C7.38291 14.4494 6.64814 14.4494 6.19463 13.9959C5.74111 13.5424 5.74111 12.8076 6.19463 12.3541L7.36885 11.1799L6.19463 10.0021C5.74111 9.54863 5.74111 8.81387 6.19463 8.36035C6.64814 7.90684 7.38291 7.90684 7.83643 8.36035L9.01064 9.53457L10.1849 8.36035C10.6384 7.90684 11.3731 7.90684 11.8267 8.36035C12.2802 8.81387 12.2802 9.54863 11.8267 10.0021L10.6524 11.1799L11.8267 12.3541Z" fill="#F43F48"/>
<path d="M15.7254 1.15664C14.7727 1.14961 13.8234 1.14258 12.8742 1.16016C12.818 0.50625 12.2695 0 11.6121 0H6.38789C5.73047 0 5.18203 0.50625 5.1293 1.16016C4.15196 1.14258 3.1711 1.14961 2.19375 1.15664C1.68047 1.16367 1.30782 1.44844 1.18477 1.89844C0.970316 2.68242 1.44492 3.3293 2.25703 3.33281C4.51055 3.33984 6.76055 3.33633 9.01055 3.33633H15.7184C16.4461 3.33633 16.8645 2.92852 16.868 2.25C16.8715 1.57148 16.4496 1.16016 15.7254 1.15664Z" fill="#F43F48"/>
</svg>
