<svg width="28" height="21" viewBox="0 0 28 21" fill="none" xmlns="http://www.w3.org/2000/svg">
<path d="M23.814 0.0286248C25.5494 0.454197 26.7519 0.0784254 28 1.59509L27.8018 1.65847C27.7214 1.68262 27.6956 1.73393 27.7244 1.8124C28 2.58206 26.9774 4.40432 26.5401 4.96797C25.5457 6.25223 24.3295 7.41954 22.8917 8.46989C22.6389 8.65551 22.5478 8.87282 22.5159 9.16257C17.8775 12.4479 13.0327 15.4352 7.98131 18.1245C7.99497 18.0732 7.99953 18.0294 7.99497 17.9932C7.99237 17.9781 7.98625 17.9639 7.97709 17.9516C7.96793 17.9394 7.95599 17.9294 7.94225 17.9226C7.9285 17.9157 7.91332 17.9122 7.89795 17.9123C7.88258 17.9124 7.86745 17.916 7.85377 17.923L2.26266 20.8749L2.15107 20.7345C2.09793 20.6681 2.04023 20.6651 1.97798 20.7254L1.87322 20.8296C1.84297 20.8595 1.80449 20.8798 1.76262 20.8881C1.72076 20.8963 1.67738 20.8921 1.63794 20.8758C1.59851 20.8596 1.56478 20.8322 1.54099 20.797C1.51721 20.7618 1.50443 20.7203 1.50428 20.6779V20.5421C1.50428 20.4636 1.47391 20.3995 1.41318 20.3497L0.0398871 19.2246C-0.0147714 19.1809 -0.0132556 19.1394 0.0444395 19.1001C0.311659 18.913 0.474874 18.6889 0.534087 18.4278C3.95935 16.6999 7.21305 14.8316 10.2952 12.8229L10.9192 12.3702C12.461 11.4014 20.8784 5.55879 19.0838 3.35171C18.5486 2.69071 17.2072 2.58432 16.4351 2.5232C16.3955 2.52004 16.3577 2.50425 16.3277 2.4782C16.2976 2.45215 16.2767 2.41724 16.2682 2.37872C16.2598 2.34019 16.2641 2.30013 16.2807 2.26455C16.2972 2.22897 16.3251 2.19979 16.36 2.18138C18.1683 1.1914 20.0456 0.476079 21.9921 0.0354156C22.4886 0.234619 22.9797 0.236883 23.4656 0.0422064C23.5931 -0.00910372 23.7093 -0.0136305 23.814 0.0286248Z" fill="white"/>
</svg>
