<svg width="24" height="24" viewBox="0 0 24 24" fill="none" xmlns="http://www.w3.org/2000/svg">
<g clip-path="url(#clip0_127_11292)">
<path d="M11.5214 17.8434C10.6842 17.3365 9.50656 17.6523 9.03486 18.5096C8.91182 18.7186 8.71159 18.8709 8.47733 18.9337C8.24306 18.9965 7.9935 18.9647 7.78245 18.8452L4.09836 16.7182C3.67217 16.4844 3.51012 15.8815 3.76273 15.4658L7.42582 9.12123C7.54883 8.91221 7.74905 8.75989 7.98332 8.69712C8.21759 8.63434 8.46714 8.66614 8.67818 8.78566L12.3626 10.9127C12.5231 11.0065 12.6518 11.1464 12.732 11.3142C12.8122 11.4819 12.8403 11.6699 12.8126 11.8538C12.5566 13.4395 14.3773 14.5568 15.6719 13.6085C15.8653 13.4691 16.0291 13.2927 16.1539 13.0895C16.2786 12.8863 16.3617 12.6604 16.3985 12.4249C16.709 10.6051 15.7886 8.66364 14.1827 7.75984L10.4986 5.63284C8.40936 4.36755 5.44967 5.15969 4.27306 7.30098L0.610012 13.6455C0.00789492 14.6928 -0.154635 15.936 0.15802 17.1028C0.470675 18.2697 1.23303 19.2651 2.27811 19.871L5.9622 21.9979C6.65044 22.3972 7.43193 22.6077 8.22762 22.608C8.6301 22.6077 9.0308 22.5545 9.41947 22.45C11.3265 22.0218 13.8047 19.3882 11.5214 17.8434ZM11.0511 19.6737C10.2143 21.1961 8.10453 21.7621 6.61836 20.8614L2.93436 18.7345C2.19067 18.3026 1.64823 17.5939 1.42564 16.7632C1.20305 15.9326 1.31843 15.0475 1.74654 14.3017L5.40936 7.95714C6.26042 6.43028 8.33529 5.86914 9.84214 6.76942L13.5262 8.89637C14.0931 9.22701 14.5469 9.7212 14.8281 10.3142C15.1093 10.9072 15.2048 11.5713 15.1021 12.2195C15.0918 12.2845 15.0688 12.3469 15.0343 12.403C14.9997 12.4591 14.9544 12.5078 14.9009 12.5462C14.5447 12.8117 14.0348 12.4952 14.1084 12.0598C14.2574 11.1738 13.8119 10.2197 13.0183 9.77612L9.33425 7.64912C8.31514 7.03164 6.86281 7.42014 6.28915 8.46508L2.62625 14.8097C2.33276 15.3221 2.25383 15.9298 2.40668 16.5003C2.55953 17.0707 2.93175 17.5576 3.44215 17.8546L7.12629 19.9817C8.14564 20.5991 9.59759 20.2106 10.1713 19.1657C10.2046 19.1078 10.2489 19.0571 10.3019 19.0165C10.3548 18.9759 10.4153 18.9462 10.4798 18.9291C10.9114 18.8096 11.2781 19.2875 11.0511 19.6737ZM23.842 6.89697C23.6891 6.31831 23.4231 5.77571 23.0592 5.30057C22.6952 4.82542 22.2407 4.42717 21.7219 4.12886L18.0375 2.00186C17.5197 1.70165 16.9476 1.50712 16.3541 1.42954C15.7606 1.35196 15.1577 1.39286 14.5802 1.54989C12.6732 1.978 10.195 4.61158 12.4783 6.15653C13.3157 6.66344 14.4931 6.34745 14.9648 5.4902C15.0879 5.28119 15.2881 5.12889 15.5224 5.06612C15.7567 5.00336 16.0062 5.03516 16.2173 5.15467L19.9014 7.28167C20.1104 7.4047 20.2627 7.60491 20.3255 7.83918C20.3882 8.07344 20.3564 8.32298 20.2369 8.53403L16.5741 14.8787C16.4511 15.0877 16.2509 15.24 16.0166 15.3027C15.7824 15.3655 15.5328 15.3337 15.3218 15.2142L11.6377 13.0874C11.4784 12.9967 11.3505 12.8596 11.2711 12.6943C11.1892 12.5241 11.1601 12.3333 11.1876 12.1464C11.2626 11.6711 11.1462 11.1854 10.8638 10.7958C10.5814 10.4062 10.1561 10.1444 9.68107 10.0678C8.72187 9.89383 7.73412 10.6089 7.60175 11.5752C7.2912 13.395 8.2115 15.3365 9.81743 16.2401L13.5015 18.3672C14.5488 18.9693 15.792 19.1318 16.9588 18.8192C18.1257 18.5065 19.121 17.7442 19.7269 16.6991L23.3899 10.3545C23.6902 9.83672 23.8847 9.26451 23.9623 8.67102C24.0399 8.07753 23.999 7.47454 23.842 6.89697Z" fill="#156FB5"/>
</g>
<defs>
<clipPath id="clip0_127_11292">
<rect width="24" height="24" fill="white"/>
</clipPath>
</defs>
</svg>
