<svg width="28" height="28" viewBox="0 0 28 28" fill="none" xmlns="http://www.w3.org/2000/svg">
<path d="M11.6273 11.2266L0 14.8301V24.237C0 24.4822 0.18375 24.6858 0.426945 24.7171C1.91461 24.9086 3.09318 26.0871 3.28464 27.5748C3.31592 27.8179 3.51963 28.0017 3.76474 28.0017H24.2353C24.4805 28.0017 24.6841 27.818 24.7154 27.5748C24.9069 26.0871 26.0854 24.9086 27.5731 24.7171C27.8162 24.6858 28.0001 24.4821 28.0001 24.237V14.8299L15.7369 11.2266C14.4163 11.7461 12.9479 11.7461 11.6273 11.2266Z" fill="#FF551A"/>
<path d="M26.5866 15.3842V24.2352C26.5866 24.4804 26.4028 24.6841 26.1596 24.7154C24.672 24.9068 23.4934 26.0854 23.3019 27.573C23.2707 27.8162 23.0669 28 22.8218 28H24.2353C24.4804 28 24.6841 27.8162 24.7154 27.573C24.9069 26.0854 26.0855 24.9068 27.5731 24.7154C27.8163 24.6841 28 24.4804 28 24.2352V14.8281L26.5866 15.3842Z" fill="#FF551A"/>
<path d="M28 14.8282V3.76474C28 3.51958 27.8162 3.31592 27.5731 3.28464C26.0854 3.09313 24.9069 1.91461 24.7154 0.426945C24.6841 0.18375 24.4804 0 24.2353 0H3.76474C3.51958 0 3.31592 0.18375 3.28464 0.426945C3.09313 1.91461 1.91461 3.09313 0.426945 3.28459C0.18375 3.31592 0 3.51958 0 3.76474V14.8284L11.9449 19.5278C13.2655 20.0474 14.7339 20.0474 16.0546 19.5278L28 14.8282Z" fill="#F9F7F8"/>
<path d="M27.5731 3.28459C26.0854 3.09313 24.9069 1.91461 24.7154 0.426945C24.6842 0.18375 24.4804 0 24.2353 0H22.8218C23.0669 0 23.2706 0.18375 23.3019 0.426945C23.4934 1.91461 24.672 3.09318 26.1596 3.28464C26.4028 3.31592 26.5866 3.51963 26.5866 3.76474V15.3843L28 14.8282V3.76474C28 3.51958 27.8163 3.31592 27.5731 3.28459Z" fill="#DEDBEE"/>
<path d="M15.766 24.7728V23.2095C15.766 23.0622 15.6874 22.9261 15.5599 22.8525L14.206 22.0708C14.0785 21.9972 13.9214 21.9972 13.7938 22.0708L12.44 22.8525C12.3125 22.9261 12.2339 23.0622 12.2339 23.2095V24.7728C12.2339 24.92 12.3125 25.0561 12.44 25.1298L13.7938 25.9114C13.9214 25.985 14.0785 25.985 14.206 25.9114L15.5599 25.1298C15.6874 25.0562 15.766 24.92 15.766 24.7728Z" fill="#FF551A"/>
<path d="M12.7553 14.0678C12.7007 14.0678 12.6453 14.0572 12.5919 14.0348C12.3767 13.9444 12.2755 13.6968 12.3658 13.4816L14.9378 7.35283C15.0282 7.13764 15.2758 7.03658 15.491 7.1267C15.7062 7.21705 15.8074 7.46467 15.7171 7.67987L13.1451 13.8086C13.0772 13.9704 12.9203 14.0678 12.7553 14.0678Z" fill="#FF551A"/>
<path d="M12.2631 10.295C11.4035 10.295 10.7041 9.513 10.7041 8.55181C10.7041 7.59062 11.4035 6.80859 12.2631 6.80859C13.1228 6.80859 13.8222 7.59062 13.8222 8.55181C13.8222 9.513 13.1228 10.295 12.2631 10.295ZM12.2631 7.65363C11.8694 7.65363 11.5492 8.05651 11.5492 8.55181C11.5492 9.04701 11.8694 9.44995 12.2631 9.44995C12.6568 9.44995 12.9771 9.04706 12.9771 8.55181C12.9771 8.05651 12.6568 7.65363 12.2631 7.65363Z" fill="#FF551A"/>
<path d="M15.7368 14.4864C14.8771 14.4864 14.1777 13.7044 14.1777 12.7432C14.1777 11.782 14.8771 11 15.7368 11C16.5964 11 17.2958 11.782 17.2958 12.7432C17.2958 13.7044 16.5964 14.4864 15.7368 14.4864ZM15.7368 11.845C15.3431 11.845 15.0228 12.2479 15.0228 12.7432C15.0228 13.2384 15.3431 13.6414 15.7368 13.6414C16.1305 13.6414 16.4507 13.2385 16.4507 12.7432C16.4508 12.2479 16.1305 11.845 15.7368 11.845Z" fill="#FF551A"/>
<path d="M8.04726 6.75049H2.49911C2.24219 6.75049 2.03394 6.54224 2.03394 6.28532V4.94564C2.03394 4.68872 2.24219 4.48047 2.49911 4.48047H8.04726C8.30418 4.48047 8.51244 4.68872 8.51244 4.94564V6.28537C8.51244 6.54224 8.30413 6.75049 8.04726 6.75049Z" fill="#FF551A"/>
<path d="M8.04736 4.48047H6.80688C7.06381 4.48047 7.27206 4.68872 7.27206 4.94564V6.28532C7.27206 6.54224 7.06381 6.75049 6.80688 6.75049H8.04736C8.30428 6.75049 8.51253 6.54224 8.51253 6.28532V4.94564C8.51253 4.68872 8.30423 4.48047 8.04736 4.48047Z" fill="#FF551A"/>
<path d="M7.65972 8.97394H2.88687C2.65346 8.97394 2.46436 8.78477 2.46436 8.55142C2.46436 8.31802 2.65352 8.12891 2.88687 8.12891H7.65972C7.89313 8.12891 8.08224 8.31807 8.08224 8.55142C8.08224 8.78477 7.89313 8.97394 7.65972 8.97394Z" fill="#FF551A"/>
<path d="M7.65972 10.6224H2.88687C2.65346 10.6224 2.46436 10.4332 2.46436 10.1999C2.46436 9.96651 2.65352 9.77734 2.88687 9.77734H7.65972C7.89313 9.77734 8.08224 9.96651 8.08224 10.1999C8.08224 10.4332 7.89313 10.6224 7.65972 10.6224Z" fill="#FF551A"/>
<path d="M7.65972 12.2708H2.88687C2.65346 12.2708 2.46436 12.0816 2.46436 11.8483C2.46436 11.6149 2.65352 11.4258 2.88687 11.4258H7.65972C7.89313 11.4258 8.08224 11.6149 8.08224 11.8483C8.08224 12.0816 7.89313 12.2708 7.65972 12.2708Z" fill="#FF551A"/>
<path d="M7.65972 13.9192H2.88687C2.65346 13.9192 2.46436 13.7301 2.46436 13.4967C2.46436 13.2634 2.65352 13.0742 2.88687 13.0742H7.65972C7.89313 13.0742 8.08224 13.2634 8.08224 13.4967C8.08224 13.7301 7.89313 13.9192 7.65972 13.9192Z" fill="#FF551A"/>
<path d="M25.5009 6.75049H19.9527C19.6958 6.75049 19.4875 6.54224 19.4875 6.28532V4.94564C19.4875 4.68872 19.6958 4.48047 19.9527 4.48047H25.5009C25.7578 4.48047 25.966 4.68872 25.966 4.94564V6.28537C25.966 6.54224 25.7578 6.75049 25.5009 6.75049Z" fill="#FF551A"/>
<path d="M25.5007 4.48047H24.2603C24.5172 4.48047 24.7254 4.68872 24.7254 4.94564V6.28532C24.7254 6.54224 24.5172 6.75049 24.2603 6.75049H25.5007C25.7577 6.75049 25.9659 6.54224 25.9659 6.28532V4.94564C25.9659 4.68872 25.7577 4.48047 25.5007 4.48047Z" fill="#FF551A"/>
<path d="M25.1131 8.97394H20.3402C20.1068 8.97394 19.9177 8.78477 19.9177 8.55142C19.9177 8.31802 20.1069 8.12891 20.3402 8.12891H25.1131C25.3466 8.12891 25.5357 8.31807 25.5357 8.55142C25.5357 8.78477 25.3465 8.97394 25.1131 8.97394Z" fill="#FF551A"/>
<path d="M25.1131 10.6224H20.3402C20.1068 10.6224 19.9177 10.4332 19.9177 10.1999C19.9177 9.96651 20.1069 9.77734 20.3402 9.77734H25.1131C25.3466 9.77734 25.5357 9.96651 25.5357 10.1999C25.5357 10.4332 25.3465 10.6224 25.1131 10.6224Z" fill="#FF551A"/>
<path d="M25.1131 12.2708H20.3402C20.1068 12.2708 19.9177 12.0816 19.9177 11.8483C19.9177 11.6149 20.1069 11.4258 20.3402 11.4258H25.1131C25.3466 11.4258 25.5357 11.6149 25.5357 11.8483C25.5357 12.0816 25.3465 12.2708 25.1131 12.2708Z" fill="#FF551A"/>
<path d="M25.1131 13.9192H20.3402C20.1068 13.9192 19.9177 13.7301 19.9177 13.4967C19.9177 13.2634 20.1069 13.0742 20.3402 13.0742H25.1131C25.3466 13.0742 25.5357 13.2634 25.5357 13.4967C25.5357 13.7301 25.3465 13.9192 25.1131 13.9192Z" fill="#FF551A"/>
<path d="M18.8937 2.48566H9.10635C8.87295 2.48566 8.68384 2.29649 8.68384 2.06314C8.68384 1.82979 8.873 1.64062 9.10635 1.64062H18.8937C19.1271 1.64062 19.3162 1.82979 19.3162 2.06314C19.3162 2.29649 19.127 2.48566 18.8937 2.48566Z" fill="#FF551A"/>
<path d="M8.7116 26.4505H5.27335C5.03994 26.4505 4.85083 26.2613 4.85083 26.028C4.85083 25.7946 5.03999 25.6055 5.27335 25.6055H8.7116C8.94501 25.6055 9.13412 25.7946 9.13412 26.028C9.13412 26.2613 8.94501 26.4505 8.7116 26.4505Z" fill="#F9F7F8"/>
<path d="M8.71152 24.8685H4.70987C4.47646 24.8685 4.28735 24.6793 4.28735 24.446C4.28735 24.2126 4.47652 24.0234 4.70987 24.0234H8.71152C8.94492 24.0234 9.13403 24.2126 9.13403 24.446C9.13403 24.6793 8.94492 24.8685 8.71152 24.8685Z" fill="#F9F7F8"/>
<path d="M8.71153 23.2864H3.58316C3.34975 23.2864 3.16064 23.0973 3.16064 22.8639C3.16064 22.6306 3.34981 22.4414 3.58316 22.4414H8.71159C8.945 22.4414 9.13411 22.6306 9.13411 22.8639C9.13411 23.0973 8.94494 23.2864 8.71153 23.2864Z" fill="#F9F7F8"/>
<path d="M8.71152 21.7005H1.89297C1.65957 21.7005 1.47046 21.5113 1.47046 21.278C1.47046 21.0446 1.65962 20.8555 1.89297 20.8555H8.71152C8.94493 20.8555 9.13404 21.0446 9.13404 21.278C9.13404 21.5113 8.94493 21.7005 8.71152 21.7005Z" fill="#F9F7F8"/>
<path d="M5.45532 20.1849H1.89297C1.65957 20.1849 1.47046 19.9957 1.47046 19.7624C1.47046 19.529 1.65962 19.3398 1.89297 19.3398H5.45532C5.68872 19.3398 5.87783 19.529 5.87783 19.7624C5.87783 19.9957 5.68872 20.1849 5.45532 20.1849Z" fill="#F9F7F8"/>
<path d="M22.7267 26.4505H19.2885C19.0551 26.4505 18.866 26.2613 18.866 26.028C18.866 25.7946 19.0551 25.6055 19.2885 25.6055H22.7267C22.9601 25.6055 23.1493 25.7946 23.1493 26.028C23.1493 26.2613 22.9601 26.4505 22.7267 26.4505Z" fill="#F9F7F8"/>
<path d="M23.2901 24.8685H19.2885C19.0551 24.8685 18.866 24.6793 18.866 24.446C18.866 24.2126 19.0551 24.0234 19.2885 24.0234H23.2901C23.5235 24.0234 23.7126 24.2126 23.7126 24.446C23.7126 24.6793 23.5235 24.8685 23.2901 24.8685Z" fill="#F9F7F8"/>
<path d="M24.4169 23.2864H19.2885C19.0551 23.2864 18.866 23.0973 18.866 22.8639C18.866 22.6306 19.0551 22.4414 19.2885 22.4414H24.4169C24.6503 22.4414 24.8394 22.6306 24.8394 22.8639C24.8394 23.0973 24.6503 23.2864 24.4169 23.2864Z" fill="#F9F7F8"/>
<path d="M26.107 21.7005H19.2885C19.0551 21.7005 18.866 21.5113 18.866 21.278C18.866 21.0446 19.0551 20.8555 19.2885 20.8555H26.107C26.3404 20.8555 26.5295 21.0446 26.5295 21.278C26.5295 21.5113 26.3404 21.7005 26.107 21.7005Z" fill="#F9F7F8"/>
<path d="M26.1072 20.1849H22.5448C22.3114 20.1849 22.1223 19.9957 22.1223 19.7624C22.1223 19.529 22.3115 19.3398 22.5448 19.3398H26.1072C26.3406 19.3398 26.5297 19.529 26.5297 19.7624C26.5297 19.9957 26.3406 20.1849 26.1072 20.1849Z" fill="#F9F7F8"/>
</svg>
