<svg width="24" height="24" viewBox="0 0 24 24" fill="none" xmlns="http://www.w3.org/2000/svg">
<path d="M3.80957 23.6573C3.80969 23.7481 3.84585 23.8351 3.9101 23.8993C3.97434 23.9634 4.06143 23.9995 4.15223 23.9995H19.8338C19.9246 23.9995 20.0117 23.9634 20.0759 23.8993C20.1402 23.8351 20.1763 23.7481 20.1764 23.6573V22.1934H3.80957V23.6573Z" fill="#156FB5"/>
<path d="M20.1764 4.77328C20.1759 4.68233 20.1395 4.59527 20.0752 4.53094L15.6596 0.0993771C15.628 0.067732 15.5904 0.0426587 15.549 0.0256029C15.5077 0.00854703 15.4634 -0.000153811 15.4186 2.05769e-06H4.15223C4.06143 1.97273e-06 3.97434 0.0360388 3.9101 0.100198C3.84585 0.164357 3.80969 0.251393 3.80957 0.34219V10.5548H20.1764V4.77328Z" fill="#156FB5"/>
<path d="M11.9556 16.7433H12.8331L12.3962 15.5859L11.9556 16.7433Z" fill="#156FB5"/>
<path d="M21.6567 11.9609H2.34424C2.15776 11.9609 1.97892 12.035 1.84705 12.1669C1.71519 12.2987 1.64111 12.4776 1.64111 12.6641L1.64111 20.0844C1.64111 20.2709 1.71519 20.4497 1.84705 20.5816C1.97892 20.7134 2.15776 20.7875 2.34424 20.7875H21.6567C21.8432 20.7875 22.0221 20.7134 22.1539 20.5816C22.2858 20.4497 22.3599 20.2709 22.3599 20.0844V12.6641C22.3599 12.4776 22.2858 12.2987 22.1539 12.1669C22.0221 12.035 21.8432 11.9609 21.6567 11.9609ZM8.86268 17.7092C8.69439 18.6519 7.79861 19.3358 6.73221 19.3358C5.87721 19.3358 5.07377 18.9908 4.52908 18.3889C4.46706 18.3205 4.41913 18.2405 4.38801 18.1536C4.3569 18.0666 4.34321 17.9744 4.34774 17.8822C4.35227 17.7899 4.37492 17.6995 4.4144 17.616C4.45388 17.5325 4.50941 17.4576 4.57783 17.3956C4.64625 17.3336 4.72622 17.2857 4.81317 17.2546C4.90011 17.2234 4.99233 17.2098 5.08457 17.2143C5.1768 17.2188 5.26724 17.2415 5.35072 17.2809C5.43421 17.3204 5.50909 17.376 5.57111 17.4444C5.84627 17.7481 6.2808 17.9295 6.73314 17.9295C7.14283 17.9295 7.43955 17.6872 7.47939 17.4608C7.53189 17.1678 7.05752 16.9681 6.90939 16.9137C6.15705 16.6362 5.48908 16.3391 5.46096 16.3264C5.42711 16.3114 5.3945 16.2936 5.36346 16.2734C5.09915 16.1027 4.88977 15.8592 4.76046 15.5724C4.63116 15.2855 4.58744 14.9674 4.63455 14.6563C4.73252 13.9723 5.23127 13.4155 5.93533 13.2031C7.30596 12.7906 8.43236 13.7188 8.47971 13.7591L7.57502 14.8372L7.57971 14.8414C7.57361 14.8367 6.97549 14.3609 6.34127 14.5517C6.0858 14.6286 6.03611 14.7913 6.02674 14.8578C6.01968 14.8969 6.02269 14.9372 6.03548 14.9748C6.04827 15.0125 6.07043 15.0463 6.09986 15.073C6.28221 15.1527 6.81986 15.3838 7.39596 15.5961C8.67236 16.0667 8.99018 16.9962 8.86268 17.7092ZM14.5453 19.2908C14.3711 19.356 14.1781 19.3496 14.0086 19.2728C13.8391 19.196 13.707 19.0551 13.6411 18.8811L13.3655 18.1498H11.4197L11.1385 18.883C11.1087 18.9733 11.061 19.0566 10.9981 19.128C10.9353 19.1993 10.8586 19.2572 10.7727 19.298C10.6869 19.3389 10.5936 19.3619 10.4986 19.3657C10.4036 19.3695 10.3088 19.354 10.22 19.3201C10.1312 19.2862 10.0501 19.2347 9.98177 19.1686C9.91342 19.1025 9.85919 19.0232 9.82236 18.9355C9.78552 18.8479 9.76685 18.7536 9.76747 18.6586C9.76809 18.5635 9.78799 18.4695 9.82596 18.3823L11.6396 13.6198C11.6419 13.6147 11.6438 13.6091 11.6461 13.6039C11.7067 13.4547 11.8105 13.327 11.9441 13.237C12.0777 13.1471 12.2351 13.0991 12.3961 13.0991C12.557 13.0991 12.7142 13.147 12.8477 13.2367C12.9812 13.3263 13.0851 13.4537 13.1461 13.6025C13.1485 13.6091 13.1513 13.6152 13.1536 13.6217L14.9536 18.3847C15.0195 18.559 15.0135 18.7523 14.937 18.9222C14.8604 19.0921 14.7196 19.2247 14.5453 19.2908ZM19.6041 14.0328L18.0272 18.7803V18.785C17.9729 18.9447 17.8703 19.0835 17.7335 19.1822C17.5968 19.2809 17.4327 19.3345 17.2641 19.3358H17.2585C17.0906 19.3361 16.9267 19.2844 16.7893 19.1879C16.6519 19.0914 16.5478 18.9548 16.4911 18.7967V18.7916L14.8392 14.0338C14.7781 13.8575 14.7894 13.6642 14.8708 13.4964C14.9521 13.3285 15.0968 13.1998 15.2731 13.1387C15.4493 13.0775 15.6426 13.0889 15.8105 13.1702C15.9783 13.2516 16.107 13.3963 16.1681 13.5725L17.2463 16.6775L18.2714 13.5903C18.3005 13.5027 18.3466 13.4217 18.4071 13.3518C18.4675 13.282 18.5411 13.2248 18.6236 13.1834C18.7062 13.1421 18.7961 13.1173 18.8882 13.1107C18.9803 13.1041 19.0728 13.1156 19.1604 13.1448C19.248 13.1739 19.3291 13.22 19.3989 13.2804C19.4687 13.3408 19.5259 13.4144 19.5673 13.497C19.6087 13.5795 19.6334 13.6694 19.64 13.7615C19.6466 13.8536 19.6351 13.9461 19.606 14.0338L19.6041 14.0328Z" fill="#156FB5"/>
</svg>
