<svg width="24" height="24" viewBox="0 0 24 24" fill="none" xmlns="http://www.w3.org/2000/svg">
<path fill-rule="evenodd" clip-rule="evenodd" d="M3.01017 15.6324H4.95178C5.20997 15.6324 5.42053 15.8429 5.42053 16.1011V20.6871C5.42053 20.9452 5.20997 21.1558 4.95178 21.1558H3.01017C2.75199 21.1558 2.54142 20.9452 2.54142 20.6871V16.1011C2.54142 15.8429 2.75199 15.6324 3.01017 15.6324ZM10.2979 12.7385H8.35622C8.09803 12.7385 7.88747 12.949 7.88747 13.2072V20.6871C7.88747 20.9453 8.09803 21.1559 8.35622 21.1559H10.2979C10.5561 21.1559 10.7666 20.9453 10.7666 20.6871V13.2072C10.7666 12.949 10.556 12.7385 10.2979 12.7385ZM15.6439 9.71662H13.7023C13.4441 9.71662 13.2336 9.92718 13.2336 10.1854V20.6871C13.2336 20.9452 13.4441 21.1558 13.7023 21.1558H15.6439C15.9021 21.1558 16.1127 20.9452 16.1127 20.6871V10.1854C16.1126 9.92723 15.9021 9.71662 15.6439 9.71662ZM19.0482 6.99825H20.9898C21.248 6.99825 21.4586 7.20881 21.4586 7.467V20.6871C21.4586 20.9452 21.248 21.1558 20.9898 21.1558H19.0482C18.79 21.1558 18.5795 20.9452 18.5795 20.6871V7.467C18.5795 7.20881 18.79 6.99825 19.0482 6.99825ZM19.1751 2.02865C19.0768 2.03239 18.981 1.99725 18.9084 1.93085C18.8358 1.86445 18.7923 1.77214 18.7873 1.67389C18.7823 1.57565 18.8162 1.47939 18.8817 1.40595C18.9471 1.33252 19.0389 1.28783 19.137 1.28156L21.4396 1.15659C21.4947 1.15378 21.5498 1.16319 21.6008 1.18416C21.6518 1.20514 21.6976 1.23714 21.7348 1.27788C21.7721 1.31863 21.7998 1.3671 21.8161 1.41983C21.8324 1.47256 21.8368 1.52824 21.829 1.58287L21.8293 1.58292L21.497 3.86479C21.4822 3.96234 21.4295 4.05009 21.3503 4.10896C21.2711 4.16783 21.1719 4.19305 21.0742 4.17915C20.9765 4.16525 20.8883 4.11335 20.8286 4.03473C20.769 3.95611 20.7429 3.85713 20.7558 3.75932L20.9376 2.51095C18.077 5.06339 15.0806 7.1579 12.0543 8.88281C8.81377 10.7298 5.5396 12.1521 2.36152 13.2588C2.26825 13.29 2.16645 13.2832 2.07816 13.2399C1.98988 13.1966 1.92222 13.1202 1.88985 13.0273C1.85748 12.9345 1.86301 12.8326 1.90523 12.7438C1.94745 12.6549 2.02297 12.5863 2.11542 12.5528C5.25338 11.46 8.48602 10.0558 11.6851 8.23246C14.663 6.53521 17.6124 4.47365 20.4301 1.96064L19.1751 2.02865ZM2.12166 22.5878H21.8784C22.1366 22.5878 22.3471 22.7984 22.3471 23.0565V23.2062C22.3471 23.4644 22.1366 23.675 21.8784 23.675H2.12166C1.86347 23.675 1.65291 23.4644 1.65291 23.2062V23.0565C1.65291 22.7984 1.86347 22.5878 2.12166 22.5878ZM6.54314 0.325073C4.27791 0.325073 2.44158 2.1614 2.44158 4.42664C2.44158 6.69187 4.27791 8.5282 6.54314 8.5282C8.80838 8.5282 10.6447 6.69187 10.6447 4.42664C10.6447 2.1614 8.80833 0.325073 6.54314 0.325073ZM6.16814 1.83117V2.07862C5.91155 2.13407 5.67099 2.24442 5.47589 2.403C5.1653 2.65551 4.96838 3.02221 4.9906 3.47948C5.01291 3.93965 5.24241 4.24823 5.56181 4.45678C5.83777 4.63696 6.17555 4.72992 6.4868 4.78101C6.73083 4.82109 6.99103 4.88418 7.18758 5.00287C7.34044 5.09517 7.45524 5.22965 7.47961 5.4307C7.48299 5.45859 7.48481 5.47818 7.4851 5.48976C7.48885 5.64721 7.4131 5.76754 7.29938 5.85384C7.15242 5.96535 6.94481 6.03126 6.73664 6.05653C6.6873 6.06284 6.63768 6.06682 6.58795 6.06843C6.34186 6.07434 6.09933 6.01425 5.91024 5.88834C5.75677 5.78615 5.63953 5.63676 5.59064 5.44059C5.56564 5.34565 5.50433 5.26434 5.41993 5.2142C5.33553 5.16405 5.2348 5.14909 5.13946 5.17254C5.04413 5.19598 4.96183 5.25596 4.91032 5.33953C4.8588 5.4231 4.84219 5.52357 4.86408 5.61928C4.96224 6.01298 5.19427 6.31064 5.49713 6.51234C5.69644 6.64504 5.92669 6.73434 6.16814 6.78004V7.02215C6.16815 7.12161 6.20766 7.21699 6.27799 7.28731C6.31282 7.32213 6.35416 7.34975 6.39966 7.36859C6.44516 7.38743 6.49392 7.39713 6.54317 7.39713C6.59241 7.39712 6.64117 7.38742 6.68667 7.36857C6.73217 7.34973 6.7735 7.3221 6.80832 7.28728C6.84314 7.25245 6.87076 7.21111 6.88961 7.16561C6.90845 7.12011 6.91815 7.07135 6.91814 7.0221V6.78726C7.21388 6.7386 7.51341 6.62845 7.75055 6.44854C8.04596 6.22439 8.24246 5.90329 8.23219 5.47218C8.23144 5.42895 8.22864 5.38578 8.2238 5.34281C8.16661 4.87162 7.91194 4.5651 7.5743 4.36125C7.28039 4.18378 6.92892 4.09556 6.60694 4.04268C6.38044 4.00551 6.14231 3.94284 5.96911 3.82973C5.83941 3.74507 5.74636 3.62273 5.73769 3.44423C5.72822 3.24937 5.81339 3.0921 5.9476 2.98298C6.05452 2.89607 6.19116 2.8356 6.33956 2.80575C6.4965 2.77428 6.65847 2.77819 6.8137 2.81718C7.06111 2.8799 7.28635 3.04298 7.40499 3.32554C7.42403 3.37094 7.45183 3.41215 7.4868 3.44681C7.52176 3.48146 7.56322 3.50889 7.60879 3.52753C7.65436 3.54616 7.70315 3.55564 7.75238 3.55541C7.80162 3.55519 7.85032 3.54526 7.89572 3.52621C7.94112 3.50717 7.98233 3.47937 8.01698 3.4444C8.05164 3.40944 8.07907 3.36798 8.0977 3.32241C8.11634 3.27684 8.12581 3.22805 8.12559 3.17882C8.12536 3.12958 8.11544 3.08088 8.09639 3.03548C7.87603 2.51067 7.45655 2.20748 6.99535 2.09057C6.96976 2.0841 6.94404 2.07821 6.91819 2.0729V1.83098C6.91818 1.78173 6.90846 1.73297 6.88961 1.68747C6.87075 1.64198 6.84311 1.60064 6.80828 1.56583C6.77345 1.53101 6.7321 1.5034 6.68659 1.48456C6.64109 1.46573 6.59232 1.45604 6.54307 1.45605C6.49382 1.45606 6.44506 1.46577 6.39956 1.48463C6.35407 1.50349 6.31273 1.53113 6.27792 1.56596C6.2431 1.60079 6.21549 1.64214 6.19665 1.68764C6.17782 1.73315 6.16813 1.78192 6.16814 1.83117Z" fill="#1674B7"/>
</svg>
