<svg width="33" height="40" viewBox="0 0 33 40" fill="none" xmlns="http://www.w3.org/2000/svg">
<path d="M32.1234 29.8656C32.0922 29.9645 32.0529 30.0251 32.0053 30.0472C29.4498 31.205 26.8587 32.2676 24.2319 33.2349C24.2705 32.9691 24.2898 32.6213 24.2898 32.1915C24.2764 25.0011 24.2519 19.2424 24.2163 14.9154C24.1895 11.4199 22.0634 8.61773 18.6358 7.81141C17.2317 7.48135 14.6153 7.53008 13.2782 7.8978C9.97757 8.8038 7.95174 11.7256 7.94951 15.0816C7.94506 22.9247 7.95249 30.7694 7.9718 38.6155C7.95249 38.7144 7.88043 38.7698 7.75563 38.7816C7.60259 38.7979 7.5179 38.8082 7.50156 38.8127C5.02779 39.3989 2.52726 39.7947 0 40C0.0683446 39.6899 0.101773 39.4314 0.100288 39.2247C0.0988018 37.4762 0.0936035 35.7188 0.0846889 33.9526C0.148576 33.7163 0.153775 33.4689 0.100288 33.2105C0.106231 27.7804 0.106976 22.3281 0.102518 16.8537C0.101033 14.7464 0.166403 13.2718 0.298635 12.43C1.33272 5.882 6.69257 0.92224 13.2982 0.118135C14.544 -0.0324963 16.3069 -0.00369896 17.4323 0.0162375C24.7913 0.135857 31.3011 5.71143 32.041 13.1655C32.096 13.7119 32.1257 14.4067 32.1301 15.2499C32.1524 20.1233 32.1502 24.9952 32.1234 29.8656ZM7.55728 15.7971C7.58848 15.7291 7.60408 15.6516 7.60408 15.5645C7.56619 11.6237 9.67893 8.44716 13.6191 7.50128C14.8115 7.21553 16.2824 7.32407 17.5839 7.34179C20.5569 7.38167 23.3382 9.83164 24.2185 12.5607C24.4503 13.2829 24.5758 14.3816 24.5951 15.8569C24.6278 18.2877 24.6375 20.7192 24.6241 23.1514C24.6226 23.3419 24.6716 23.5738 24.7712 23.847C24.8039 23.9341 24.847 23.94 24.9005 23.8647L25.0609 23.6454C25.0809 23.6174 25.1075 23.5945 25.1385 23.5787C25.1695 23.5629 25.2041 23.5546 25.2392 23.5546L30.9111 23.5479C31.1255 23.5478 31.3324 23.4694 31.4926 23.3278C31.6528 23.1861 31.7551 22.9909 31.7802 22.7793C32.0744 20.316 31.8627 17.5448 31.8493 15.0484C31.8047 7.27755 26.0772 0.886798 18.219 0.401676C15.5425 0.235539 12.7166 0.310854 10.2628 1.12604C4.09622 3.17728 -0.156005 9.41519 0.528184 15.8768C0.545365 16.0407 0.623391 16.1924 0.74702 16.3021C0.870649 16.4119 1.031 16.4719 1.19677 16.4705C2.98859 16.4616 4.80492 16.4602 6.64577 16.4661C6.86195 16.4661 6.99121 16.5392 7.17173 16.6344C7.24304 16.6713 7.29504 16.6536 7.32773 16.5813C7.41687 16.3848 7.47705 16.1781 7.50825 15.961C7.51716 15.9049 7.53351 15.8502 7.55728 15.7971Z" fill="white"/>
</svg>
