<svg width="24" height="24" viewBox="0 0 24 24" fill="none" xmlns="http://www.w3.org/2000/svg">
<path d="M11.0625 10.7812H12.9375V12.6562H11.0625V10.7812Z" fill="#FF551A" fill-opacity="0.7"/>
<path d="M21.1875 1.875H20.0625V0H18.1875V1.875H5.8125V0H3.9375V1.875H2.8125C1.26169 1.875 0 3.13669 0 4.6875V21.1875C0 22.7383 1.26169 24 2.8125 24H12.4576C11.8081 23.4638 11.2444 22.8315 10.7859 22.125H2.8125C2.29556 22.125 1.875 21.7044 1.875 21.1875V8.8125H22.125V10.7859C22.8315 11.2444 23.4638 11.8081 24 12.4576V4.6875C24 3.13669 22.7383 1.875 21.1875 1.875ZM22.125 6.9375H1.875V4.6875C1.875 4.17056 2.29556 3.75 2.8125 3.75H3.9375V5.625H5.8125V3.75H18.1875V5.625H20.0625V3.75H21.1875C21.7044 3.75 22.125 4.17056 22.125 4.6875V6.9375Z" fill="#FF551A" fill-opacity="0.7"/>
<path d="M17.6719 11.3438C14.1825 11.3438 11.3438 14.1825 11.3438 17.6719C11.3438 21.1612 14.1825 24 17.6719 24C21.1612 24 24 21.1612 24 17.6719C24 14.1825 21.1612 11.3438 17.6719 11.3438ZM17.6719 22.125C15.2164 22.125 13.2188 20.1273 13.2188 17.6719C13.2188 15.2164 15.2164 13.2188 17.6719 13.2188C20.1273 13.2188 22.125 15.2164 22.125 17.6719C22.125 20.1273 20.1273 22.125 17.6719 22.125Z" fill="#FF551A" fill-opacity="0.7"/>
<path d="M18.5625 14.5312H16.6875V18.6094H20.1562V16.7344H18.5625V14.5312ZM7.3125 14.5312H9.1875V16.4062H7.3125V14.5312ZM3.5625 14.5312H5.4375V16.4062H3.5625V14.5312ZM3.5625 10.7812H5.4375V12.6562H3.5625V10.7812ZM3.5625 18.2812H5.4375V20.1562H3.5625V18.2812ZM7.3125 10.7812H9.1875V12.6562H7.3125V10.7812ZM7.3125 18.2812H9.1875V20.1562H7.3125V18.2812Z" fill="#FF551A" fill-opacity="0.7"/>
</svg>
