<svg width="24" height="24" viewBox="0 0 24 24" fill="none" xmlns="http://www.w3.org/2000/svg">
<g clip-path="url(#clip0_0_5)">
<path d="M16.5297 -0.0353417L16.5151 -0.05H16.4944H2.66437H2.61437V0V24V24.05H2.66437H21.3356H21.3856V24V4.84499V4.82429L21.371 4.80965L16.5297 -0.0353417ZM15.9618 5.42376H20.5356V23.2H3.46436V0.8H15.9118V5.37376V5.42376H15.9618Z" fill="white" stroke="white" stroke-width="0.1"/>
<path d="M17.8644 13.9275V13.8775H17.8144H15.7294H15.6794V13.9275V21.0512H14.6994V15.0525V15.0025H14.6494H12.5644H12.5144V15.0525V21.0512H11.5344V16.1775V16.1275H11.4844H9.39936H9.34936V16.1775V21.0512H8.36936V17.3025V17.2525H8.31936H6.23436H6.18436V17.3025V21.0512H5.06812H5.01812V21.1012V21.8512V21.9012H5.06812H18.9356H18.9856V21.8512V21.1012V21.0512H18.9356H17.8644V13.9275Z" fill="white" stroke="white" stroke-width="0.1"/>
<path d="M13.1875 3.67056V3.62056H13.1375H6.2406H6.1906V3.67056V4.42056V4.47056H6.2406H13.1375H13.1875V4.42056V3.67056Z" fill="white" stroke="white" stroke-width="0.1"/>
<path d="M18.0782 9.19412V9.14412H18.0282H5.12183H5.07183V9.19412V9.94412V9.99412H5.12183H18.0282H18.0782V9.94412V9.19412Z" fill="white" stroke="white" stroke-width="0.1"/>
<path d="M18.0782 11.1083V11.0583H18.0282H5.12183H5.07183V11.1083V11.8583V11.9083H5.12183H18.0282H18.0782V11.8583V11.1083Z" fill="white" stroke="white" stroke-width="0.1"/>
<path d="M18.0782 7.27994V7.22994H18.0282H5.12183H5.07183V7.27994V8.02994V8.07994H5.12183H18.0282H18.0782V8.02994V7.27994Z" fill="white" stroke="white" stroke-width="0.1"/>
</g>
<defs>
<clipPath id="clip0_0_5">
<rect width="24" height="24" fill="white"/>
</clipPath>
</defs>
</svg>
