<svg width="24" height="24" viewBox="0 0 24 24" fill="none" xmlns="http://www.w3.org/2000/svg">
<path d="M5.24292 0.703125L1.80469 4.14136H5.24292V0.703125Z" fill="#156FB5"/>
<path d="M4.80469 20.2969H22.8984V10.4065H4.80469V20.2969ZM16.8281 12.1465H21.0586V13.5528H18.2344V14.6412H20.3555V16.0474H18.2344V17.1329H21.0586V18.5391H16.8281V12.1465ZM11.7891 17.0963L13.0375 15.3648L11.7891 13.6334V12.1465H13.1953V13.1792L13.9043 14.1625L14.6133 13.1792V12.1465H16.0195V13.6334L14.7711 15.3648L16.0195 17.0963V18.5421H14.6133V17.5504L13.9043 16.5671L13.1953 17.5503V18.542H11.7891V17.0963ZM6.75 12.1465H10.9805V13.5528H8.15625V14.6412H10.2773V16.0474H8.15625V17.1329H10.9805V18.5391H6.75V12.1465Z" fill="#156FB5"/>
<path d="M3.39844 21.7031V9.00019H20.6016V0H6.64917V5.54761H1.10156V24H20.6016V21.7031H3.39844ZM12.3516 2.64853H18.3485V4.05478H12.3516V2.64853ZM9.35156 5.64853H18.3485V7.05478H9.35156V5.64853Z" fill="#156FB5"/>
</svg>
