<svg width="28" height="28" viewBox="0 0 28 28" fill="none" xmlns="http://www.w3.org/2000/svg">
<path d="M11.6272 11.2248L0 14.8284V24.2352C0 24.4803 0.183749 24.684 0.426943 24.7153C1.9146 24.9067 3.09317 26.0853 3.28463 27.573C3.31591 27.8161 3.51962 27.9999 3.76473 27.9999H24.2352C24.4804 27.9999 24.684 27.8162 24.7153 27.573C24.9068 26.0853 26.0853 24.9067 27.573 24.7153C27.8161 24.684 27.9999 24.4803 27.9999 24.2352V14.8281L15.7369 11.2248C14.4162 11.7444 12.9478 11.7444 11.6272 11.2248Z" fill="#FF551A"/>
<path d="M26.5864 15.3843V24.2353C26.5864 24.4804 26.4026 24.6841 26.1595 24.7154C24.6718 24.9068 23.4932 26.0854 23.3018 27.573C23.2705 27.8162 23.0668 28 22.8216 28H24.2351C24.4803 28 24.6839 27.8162 24.7153 27.573C24.9067 26.0854 26.0853 24.9068 27.573 24.7154C27.8161 24.6841 27.9998 24.4804 27.9998 24.2353V14.8282L26.5864 15.3843Z" fill="#FF551A"/>
<path d="M27.9999 14.8281V3.76473C27.9999 3.51956 27.8161 3.31591 27.5729 3.28463C26.0853 3.09311 24.9068 1.9146 24.7153 0.426943C24.684 0.183749 24.4803 0 24.2352 0H3.76473C3.51956 0 3.31591 0.183749 3.28463 0.426943C3.09311 1.9146 1.9146 3.09311 0.426943 3.28457C0.183749 3.31591 0 3.51956 0 3.76473V14.8283L11.9448 19.5277C13.2654 20.0473 14.7338 20.0473 16.0545 19.5277L27.9999 14.8281Z" fill="#F9F7F8"/>
<path d="M27.573 3.28457C26.0853 3.09311 24.9068 1.9146 24.7153 0.426943C24.6841 0.183749 24.4803 0 24.2352 0H22.8217C23.0668 0 23.2705 0.183749 23.3018 0.426943C23.4933 1.9146 24.6719 3.09317 26.1595 3.28463C26.4027 3.31591 26.5865 3.51962 26.5865 3.76473V15.3842L27.9999 14.8281V3.76473C27.9999 3.51956 27.8162 3.31591 27.573 3.28457Z" fill="#DEDBEE"/>
<path d="M15.766 24.771V23.2077C15.766 23.0604 15.6874 22.9243 15.5599 22.8507L14.206 22.069C14.0785 21.9954 13.9214 21.9954 13.7938 22.069L12.44 22.8507C12.3125 22.9243 12.2339 23.0604 12.2339 23.2077V24.771C12.2339 24.9182 12.3125 25.0543 12.44 25.128L13.7938 25.9096C13.9214 25.9832 14.0785 25.9832 14.206 25.9096L15.5599 25.128C15.6874 25.0543 15.766 24.9182 15.766 24.771Z" fill="#FF551A"/>
<path d="M12.7553 14.0663C12.7008 14.0663 12.6454 14.0557 12.592 14.0332C12.3768 13.9429 12.2756 13.6953 12.3659 13.4801L14.9379 7.35134C15.0282 7.13614 15.2759 7.03508 15.4911 7.12521C15.7063 7.21555 15.8075 7.46317 15.7172 7.67837L13.1451 13.8071C13.0772 13.9689 12.9204 14.0663 12.7553 14.0663Z" fill="#FF551A"/>
<path d="M12.2631 10.2931C11.4035 10.2931 10.7041 9.51113 10.7041 8.54994C10.7041 7.58876 11.4035 6.80673 12.2631 6.80673C13.1227 6.80673 13.8221 7.58876 13.8221 8.54994C13.8221 9.51113 13.1227 10.2931 12.2631 10.2931ZM12.2631 7.65176C11.8694 7.65176 11.5491 8.05464 11.5491 8.54994C11.5491 9.04514 11.8694 9.44807 12.2631 9.44807C12.6568 9.44807 12.977 9.04519 12.977 8.54994C12.977 8.05464 12.6568 7.65176 12.2631 7.65176Z" fill="#FF551A"/>
<path d="M15.7368 14.4835C14.8772 14.4835 14.1778 13.7015 14.1778 12.7404C14.1778 11.7792 14.8772 10.9971 15.7368 10.9971C16.5964 10.9971 17.2958 11.7792 17.2958 12.7404C17.2958 13.7015 16.5964 14.4835 15.7368 14.4835ZM15.7368 11.8422C15.3431 11.8422 15.0229 12.2451 15.0229 12.7404C15.0229 13.2355 15.3431 13.6385 15.7368 13.6385C16.1305 13.6385 16.4508 13.2356 16.4508 12.7404C16.4508 12.2451 16.1305 11.8422 15.7368 11.8422Z" fill="#FF551A"/>
<path d="M8.04735 6.75046H2.49922C2.2423 6.75046 2.03405 6.54221 2.03405 6.28529V4.94562C2.03405 4.6887 2.2423 4.48045 2.49922 4.48045H8.04735C8.30427 4.48045 8.51252 4.6887 8.51252 4.94562V6.28535C8.51252 6.54221 8.30422 6.75046 8.04735 6.75046Z" fill="#FF551A"/>
<path d="M8.04733 4.48045H6.80686C7.06378 4.48045 7.27203 4.6887 7.27203 4.94562V6.28529C7.27203 6.54221 7.06378 6.75046 6.80686 6.75046H8.04733C8.30425 6.75046 8.5125 6.54221 8.5125 6.28529V4.94562C8.5125 4.6887 8.30419 4.48045 8.04733 4.48045Z" fill="#FF551A"/>
<path d="M7.65969 8.97243H2.88686C2.65345 8.97243 2.46434 8.78327 2.46434 8.54992C2.46434 8.31651 2.65351 8.12741 2.88686 8.12741H7.65969C7.89309 8.12741 8.0822 8.31657 8.0822 8.54992C8.0822 8.78327 7.89309 8.97243 7.65969 8.97243Z" fill="#FF551A"/>
<path d="M7.65969 10.6215H2.88686C2.65345 10.6215 2.46434 10.4323 2.46434 10.199C2.46434 9.96561 2.65351 9.77645 2.88686 9.77645H7.65969C7.89309 9.77645 8.0822 9.96561 8.0822 10.199C8.0822 10.4323 7.89309 10.6215 7.65969 10.6215Z" fill="#FF551A"/>
<path d="M7.65969 12.2705H2.88686C2.65345 12.2705 2.46434 12.0814 2.46434 11.848C2.46434 11.6146 2.65351 11.4255 2.88686 11.4255H7.65969C7.89309 11.4255 8.0822 11.6147 8.0822 11.848C8.0822 12.0814 7.89309 12.2705 7.65969 12.2705Z" fill="#FF551A"/>
<path d="M7.65969 13.9196H2.88686C2.65345 13.9196 2.46434 13.7304 2.46434 13.497C2.46434 13.2637 2.65351 13.0745 2.88686 13.0745H7.65969C7.89309 13.0745 8.0822 13.2637 8.0822 13.497C8.0822 13.7304 7.89309 13.9196 7.65969 13.9196Z" fill="#FF551A"/>
<path d="M25.5006 6.75046H19.9525C19.6956 6.75046 19.4873 6.54221 19.4873 6.28529V4.94562C19.4873 4.6887 19.6956 4.48045 19.9525 4.48045H25.5006C25.7576 4.48045 25.9658 4.6887 25.9658 4.94562V6.28535C25.9658 6.54221 25.7576 6.75046 25.5006 6.75046Z" fill="#FF551A"/>
<path d="M25.5007 4.48045H24.2602C24.5171 4.48045 24.7254 4.6887 24.7254 4.94562V6.28529C24.7254 6.54221 24.5171 6.75046 24.2602 6.75046H25.5007C25.7576 6.75046 25.9659 6.54221 25.9659 6.28529V4.94562C25.9659 4.6887 25.7576 4.48045 25.5007 4.48045Z" fill="#FF551A"/>
<path d="M25.113 8.97243H20.3402C20.1067 8.97243 19.9176 8.78327 19.9176 8.54992C19.9176 8.31651 20.1068 8.12741 20.3402 8.12741H25.113C25.3464 8.12741 25.5356 8.31657 25.5356 8.54992C25.5356 8.78327 25.3464 8.97243 25.113 8.97243Z" fill="#FF551A"/>
<path d="M25.113 10.6215H20.3402C20.1067 10.6215 19.9176 10.4323 19.9176 10.199C19.9176 9.96561 20.1068 9.77645 20.3402 9.77645H25.113C25.3464 9.77645 25.5356 9.96561 25.5356 10.199C25.5356 10.4323 25.3464 10.6215 25.113 10.6215Z" fill="#FF551A"/>
<path d="M25.113 12.2705H20.3402C20.1067 12.2705 19.9176 12.0814 19.9176 11.848C19.9176 11.6146 20.1068 11.4255 20.3402 11.4255H25.113C25.3464 11.4255 25.5356 11.6147 25.5356 11.848C25.5356 12.0814 25.3464 12.2705 25.113 12.2705Z" fill="#FF551A"/>
<path d="M25.113 13.9196H20.3402C20.1067 13.9196 19.9176 13.7304 19.9176 13.497C19.9176 13.2637 20.1068 13.0745 20.3402 13.0745H25.113C25.3464 13.0745 25.5356 13.2637 25.5356 13.497C25.5356 13.7304 25.3464 13.9196 25.113 13.9196Z" fill="#FF551A"/>
<path d="M18.8936 2.48406H9.10631C8.87291 2.48406 8.6838 2.2949 8.6838 2.06154C8.6838 1.82819 8.87296 1.63903 9.10631 1.63903H18.8936C19.127 1.63903 19.3161 1.82819 19.3161 2.06154C19.3161 2.2949 19.1269 2.48406 18.8936 2.48406Z" fill="#FF551A"/>
<path d="M8.71157 26.4511H5.27332C5.03992 26.4511 4.85081 26.262 4.85081 26.0286C4.85081 25.7953 5.03997 25.6061 5.27332 25.6061H8.71157C8.94497 25.6061 9.13408 25.7953 9.13408 26.0286C9.13408 26.262 8.94497 26.4511 8.71157 26.4511Z" fill="#F9F7F8"/>
<path d="M8.71154 24.8682H4.70991C4.4765 24.8682 4.2874 24.6791 4.2874 24.4457C4.2874 24.2124 4.47656 24.0232 4.70991 24.0232H8.71154C8.94495 24.0232 9.13405 24.2124 9.13405 24.4457C9.13405 24.6791 8.94495 24.8682 8.71154 24.8682Z" fill="#F9F7F8"/>
<path d="M8.71156 23.2854H3.58321C3.3498 23.2854 3.16069 23.0962 3.16069 22.8628C3.16069 22.6295 3.34986 22.4403 3.58321 22.4403H8.71161C8.94502 22.4403 9.13413 22.6295 9.13413 22.8628C9.13413 23.0962 8.94496 23.2854 8.71156 23.2854Z" fill="#F9F7F8"/>
<path d="M8.71154 21.7025H1.89303C1.65962 21.7025 1.47051 21.5133 1.47051 21.28C1.47051 21.0466 1.65968 20.8575 1.89303 20.8575H8.71154C8.94495 20.8575 9.13406 21.0466 9.13406 21.28C9.13406 21.5133 8.94495 21.7025 8.71154 21.7025Z" fill="#F9F7F8"/>
<path d="M5.45536 20.1853H1.89303C1.65962 20.1853 1.47051 19.9961 1.47051 19.7628C1.47051 19.5294 1.65968 19.3402 1.89303 19.3402H5.45536C5.68876 19.3402 5.87787 19.5294 5.87787 19.7628C5.87787 19.9961 5.68876 20.1853 5.45536 20.1853Z" fill="#F9F7F8"/>
<path d="M22.7266 26.4511H19.2884C19.055 26.4511 18.8659 26.262 18.8659 26.0286C18.8659 25.7953 19.055 25.6061 19.2884 25.6061H22.7266C22.96 25.6061 23.1492 25.7953 23.1492 26.0286C23.1492 26.262 22.96 26.4511 22.7266 26.4511Z" fill="#F9F7F8"/>
<path d="M23.29 24.8682H19.2884C19.055 24.8682 18.8659 24.6791 18.8659 24.4457C18.8659 24.2124 19.055 24.0232 19.2884 24.0232H23.29C23.5234 24.0232 23.7125 24.2124 23.7125 24.4457C23.7125 24.6791 23.5234 24.8682 23.29 24.8682Z" fill="#F9F7F8"/>
<path d="M24.4167 23.2854H19.2883C19.0549 23.2854 18.8658 23.0962 18.8658 22.8628C18.8658 22.6295 19.055 22.4403 19.2883 22.4403H24.4167C24.6501 22.4403 24.8393 22.6295 24.8393 22.8628C24.8393 23.0962 24.6501 23.2854 24.4167 23.2854Z" fill="#F9F7F8"/>
<path d="M26.1069 21.7025H19.2884C19.055 21.7025 18.8659 21.5133 18.8659 21.28C18.8659 21.0466 19.055 20.8575 19.2884 20.8575H26.1069C26.3403 20.8575 26.5294 21.0466 26.5294 21.28C26.5294 21.5133 26.3403 21.7025 26.1069 21.7025Z" fill="#F9F7F8"/>
<path d="M26.1069 20.1853H22.5446C22.3112 20.1853 22.1221 19.9961 22.1221 19.7628C22.1221 19.5294 22.3113 19.3402 22.5446 19.3402H26.1069C26.3403 19.3402 26.5295 19.5294 26.5295 19.7628C26.5295 19.9961 26.3403 20.1853 26.1069 20.1853Z" fill="#F9F7F8"/>
</svg>
