<svg width="5" height="6" viewBox="0 0 5 6" fill="none" xmlns="http://www.w3.org/2000/svg">
<path d="M0.773546 1.6433V5.74909C0.773546 5.85502 0.719396 5.90799 0.6111 5.90799H0.159865C0.0532875 5.90799 0 5.85416 0 5.74652V0.474613C0.000449384 0.372385 0.0339523 0.27301 0.0955601 0.19115C0.157168 0.109291 0.24362 0.0492913 0.342156 0.0199951C0.440693 -0.00930112 0.546092 -0.00633883 0.642804 0.02845C0.739515 0.0632388 0.822414 0.128007 0.879265 0.213199L3.70528 4.5112C3.7169 4.52788 3.73363 4.54058 3.75297 4.5474C3.77231 4.55421 3.79323 4.55478 3.81264 4.54902C3.83204 4.54326 3.84889 4.53148 3.86067 4.51544C3.87245 4.49939 3.87855 4.47993 3.87805 4.45994L3.86257 0.23883C3.86257 0.12777 3.91758 0.0730909 4.02759 0.0747995L4.47625 0.0824879C4.58626 0.0841965 4.64127 0.139733 4.64127 0.249083V5.53124C4.64178 5.63177 4.60959 5.72978 4.5495 5.81065C4.48941 5.89152 4.40465 5.95094 4.30783 5.98004C4.21101 6.00914 4.10733 6.00637 4.01223 5.97214C3.91712 5.93791 3.83569 5.87406 3.78006 5.7901L0.982403 1.57923C0.969006 1.5585 0.94915 1.54272 0.925872 1.53427C0.902595 1.52582 0.877173 1.52518 0.853494 1.53244C0.829815 1.5397 0.809182 1.55448 0.794745 1.5745C0.780307 1.59451 0.772862 1.61868 0.773546 1.6433Z" fill="white"/>
</svg>
